<?xml version="1.0" standalone="no"?>
<!DOCTYPE svg PUBLIC "-//W3C//DTD SVG 1.1//EN" "http://www.w3.org/Graphics/SVG/1.1/DTD/svg11.dtd" >
<svg xmlns="http://www.w3.org/2000/svg" xmlns:xlink="http://www.w3.org/1999/xlink" version="1.1">
<metadata>
Created by FontForge 20161116 at Wed Jan 10 17:55:13 2007
 By Jimmy Warting
(c) 2007 Adobe Systems Incorporated. All rights reserved.
</metadata>
<defs>
<font id="ArnoPro-SmbdSmText" horiz-adv-x="552" >
  <font-face 
    font-family="ArnoPro"
    font-weight="600"
    font-stretch="normal"
    units-per-em="1000"
    panose-1="2 2 7 2 4 5 6 2 4 3"
    ascent="675"
    descent="-325"
    x-height="405"
    cap-height="611"
    bbox="-144 -379.442 1578 885"
    underline-thickness="50"
    underline-position="-100"
    stemh="41"
    stemv="115"
    unicode-range="U+0020-FB06"
  />
<missing-glyph horiz-adv-x="495" 
d="M0 0v693h495v-693h-495zM248 391l168 253h-337zM277 347l169 -253v505zM79 50h337l-168 252zM50 599v-505l168 253z" />
    <glyph glyph-name="R_A" unicode="RA" horiz-adv-x="1262" 
d="M31 575c-5 6 -3 33 3 36c24 0 99 -3 135 -3c83 0 139 2 186 2c123 0 188 -69 188 -156c0 -78 -50 -126 -115 -153c-2 -1 -2 -6 -1 -8c24 -44 111 -164 158 -214c16 -17 44 -34 75 -34c21 0 31 11 44 40c54 127 149 383 173 453c8 21 18 54 21 72c12 -1 29 -2 47 -2
c21 0 36 1 47 2c5 -18 12 -42 18 -60c31 -84 118 -330 154 -418c33 -80 38 -87 114 -98c3 -5 0 -33 -3 -37c-26 0 -71 3 -142 3c-72 0 -117 -3 -149 -3c-3 6 -5 32 -1 37c19 3 42 7 52 13c11 6 12 16 10 21c-8 34 -33 104 -47 139c-2 3 -7 7 -11 7c-16 1 -53 0 -85 0
c-47 0 -66 1 -79 0c-4 0 -10 -6 -11 -10c-18 -51 -40 -109 -40 -127c0 -16 3 -28 29 -34c15 -4 28 -6 50 -9c3 -5 0 -31 -3 -37c-25 0 -38 3 -131 3c-30 0 -120 -3 -155 -3c-60 -1 -92 20 -124 59c-40 51 -90 134 -124 187c-7 11 -16 15 -28 16c-6 0 -34 1 -40 1
c-2 0 -5 -5 -5 -7c0 -59 1 -127 2 -163c2 -29 8 -40 30 -46c18 -5 30 -6 56 -10c5 -2 3 -35 -2 -37c-25 0 -76 3 -147 3c-77 0 -124 -3 -147 -3c-4 4 -6 32 0 37c18 2 36 5 49 8c22 5 30 18 31 50c2 29 3 158 3 218c0 102 0 174 -2 211c-1 26 -9 39 -30 44
c-13 3 -33 7 -53 10zM282 567c-8 0 -24 -2 -32 -5c-3 -3 -7 -11 -7 -15c-2 -28 -2 -130 -2 -231c0 -3 2 -7 6 -7c54 -2 99 2 115 11c28 14 52 42 52 106c0 86 -47 141 -132 141zM903 472l-65 -189c-1 -4 0 -8 3 -9c11 -1 35 -1 65 -1s56 0 65 1c2 0 4 4 3 6
c-12 37 -47 142 -66 193c-1 0 -4 0 -5 -1z" />
    <glyph glyph-name="K_A" unicode="KA" horiz-adv-x="1270" 
d="M391 575c-3 7 -3 31 1 36c31 0 70 -3 122 -3c73 1 103 2 132 3c5 -5 5 -31 0 -36c-58 -9 -85 -16 -125 -63l-148 -167c-1 -1 -1 -3 0 -5c45 -73 172 -211 230 -262c23 -19 43 -30 65 -30c14 0 24 5 37 36c55 124 153 384 177 454c8 21 18 54 21 72c12 -1 29 -2 47 -2
c21 0 36 1 47 2c5 -18 12 -42 18 -60c31 -84 118 -330 154 -418c33 -80 38 -87 114 -98c3 -5 0 -33 -4 -37c-25 0 -70 3 -141 3c-72 0 -117 -3 -149 -3c-3 6 -5 32 -1 37c16 2 42 7 52 13c11 6 12 16 10 21c-8 34 -33 104 -47 139c-2 3 -7 7 -11 7c-16 1 -53 0 -85 0
c-47 0 -65 1 -79 0c-4 0 -10 -6 -11 -10c-18 -51 -39 -107 -42 -128c-3 -15 -1 -29 24 -34c15 -4 30 -6 49 -8c2 -5 0 -31 -3 -37c-18 0 -61 4 -113 3c-17 0 -116 -4 -147 -4c-59 1 -92 8 -138 57c-50 53 -135 158 -179 216c-1 3 -11 13 -18 18c0 3 1 18 4 19
c46 21 109 85 181 180c22 30 30 48 30 60c0 7 -5 14 -18 18c-12 4 -30 7 -56 11zM29 33c22 4 42 7 55 11c25 7 29 19 30 60c2 40 3 129 2 215c-1 79 0 159 -1 200c-1 25 -6 39 -26 45c-12 3 -35 7 -55 10c-6 11 -4 30 0 37c37 0 71 -3 145 -3c53 0 99 3 139 3
c3 -6 3 -30 0 -36c-21 -4 -32 -5 -47 -10c-21 -6 -26 -18 -27 -48c-1 -49 -1 -140 -2 -208c0 -77 0 -161 2 -214c2 -31 9 -43 30 -50c14 -4 34 -7 58 -12c3 -5 0 -32 -5 -36c-42 1 -83 3 -152 3c-76 0 -121 -3 -146 -3c-4 6 -4 31 0 36zM908 472l-65 -189c-1 -4 1 -8 3 -9
c12 -1 35 -1 65 -1s56 0 65 1c2 0 4 4 3 6c-12 37 -47 142 -66 193c-1 0 -4 0 -5 -1z" />
    <glyph glyph-name="T_T" unicode="TT" horiz-adv-x="1106" 
d="M148 34c30 3 54 6 68 10c29 5 35 21 37 65c5 98 4 275 4 435c0 4 -3 11 -8 11c-18 1 -78 1 -102 0c-19 -1 -32 -9 -46 -33c-12 -20 -24 -51 -37 -89c-4 -4 -37 2 -40 10c8 42 18 123 21 172c0 2 8 8 11 7c27 -11 61 -14 90 -14h813c52 0 85 3 112 13c3 0 7 -6 7 -8
c-10 -43 -19 -114 -24 -177c-4 -4 -37 -5 -41 -1c-4 39 -10 68 -19 92c-7 20 -21 27 -37 28c-28 2 -95 2 -111 1c-4 -2 -7 -6 -7 -10c0 -145 -1 -396 2 -453c2 -21 6 -39 28 -47c15 -5 35 -7 72 -12c4 -5 2 -32 -3 -37c-37 0 -95 3 -165 3c-85 0 -140 -3 -170 -3
c-6 5 -5 32 0 37c30 3 54 6 68 10c29 5 35 21 37 65c5 98 4 276 4 437c0 4 -3 10 -8 10h-313c-4 -2 -7 -7 -7 -10c0 -145 -1 -396 2 -453c2 -21 6 -39 28 -47c15 -5 35 -7 72 -12c4 -5 2 -32 -3 -37c-37 0 -95 3 -165 3c-85 0 -140 -3 -170 -3c-6 5 -5 32 0 37z" />
    <glyph glyph-name="T_h" unicode="Th" horiz-adv-x="1054" 
d="M168 34c30 4 44 7 58 10c29 6 35 21 38 65c4 99 3 275 3 435c0 2 -4 10 -7 10c-18 2 -86 2 -115 1c-18 -1 -34 -9 -46 -33c-11 -22 -21 -48 -35 -87c-4 -4 -38 4 -40 11c8 42 18 127 21 174c2 1 8 2 12 1c27 -10 60 -13 88 -13h445c3 0 7 3 7 8v32c0 3 5 10 8 10
c45 1 92 13 104 17c4 -2 6 -6 6 -8c0 -10 -1 -54 -1 -131c0 -41 -1 -151 -1 -172c0 -2 3 -4 5 -3c44 32 90 55 130 55c84 0 132 -60 132 -164c0 -55 0 -145 1 -184c0 -6 4 -15 9 -19c12 -7 24 -11 52 -15c2 -5 -1 -33 -5 -37c-15 0 -56 3 -118 3c-36 0 -81 -1 -103 -3
c-3 6 -3 32 0 37c11 2 24 5 30 7c15 4 18 13 19 45c1 54 3 156 -4 194c-6 34 -34 63 -81 63c-20 0 -41 -5 -58 -16c-4 -2 -8 -9 -8 -15c0 -77 0 -193 2 -223c1 -29 1 -41 21 -48c10 -3 17 -5 33 -7c3 -4 2 -32 0 -37c-26 0 -72 3 -117 3c-39 0 -82 -3 -112 -3
c-3 6 -3 33 0 37c18 3 28 5 37 8c18 6 19 20 20 52c2 35 2 111 2 162c0 192 0 253 -2 284c0 7 -6 15 -14 15c-35 2 -164 2 -183 1c-2 -1 -7 -7 -7 -10c0 -145 -1 -396 3 -453c1 -21 5 -39 27 -47c15 -5 28 -7 64 -12c4 -5 1 -32 -3 -37c-56 1 -103 3 -156 3s-113 -3 -161 -3
c-6 6 -5 32 0 37z" />
    <glyph glyph-name="f_b" unicode="fb" horiz-adv-x="793" 
d="M19 34c16 3 31 6 41 9c15 5 18 17 18 33c2 71 2 170 2 258c0 2 -3 7 -6 7l-52 4c0 8 6 30 10 36c12 3 33 10 44 17c3 2 5 6 5 8c3 99 38 168 117 220c36 25 84 39 115 39c37 0 54 -5 81 -17c6 -2 11 -4 21 -1c16 6 25 11 40 19c3 -1 12 -11 12 -16c-4 -16 -7 -38 -7 -83
c-1 -49 0 -146 -1 -190c2 -3 4 -4 6 -3c43 22 95 42 129 42c51 0 87 -21 112 -50c35 -38 48 -92 48 -133c0 -82 -38 -144 -91 -185c-38 -29 -130 -60 -176 -60c-70 0 -115 13 -151 28c5 24 6 50 6 67c1 52 2 106 2 177c0 156 0 235 -1 269c0 21 -6 40 -14 50
c-21 25 -42 33 -66 33c-20 0 -37 -12 -43 -21c-18 -20 -28 -62 -28 -142c0 -19 0 -29 1 -39c0 -4 4 -8 7 -8c48 1 76 2 95 3c-4 -15 -7 -46 -9 -65c-31 1 -59 2 -87 2c-4 0 -6 -5 -6 -7c0 -102 1 -203 2 -254c1 -27 8 -36 28 -41c12 -3 28 -5 39 -6c2 -5 0 -33 -3 -38
c-34 0 -71 4 -128 4c-34 0 -90 -4 -112 -4c-3 6 -4 33 0 38zM514 348c-16 0 -37 -4 -46 -10c-3 -1 -7 -9 -8 -15c-1 -45 -2 -148 1 -206c1 -22 7 -44 16 -52c19 -18 48 -24 66 -24c24 0 45 9 62 31c18 23 31 64 31 111c0 56 -14 92 -32 118c-25 36 -57 47 -90 47z" />
    <glyph glyph-name="f_f" unicode="ff" horiz-adv-x="558" 
d="M17 33c15 2 34 5 43 9c15 4 19 17 19 33c1 71 1 176 1 264c0 2 -3 7 -6 7l-53 4c0 9 6 28 10 34c10 2 33 9 45 14c4 2 5 6 6 11c3 70 31 141 113 196c41 27 87 41 120 41c53 0 90 -15 115 -41c35 33 94 62 137 61c38 0 68 -13 81 -32c1 -5 2 -15 1 -20
c-5 -16 -33 -55 -43 -61c-3 -1 -12 -1 -16 0c-26 33 -51 55 -78 55c-43 0 -54 -53 -54 -149c0 -19 0 -40 1 -49c0 -3 4 -8 7 -8c59 1 82 2 101 3c-4 -14 -8 -41 -10 -60c-31 1 -64 2 -92 2c-4 0 -6 -5 -6 -7c1 -102 0 -205 3 -258c1 -22 7 -34 28 -39c16 -4 34 -7 51 -9
c1 -6 0 -37 -6 -38c-23 0 -86 4 -137 4c-52 0 -86 -4 -108 -4c-3 6 -4 33 0 38c15 3 27 4 36 8c15 4 19 17 19 32c1 72 1 178 1 265c0 2 -3 7 -6 8h-141c-4 0 -6 -5 -6 -7c0 -87 1 -202 2 -260c1 -22 6 -35 27 -40c13 -3 23 -5 35 -6c2 -5 -1 -33 -4 -38c-25 0 -50 4 -121 4
c-60 0 -96 -4 -115 -4c-3 6 -4 32 0 37zM193 432v-22c1 -4 5 -8 7 -8h142c3 1 4 6 4 8c2 37 10 80 25 114c-24 47 -63 71 -102 71c-17 0 -35 -7 -47 -22c-16 -20 -29 -57 -29 -141z" />
    <glyph glyph-name="f_f_b" unicode="ffb" horiz-adv-x="1064" 
d="M17 33c15 3 33 5 42 8c16 5 20 18 20 34c1 71 0 176 1 264c0 2 -3 6 -6 6l-53 5c0 9 6 28 10 34c12 2 33 9 45 14c3 2 5 6 5 11c5 78 37 146 116 197c37 24 82 40 120 40c48 0 90 -16 118 -44c34 32 94 64 146 64c41 0 55 -5 86 -19c5 -2 10 -3 19 0c16 5 26 11 41 19
c3 -1 12 -11 12 -15c-5 -17 -7 -39 -8 -79c-1 -51 -1 -144 -1 -198c1 -3 4 -4 6 -3c43 22 96 45 128 45c50 0 88 -21 113 -50c35 -38 47 -92 47 -133c0 -82 -32 -143 -85 -184c-40 -30 -123 -61 -165 -61c-41 0 -68 6 -97 14c-14 4 -37 1 -57 -5c-3 -1 -10 6 -10 8
c3 36 5 127 6 302c0 114 0 191 -1 226c-2 21 -7 37 -15 47c-21 24 -42 33 -67 33c-63 0 -72 -83 -72 -164v-39c0 -4 5 -8 7 -8l98 3c-3 -15 -7 -42 -9 -61l-90 2c-4 0 -6 -5 -6 -7c0 -102 0 -207 2 -258c1 -27 7 -36 27 -41c13 -3 24 -5 35 -6c1 -5 0 -33 -3 -38
c-35 0 -65 4 -121 4c-34 0 -92 -4 -113 -4c-4 6 -5 33 0 38c16 3 31 6 40 9c15 5 19 17 19 32l2 265c0 2 -3 6 -6 7h-144c-4 0 -6 -5 -6 -8c0 -87 1 -201 2 -259c0 -22 6 -35 26 -40c14 -3 25 -5 36 -6c2 -5 0 -33 -4 -38c-24 0 -51 4 -121 4c-58 0 -95 -4 -115 -4
c-3 6 -4 32 0 37zM788 347c-16 0 -41 -6 -50 -12c-3 -2 -6 -9 -7 -15c-1 -45 -1 -157 1 -208c1 -22 8 -37 17 -45c20 -18 48 -26 68 -26c22 0 41 8 59 30c18 23 30 67 30 113c0 55 -13 93 -31 119c-26 35 -54 44 -87 44zM192 432l1 -22c0 -4 4 -8 7 -8h145c3 1 5 6 5 8
c2 37 10 80 25 114c-26 43 -60 71 -106 71c-15 0 -34 -8 -46 -21c-17 -19 -31 -57 -31 -142z" />
    <glyph glyph-name="f_f_h" unicode="ffh" horiz-adv-x="1071" 
d="M18 33c14 3 32 5 42 8c15 5 19 18 19 34c1 71 1 176 1 264c0 2 -3 6 -6 6l-53 5c0 9 6 28 10 34c12 2 33 9 45 14c3 2 5 6 6 11c4 78 36 147 115 197c37 24 83 40 120 40c48 0 91 -16 118 -44c36 34 96 64 148 64c34 0 57 -5 84 -19c5 -2 10 -3 19 0c16 5 26 11 41 19
c3 -1 12 -11 12 -15c-4 -17 -7 -39 -7 -79c-2 -51 -2 -148 -2 -208c0 -2 3 -4 5 -3c44 32 90 55 130 55c83 0 131 -60 131 -165c0 -54 0 -143 1 -183c0 -6 4 -15 9 -19c12 -8 30 -12 52 -15c4 -4 1 -33 -5 -37c-15 0 -55 3 -116 3c-39 0 -83 -2 -105 -3c-5 5 -5 32 0 37
c11 2 24 5 30 7c15 4 18 13 19 45c1 54 3 157 -4 195c-6 32 -33 63 -81 63c-19 0 -40 -6 -56 -16c-5 -3 -8 -10 -8 -16c0 -76 -1 -193 1 -223c2 -29 1 -41 21 -48c10 -3 19 -5 35 -7c6 -5 3 -31 -2 -37c-25 0 -56 3 -117 3c-60 0 -89 -3 -109 -3c-6 7 -6 33 -1 37
c17 3 27 5 35 8c18 6 20 20 21 52c1 35 2 111 1 211c0 115 0 193 -2 228c-1 21 -6 37 -14 47c-20 23 -42 33 -67 33c-63 0 -73 -83 -73 -164l1 -39c0 -4 4 -8 6 -8l99 3c-4 -15 -8 -42 -9 -61l-91 2c-4 0 -6 -5 -6 -7c0 -102 1 -207 2 -258c1 -27 7 -36 27 -41
c13 -3 24 -5 35 -6c1 -5 0 -33 -3 -38c-34 0 -65 4 -121 4c-34 0 -92 -4 -113 -4c-4 6 -4 33 0 38c16 3 31 6 40 9c15 5 19 17 19 32c1 72 2 174 2 265c0 2 -3 6 -6 7h-144c-3 0 -6 -5 -6 -8c0 -87 1 -201 2 -259c1 -22 6 -35 27 -40c14 -3 24 -5 36 -6c1 -5 -1 -33 -4 -38
c-25 0 -52 4 -122 4c-58 0 -95 -4 -114 -4c-4 6 -4 32 0 37zM192 432c0 0 0 -20 1 -23c0 -4 4 -7 6 -7h147c3 1 4 6 4 8c2 37 11 80 25 115c-21 39 -58 70 -106 70c-15 0 -34 -8 -45 -22c-17 -18 -32 -52 -32 -141z" />
    <glyph glyph-name="f_f_i" unicode="ffi" horiz-adv-x="805" 
d="M17 33c15 2 34 6 43 9c15 5 19 18 19 33c1 72 1 175 1 263c0 2 -3 7 -6 7l-53 5c0 9 7 28 10 34c10 2 32 9 45 15c4 1 5 5 6 10c1 71 34 145 113 196c37 23 84 41 123 41c52 0 90 -18 117 -44c34 32 94 64 158 64c69 0 114 -33 126 -65c2 -6 2 -20 -1 -27
c-7 -19 -25 -38 -48 -51c-8 -2 -24 -3 -30 1c-11 11 -20 23 -31 38c-25 32 -49 51 -76 51c-54 0 -71 -65 -71 -174l1 -29c0 -4 4 -8 7 -8h152c36 0 80 4 110 13c-2 -27 -2 -107 -2 -179c0 -52 0 -109 1 -155c0 -26 6 -34 22 -39c9 -3 14 -4 39 -8c4 -6 1 -33 -4 -37
c-24 0 -67 3 -119 3s-87 -3 -107 -3c-3 5 -4 32 0 37c19 3 23 4 35 7c13 5 16 13 17 37c2 23 2 83 2 133c0 41 0 98 -1 117c-1 6 -7 18 -15 18l-132 1c-3 0 -6 -5 -6 -8c1 -101 1 -216 3 -260c0 -22 7 -34 27 -39c14 -3 14 -3 34 -6c3 -6 2 -30 -3 -38c-35 0 -66 4 -121 4
c-36 0 -89 -4 -111 -4c-3 6 -4 33 0 38c16 3 28 5 38 9c15 4 19 16 19 31c0 71 1 178 1 265c0 2 -3 7 -6 8h-144c-4 0 -6 -5 -6 -7c0 -84 1 -201 2 -260c1 -22 6 -35 27 -40c13 -3 24 -5 35 -6c1 -5 -1 -33 -4 -38c-25 0 -51 4 -121 4c-58 0 -95 -4 -115 -4c-3 6 -4 32 0 37
zM192 432l1 -22c0 -4 4 -8 7 -8h146c3 1 4 6 4 8c2 38 10 79 25 113c-25 45 -63 72 -107 72c-15 0 -33 -9 -45 -22c-17 -19 -31 -54 -31 -141z" />
    <glyph glyph-name="f_f_j" unicode="ffj" horiz-adv-x="801" 
d="M17 33c14 2 33 6 43 9c15 5 18 18 18 33c2 72 1 175 1 263c0 2 -2 7 -5 7l-53 5c0 9 6 28 10 34c10 2 31 9 45 15c3 1 5 5 5 10c2 71 34 142 111 194c37 24 86 43 126 43c53 0 94 -18 117 -44c34 32 93 64 157 64c70 0 115 -33 127 -65c2 -6 2 -20 -1 -27
c-8 -19 -26 -38 -49 -51c-8 -3 -24 -3 -30 1c-11 10 -20 23 -31 37c-25 33 -47 52 -75 52c-55 0 -71 -65 -71 -174v-29c0 -4 5 -8 7 -8h148c35 0 80 4 115 10c-1 -95 -1 -208 -1 -306c-1 -59 -2 -91 -10 -131c-26 -118 -113 -198 -155 -218c-18 0 -31 10 -38 17
c-2 4 -1 11 1 14c64 35 84 88 84 208v41c0 99 -1 224 -4 291c0 6 -6 18 -14 19h-127c-3 0 -6 -5 -6 -8c0 -101 1 -216 2 -260c1 -22 7 -33 27 -39c12 -3 20 -3 40 -6c2 -6 0 -33 -3 -38c-25 0 -59 4 -126 4c-49 0 -89 -4 -111 -4c-3 6 -4 33 0 38c16 3 28 5 37 9
c15 4 19 16 19 31c2 71 1 178 1 265c0 2 -3 7 -6 8h-144c-3 0 -5 -5 -5 -7c-1 -84 1 -201 2 -260c0 -22 6 -34 26 -40c14 -3 24 -5 35 -6c2 -5 0 -33 -4 -38c-24 0 -50 4 -120 4c-59 0 -96 -4 -115 -4c-4 6 -5 32 0 37zM192 432v-22c1 -4 5 -8 7 -8h146c3 1 5 6 5 8
c1 38 10 79 25 114c-27 45 -62 71 -106 71c-15 0 -35 -8 -46 -22c-17 -19 -31 -54 -31 -141z" />
    <glyph glyph-name="f_f_k" unicode="ffk" horiz-adv-x="1033" 
d="M18 33c14 3 32 5 42 8c15 5 19 18 19 34c1 71 1 176 1 264c0 2 -3 6 -6 6l-53 5c0 9 6 28 10 34c12 2 33 9 45 14c3 2 5 6 6 11c4 78 36 146 115 197c37 24 81 40 120 40c48 0 91 -16 118 -44c34 32 95 64 147 64c39 0 55 -5 85 -19c5 -2 10 -3 19 0c16 5 26 11 41 19
c3 -1 11 -11 11 -15c-4 -17 -6 -39 -7 -79c-1 -51 -1 -241 -2 -353c13 2 29 10 45 23c37 30 79 83 81 98c0 8 -3 14 -15 18c-13 3 -40 7 -47 8c-3 6 -1 32 4 36c73 0 157 3 203 8c5 -4 6 -32 0 -38c-37 -7 -62 -17 -81 -36c-28 -28 -62 -63 -85 -89c-2 -2 -1 -3 -1 -6
c21 -35 114 -154 152 -186c19 -16 27 -19 69 -21c4 -5 0 -33 -6 -37c-20 -3 -79 -4 -120 -4c-27 0 -46 12 -54 19c-26 23 -76 96 -116 151c-7 12 -17 25 -29 27c0 -46 0 -71 1 -109c0 -28 7 -34 25 -39c11 -4 23 -6 37 -8c3 -6 0 -33 -6 -37c-23 0 -57 3 -114 3
c-61 0 -88 -3 -112 -3c-5 4 -5 33 0 37c10 2 23 4 33 7c15 5 19 15 20 37c2 28 3 140 3 185c0 130 0 235 -1 270c-2 21 -6 37 -15 47c-21 24 -41 33 -66 33c-63 0 -73 -83 -73 -164c0 -19 0 -29 1 -39c0 -4 4 -8 6 -8l99 3c-4 -15 -8 -42 -9 -61l-91 2c-4 0 -6 -5 -6 -7
c0 -102 1 -207 2 -258c1 -27 7 -36 27 -41c13 -3 24 -5 35 -6c1 -5 0 -33 -3 -38c-34 0 -65 4 -121 4c-34 0 -92 -4 -113 -4c-4 6 -4 33 0 38c16 3 31 6 40 9c15 5 19 17 19 32c1 72 2 174 2 265c0 2 -3 6 -6 7h-144c-3 0 -6 -5 -6 -8c0 -87 1 -201 2 -259
c1 -22 6 -35 27 -40c14 -3 24 -5 36 -6c1 -5 -1 -33 -4 -38c-25 0 -52 4 -122 4c-58 0 -95 -4 -114 -4c-4 6 -4 32 0 37zM192 432l1 -22c0 -4 4 -8 7 -8h146c3 1 4 6 4 8c2 40 10 80 25 114c-24 43 -59 71 -106 71c-15 0 -34 -7 -46 -21c-17 -19 -31 -57 -31 -142z" />
    <glyph glyph-name="f_f_l" unicode="ffl" horiz-adv-x="804" 
d="M17 33c15 3 33 5 42 8c15 5 20 18 20 34c1 71 0 176 0 264c0 2 -2 6 -5 6l-53 5c0 9 6 28 10 34c11 2 33 9 45 14c3 2 5 6 5 11c5 78 37 146 116 197c37 24 82 40 120 40c48 0 90 -16 118 -44c34 32 94 64 146 64c37 0 58 -5 85 -19c5 -2 10 -3 20 0c16 5 25 11 41 19
c3 -1 11 -11 11 -15c-4 -17 -6 -39 -7 -79c-1 -51 -1 -151 -2 -257c0 -118 0 -196 2 -235c2 -23 4 -33 23 -39c13 -3 21 -4 39 -7c4 -6 2 -30 -4 -37c-21 0 -75 3 -123 3c-43 0 -79 -3 -105 -3c-3 6 -4 32 -1 37c13 2 24 3 36 8s16 12 17 32c2 32 2 155 2 249
c0 114 1 173 -1 208c-1 21 -7 37 -15 47c-18 24 -42 35 -67 35c-63 0 -72 -83 -71 -164v-39c0 -4 5 -8 7 -8l98 3c-4 -15 -7 -42 -9 -61l-91 2c-3 0 -5 -5 -5 -7c0 -102 0 -207 2 -258c1 -27 7 -36 27 -41c13 -3 23 -5 34 -6c2 -5 1 -33 -3 -38c-34 0 -64 4 -120 4
c-34 0 -92 -4 -114 -4c-3 6 -4 33 0 38c17 3 31 6 41 9c15 5 18 17 18 32c2 72 2 174 2 265c0 2 -3 6 -5 7h-144c-4 0 -6 -5 -6 -8c0 -87 1 -201 2 -259c0 -22 6 -35 26 -40c14 -3 25 -5 36 -6c2 -5 0 -33 -4 -38c-24 0 -51 4 -121 4c-59 0 -95 -4 -115 -4c-3 6 -4 32 0 37z
M192 432v-22c1 -4 5 -8 7 -8h146c3 1 5 6 5 8c1 37 10 80 25 114c-27 43 -60 71 -107 71c-15 0 -33 -7 -45 -21c-17 -19 -31 -57 -31 -142z" />
    <glyph glyph-name="f_f_t" unicode="fft" horiz-adv-x="866" 
d="M16 33c15 2 34 6 43 9c15 5 19 18 19 33c2 71 1 176 1 263c0 2 -2 7 -5 7l-53 5c0 9 6 28 10 34c11 2 32 9 45 15c3 2 5 5 5 7c2 90 39 158 107 204c35 24 76 35 102 35c33 0 61 -8 74 -28c2 -4 3 -14 2 -18c-3 -18 -28 -53 -42 -61c-3 -3 -12 -2 -16 0
c-24 31 -47 54 -71 54c-10 0 -21 -6 -27 -16c-15 -19 -19 -54 -19 -123c0 -19 1 -33 2 -43c0 -4 4 -8 6 -8h151c3 1 5 6 5 8c4 87 35 166 111 218c36 25 75 38 104 38c38 0 64 -11 78 -31v-19c-8 -19 -30 -50 -41 -61c-3 -1 -12 -1 -15 0c-22 25 -51 54 -78 54
c-10 0 -22 -6 -28 -16c-18 -20 -21 -61 -21 -131c0 -20 2 -42 2 -52c0 -4 5 -8 7 -8h138c2 1 5 4 5 8c1 9 0 61 1 83c24 8 81 37 96 50c7 2 18 5 24 3c-2 -23 -4 -71 -4 -137c0 -3 2 -7 4 -7l117 4c-3 -16 -9 -42 -10 -62c-32 0 -73 1 -109 1c-1 0 -4 -4 -4 -6
c-1 -39 -1 -114 -1 -162c0 -40 1 -56 5 -75c5 -23 28 -40 56 -40c24 0 40 4 60 15c2 -5 1 -29 -2 -37c-27 -34 -72 -52 -118 -52c-45 0 -83 17 -100 51c-16 26 -16 52 -16 110c0 48 1 141 1 188c0 3 -2 9 -6 10h-138c-3 0 -6 -5 -6 -8c0 -102 0 -204 3 -257
c1 -22 8 -34 28 -39c16 -4 38 -8 51 -9c1 -6 -1 -37 -6 -38c-23 0 -83 4 -139 4c-53 0 -87 -4 -109 -4c-4 6 -4 33 0 38c17 3 30 5 40 8c15 5 18 17 18 32c2 72 1 178 1 265c0 2 -3 7 -6 8h-150c-3 0 -5 -5 -5 -8c0 -87 1 -201 2 -259c0 -22 6 -35 26 -40c14 -3 25 -5 37 -6
c1 -5 -1 -33 -4 -38c-25 0 -52 4 -122 4c-59 0 -96 -4 -116 -4c-3 6 -4 32 0 37z" />
    <glyph glyph-name="f_h" unicode="fh" horiz-adv-x="800" 
d="M19 34c16 3 31 6 41 9c15 5 18 18 18 34c2 71 2 169 2 257c0 2 -3 7 -6 7l-52 4c0 9 7 30 10 36c11 3 34 11 44 17c3 2 5 6 5 8c3 102 38 168 118 221c38 25 82 38 110 38c39 0 59 -5 87 -17c5 -2 11 -4 21 -1c14 5 24 10 39 19c3 -1 12 -11 12 -15c-4 -17 -7 -38 -8 -97
v-190c0 -2 2 -4 4 -3c45 32 90 55 130 55c83 0 132 -60 132 -165c0 -54 -1 -143 0 -183c0 -6 4 -15 10 -19c12 -8 23 -11 51 -15c2 -5 -1 -34 -5 -37c-16 0 -53 3 -117 3c-36 0 -81 -1 -104 -3c-3 5 -3 32 0 37c12 2 24 5 30 7c15 4 18 13 19 45c2 54 3 157 -4 195
c-6 32 -33 63 -81 63c-18 0 -40 -5 -56 -16c-4 -3 -8 -10 -8 -16c0 -76 -1 -193 1 -223c2 -29 2 -41 21 -48c10 -3 19 -5 34 -7c3 -4 2 -32 -1 -37c-25 0 -71 3 -117 3c-38 0 -78 -3 -107 -3c-3 5 -3 33 0 37c18 3 26 5 35 8c17 6 17 20 18 52c1 34 2 111 2 162
c0 192 0 260 -2 272c1 21 -6 41 -14 51c-21 25 -42 33 -67 33c-20 0 -37 -11 -45 -21c-18 -21 -27 -72 -27 -145c0 -19 0 -26 1 -36c0 -4 4 -8 7 -8c50 1 77 1 96 3c-4 -15 -8 -46 -10 -65c-31 1 -59 2 -87 2c-4 0 -6 -5 -6 -7c0 -102 1 -203 2 -254c1 -27 8 -36 28 -41
c13 -3 23 -5 34 -6c2 -5 1 -34 -2 -38c-35 0 -67 4 -124 4c-29 0 -91 -4 -112 -4c-3 6 -5 33 0 38z" />
    <glyph glyph-name="f_i" unicode="fi" horiz-adv-x="534" 
d="M20 34c16 3 29 5 39 9c15 4 19 16 19 31c2 60 1 176 2 264c0 2 -4 7 -7 7l-52 5c0 9 6 28 10 34c12 2 33 9 45 15c3 1 4 6 4 7c3 101 41 168 119 220c37 25 87 40 122 40c73 0 114 -34 127 -63c3 -6 3 -20 0 -27c-8 -19 -30 -43 -52 -54c-8 -3 -22 -3 -28 2
c-12 10 -19 23 -31 37c-23 32 -48 51 -76 51c-13 0 -26 -5 -39 -20c-17 -19 -30 -62 -30 -153c0 -9 0 -19 1 -29c0 -4 4 -8 6 -8h151c36 0 81 4 111 13c-2 -27 -2 -107 -2 -179c0 -52 0 -109 1 -155c0 -26 6 -34 21 -39c10 -3 14 -4 40 -8c4 -6 0 -33 -5 -37
c-24 0 -66 3 -118 3c-54 0 -87 -3 -106 -3c-4 5 -4 32 0 37c18 3 22 4 33 8c13 4 17 12 18 36c1 23 2 83 2 133c0 41 -1 99 -2 117c0 6 -6 18 -14 19h-131c-3 0 -6 -5 -6 -8c2 -101 2 -216 3 -260c1 -22 6 -33 26 -39c12 -3 15 -3 36 -6c3 -6 1 -33 -3 -38
c-22 0 -53 4 -122 4c-36 0 -91 -4 -112 -4c-4 5 -5 33 0 38z" />
    <glyph glyph-name="f_j" unicode="fj" horiz-adv-x="531" 
d="M20 34c16 3 30 5 39 9c15 4 19 16 19 31c2 60 2 176 2 264c0 2 -4 7 -6 7l-53 5c0 9 7 28 10 34c12 2 33 9 45 15c3 1 5 6 5 7c2 101 40 168 118 220c37 25 87 40 122 40c73 0 114 -33 127 -63c3 -6 3 -20 0 -27c-8 -19 -30 -43 -52 -54c-8 -3 -22 -2 -28 2
c-11 10 -19 23 -31 38c-23 32 -48 51 -75 51c-14 0 -28 -7 -40 -21c-17 -19 -30 -62 -30 -153l1 -29c0 -4 4 -8 7 -8h147c36 0 80 4 115 10c-1 -95 -1 -208 -1 -306c0 -59 -2 -91 -10 -131c-26 -118 -113 -198 -155 -218c-18 0 -31 10 -38 17c-1 4 -1 11 1 14
c65 35 84 88 84 208v41c0 99 0 224 -4 291c0 6 -6 18 -14 19h-127c-3 0 -5 -5 -5 -8c1 -101 1 -216 3 -260c0 -22 5 -33 25 -39c12 -3 18 -3 39 -6c3 -6 2 -33 -3 -38c-22 0 -55 4 -124 4c-36 0 -92 -4 -113 -4c-4 5 -4 33 0 38z" />
    <glyph glyph-name="f_k" unicode="fk" horiz-adv-x="765" 
d="M18 34c17 2 32 6 42 9c15 5 18 18 18 34c2 71 2 169 2 257c0 2 -3 7 -6 7l-52 4c0 9 6 30 10 36c12 3 33 11 44 17c3 2 5 6 5 7c3 105 39 170 118 223c36 24 83 37 112 37c34 0 55 -4 85 -17c5 -2 11 -4 20 -1c17 6 26 11 42 19c2 -1 11 -11 11 -15c-4 -17 -6 -40 -7 -83
c-1 -66 -3 -185 -2 -348c13 2 29 9 45 22c40 34 77 81 79 99c0 7 -3 13 -15 17c-13 3 -40 7 -47 8c-1 5 0 32 4 37c73 -1 156 2 203 7c4 -3 4 -31 0 -37c-37 -7 -62 -18 -80 -37c-28 -28 -60 -62 -84 -87c-1 -2 0 -3 0 -5c21 -36 119 -159 158 -190c20 -14 26 -18 68 -20
c2 -3 -1 -33 -6 -37c-20 -3 -78 -5 -119 -4c-27 0 -46 7 -54 15c-29 23 -83 101 -122 156c-8 11 -18 24 -30 26c0 -46 0 -71 1 -109c0 -28 7 -34 25 -39c11 -4 23 -6 37 -8c3 -6 -1 -33 -5 -37c-31 0 -72 3 -116 3c-41 0 -78 -3 -111 -3c-2 4 -3 32 0 37c9 2 23 4 33 7
c15 5 19 15 20 37c2 28 2 118 2 164c1 250 1 265 1 288c0 20 -7 39 -16 49c-20 25 -42 33 -67 33c-19 0 -38 -12 -45 -21c-18 -21 -27 -74 -27 -144c0 -19 0 -27 1 -37c0 -4 4 -8 6 -8c48 1 76 2 95 3c-4 -15 -8 -46 -10 -65c-31 1 -57 2 -86 2c-3 0 -6 -5 -6 -7
c1 -102 1 -203 3 -254c1 -27 7 -36 27 -41c13 -3 25 -5 35 -6c2 -5 1 -33 -2 -38c-35 0 -67 4 -123 4c-33 0 -93 -4 -114 -4c-3 6 -4 32 0 38z" />
    <glyph glyph-name="f_l" unicode="fl" horiz-adv-x="535" 
d="M19 34c16 3 31 6 41 9c15 5 19 18 19 33l2 258c0 2 -4 7 -7 7l-52 4c0 9 6 30 10 37c12 2 33 9 44 16c4 2 5 6 5 8c3 97 37 167 118 221c36 25 82 38 110 38c40 0 63 -5 87 -17c5 -2 10 -4 20 -1c16 6 25 11 41 19c2 -1 11 -11 11 -15c-4 -17 -7 -39 -7 -79
c-2 -51 -1 -151 -2 -257c0 -118 -1 -196 2 -235c1 -23 4 -33 24 -38c12 -4 20 -5 39 -8c3 -6 0 -30 -5 -37c-21 0 -73 3 -123 3c-44 0 -79 -3 -104 -3c-3 6 -4 31 -2 37c13 1 24 3 36 8s16 12 17 33c2 31 2 154 2 248c0 114 0 163 -1 206c0 21 -6 40 -14 50
c-20 25 -44 33 -68 33c-17 0 -34 -10 -42 -20c-18 -21 -28 -62 -28 -143c0 -19 0 -29 1 -39c0 -4 4 -8 6 -8l96 3c-3 -15 -7 -46 -9 -65c-31 1 -59 2 -88 2c-3 0 -6 -4 -6 -7c1 -102 1 -203 3 -254c1 -27 8 -36 28 -41c12 -3 24 -5 34 -6c2 -6 -1 -33 -3 -38
c-34 0 -65 4 -121 4c-28 0 -92 -4 -114 -4c-3 6 -4 33 0 38z" />
    <glyph glyph-name="f_t" unicode="ft" horiz-adv-x="589" 
d="M20 34c17 3 31 5 40 8c15 5 19 18 19 33c1 72 1 174 1 261c0 2 -3 8 -6 8l-52 3c0 8 6 28 10 34c12 3 33 10 45 18c2 1 4 5 4 7c3 102 36 168 113 221c34 24 80 39 108 39c40 0 68 -12 82 -31c0 -3 1 -13 0 -16c-8 -20 -33 -57 -45 -67h-15c-26 27 -58 55 -83 55
c-10 0 -22 -5 -29 -14c-17 -20 -20 -59 -20 -129c0 -19 1 -44 2 -54c0 -4 4 -8 6 -8h135c2 1 6 4 6 8v83c25 8 82 37 97 50c6 2 18 5 24 3c-3 -23 -5 -71 -5 -137c0 -3 3 -7 5 -7l115 4c-4 -16 -9 -45 -10 -65c-32 0 -77 2 -107 2c-2 0 -5 -4 -5 -6c0 -40 -1 -112 -1 -160
c0 -40 1 -57 5 -75c5 -24 27 -40 56 -40c24 0 38 3 58 15c2 -5 1 -29 -2 -37c-27 -34 -70 -52 -116 -52c-45 0 -81 17 -100 51c-15 26 -15 52 -15 110c0 53 1 144 1 186c0 3 -3 9 -6 10h-136c-3 0 -6 -5 -6 -8c1 -101 2 -201 4 -254c1 -22 6 -34 26 -40c15 -4 29 -6 56 -10
c2 -5 -1 -32 -5 -36c-23 0 -62 3 -144 3c-46 0 -88 -3 -110 -3c-3 5 -4 32 0 37z" />
    <glyph glyph-name="longs_b" unicode="&#x17f;b" horiz-adv-x="789" 
d="M20 34c16 2 30 5 39 9c16 4 19 18 19 33c2 71 2 172 2 260c0 2 -3 7 -6 7l-52 3c0 10 6 31 10 37c12 2 33 10 44 17c4 2 5 6 5 7c3 97 37 167 116 220c39 26 85 38 111 38c38 0 53 -3 81 -16c5 -2 11 -3 20 0c17 5 27 10 42 18c2 -1 11 -11 11 -15c-4 -17 -6 -39 -7 -84
v-191c1 -3 3 -3 5 -2c44 21 96 41 129 41c52 0 88 -21 113 -50c35 -38 47 -92 47 -133c0 -82 -37 -144 -90 -185c-38 -29 -130 -60 -176 -60c-70 0 -115 13 -151 27c4 24 6 50 6 67c1 52 2 107 2 178c0 156 0 236 -1 270c0 21 -5 41 -13 51c-19 22 -38 31 -63 31
c-19 0 -33 -12 -40 -22c-18 -20 -31 -74 -31 -176v-77c1 -102 1 -205 3 -256c0 -27 8 -35 28 -40c13 -3 34 -6 44 -7c2 -5 -1 -34 -4 -38c-34 0 -74 4 -131 4c-27 0 -91 -4 -112 -4c-4 6 -4 32 0 38zM510 348c-16 0 -37 -4 -47 -10c-3 -1 -6 -9 -7 -15
c-1 -45 -3 -149 1 -206c1 -22 7 -45 16 -52c19 -19 48 -24 65 -24c24 0 45 9 63 31c18 23 30 64 30 111c0 56 -13 92 -31 118c-26 36 -57 47 -90 47z" />
    <glyph glyph-name="longs_h" unicode="&#x17f;h" horiz-adv-x="796" 
d="M19 34c16 3 31 5 40 9c15 4 19 17 19 32c2 72 2 173 2 260c0 2 -3 8 -6 8l-52 3c0 10 6 31 10 37c11 2 32 10 44 17c4 3 5 6 5 7c3 96 39 167 117 220c36 25 82 38 108 38c36 0 55 -5 84 -17c5 -2 10 -3 20 0c16 5 26 11 41 19c3 -1 12 -11 12 -15c-4 -17 -7 -39 -7 -84
c-1 -48 0 -131 0 -204c0 -2 2 -4 4 -3c44 32 90 55 130 55c83 0 131 -60 131 -165c0 -54 0 -143 1 -183c0 -6 4 -15 9 -19c12 -7 24 -11 52 -15c1 -5 -2 -34 -5 -37c-16 0 -56 3 -118 3c-38 0 -81 -1 -103 -3c-3 5 -3 32 0 37c11 2 23 5 30 7c15 4 18 13 19 45
c1 54 3 157 -4 195c-6 32 -33 62 -81 62c-18 0 -40 -5 -56 -15c-5 -3 -8 -10 -8 -16c0 -76 -1 -193 1 -223c1 -29 1 -41 21 -48c10 -3 18 -5 34 -7c3 -4 2 -32 -1 -37c-25 0 -72 3 -117 3c-38 0 -80 -3 -110 -3c-3 5 -3 34 0 37c18 3 27 5 36 8c17 6 19 20 20 52
c1 35 1 130 1 186c0 125 -2 217 -3 251c0 21 -6 41 -14 51c-19 22 -37 30 -60 31c-16 0 -30 -9 -41 -21c-22 -26 -32 -87 -32 -192v-68c1 -102 1 -200 3 -251c1 -27 7 -36 27 -42c12 -3 22 -4 32 -5c2 -5 0 -33 -3 -38c-23 0 -51 4 -119 4c-29 0 -91 -4 -113 -4
c-4 6 -4 33 0 38z" />
    <glyph glyph-name="longs_i" unicode="&#x17f;i" horiz-adv-x="532" 
d="M20 34c17 2 30 5 39 8c15 5 19 17 19 32c2 72 2 175 2 263c0 2 -4 7 -6 7l-53 4c0 10 6 29 10 36c12 2 33 10 45 16c4 3 5 6 5 8c3 95 42 166 119 218c37 25 87 40 120 40c71 0 114 -30 128 -63c2 -6 3 -20 0 -27c-8 -19 -28 -41 -51 -53c-9 -3 -23 -2 -29 2
c-11 10 -19 23 -31 37c-25 32 -47 50 -76 50c-13 0 -27 -6 -39 -20c-19 -21 -30 -66 -30 -201c0 -79 2 -266 4 -312c0 -22 4 -34 24 -39c12 -3 19 -4 35 -6c1 -6 0 -33 -3 -38c-36 0 -65 4 -119 4c-36 0 -91 -4 -113 -4c-3 6 -4 33 0 38zM519 34c2 -6 -1 -32 -5 -37
c-18 0 -55 3 -120 3c-52 0 -88 -3 -110 -3c-3 5 -3 32 0 37c18 3 28 5 40 9c13 4 15 13 16 37c1 23 2 83 2 133c0 35 -1 73 -1 91c0 8 -2 17 -6 22c-7 8 -17 15 -46 26c-2 5 1 29 3 32c22 0 118 14 165 33c1 -48 0 -114 0 -172c0 -52 0 -117 1 -163c0 -25 6 -35 19 -39
c10 -3 17 -5 42 -9z" />
    <glyph glyph-name="longs_k" unicode="&#x17f;k" horiz-adv-x="761" 
d="M20 34c14 3 30 6 39 9c16 5 19 17 19 32c2 72 2 173 2 260c0 2 -3 8 -6 8l-52 3c0 9 6 30 10 37c12 2 31 10 44 17c3 2 5 6 5 7c3 97 38 167 117 220c36 25 80 38 106 38c36 0 57 -5 86 -17c5 -2 10 -3 20 0c16 5 26 11 41 19c3 -1 12 -11 12 -15c-4 -17 -7 -39 -7 -84
c-1 -48 -1 -273 0 -349c14 2 30 10 46 23c40 34 73 81 75 99c1 7 -3 13 -15 17c-12 3 -40 7 -47 8c-1 5 1 32 5 36c72 0 155 2 202 8c4 -3 4 -31 0 -38c-37 -7 -61 -15 -79 -33c-28 -29 -57 -65 -81 -90c-1 -2 -1 -4 0 -5c21 -36 113 -159 153 -189c19 -15 26 -19 67 -22
c2 -3 0 -32 -5 -36c-20 -3 -78 -5 -120 -4c-26 0 -42 7 -53 17c-26 23 -78 99 -117 154c-8 11 -19 24 -31 26c0 -46 0 -72 1 -109c1 -28 8 -34 26 -39c11 -4 23 -6 37 -8c1 -6 -2 -32 -6 -37c-31 0 -71 3 -115 3c-41 0 -82 -3 -115 -3c-2 5 -3 33 0 37c16 2 26 4 36 7
c15 5 19 15 20 37c2 28 3 103 2 155c0 156 -2 264 -3 298c0 21 -5 40 -13 50c-20 24 -37 32 -61 32c-16 0 -30 -8 -41 -21c-23 -27 -32 -86 -32 -194v-66c1 -102 1 -200 3 -251c1 -27 9 -36 29 -41c13 -3 21 -5 32 -6c1 -5 0 -33 -3 -38c-23 0 -53 4 -121 4
c-34 0 -91 -4 -112 -4c-4 6 -4 33 0 38z" />
    <glyph glyph-name="longs_l" unicode="&#x17f;l" horiz-adv-x="534" 
d="M20 34c16 3 30 6 40 9c15 5 18 17 18 32c2 72 2 173 2 261c0 2 -3 7 -6 7l-52 3c0 10 6 31 10 37c11 2 33 10 44 17c3 2 5 6 5 7c2 95 39 167 117 220c36 25 81 38 108 38c34 0 57 -4 85 -16c5 -2 10 -3 20 0c16 5 26 10 41 18c2 -1 12 -11 12 -15c-5 -17 -7 -39 -7 -84
c-1 -48 -1 -181 -1 -252c0 -119 -1 -194 1 -233c2 -26 4 -35 24 -41c12 -3 20 -5 40 -8c2 -6 -1 -30 -6 -37c-21 0 -60 3 -124 3c-37 0 -75 -3 -105 -3c-3 6 -3 32 -1 37c14 2 23 4 37 8c12 5 17 12 18 45c2 31 2 144 2 238c0 119 0 176 -1 209c0 21 -5 40 -13 50
c-17 19 -38 30 -63 30c-17 0 -31 -8 -41 -21c-22 -26 -32 -86 -32 -198v-72c1 -101 0 -191 3 -242c1 -27 7 -36 27 -41c13 -4 20 -5 31 -6c2 -4 0 -33 -3 -38c-23 0 -51 4 -118 4c-27 0 -91 -4 -112 -4c-4 6 -4 33 0 38z" />
    <glyph glyph-name="longs_longs" unicode="&#x17f;&#x17f;" horiz-adv-x="538" 
d="M18 33c15 3 32 5 41 8c15 5 20 18 20 34c1 71 1 173 1 261c0 2 -3 7 -6 7l-53 3c0 10 5 31 9 37c11 2 35 11 47 16c3 2 5 7 5 8c4 77 36 146 114 198c37 25 84 41 120 41c63 0 90 -22 109 -37c2 -2 5 -2 7 0c44 40 97 57 135 57s66 -12 78 -31c1 -4 0 -16 0 -19
c-8 -19 -30 -51 -41 -61c-3 -2 -12 -2 -15 0c-22 25 -53 54 -85 54c-46 0 -48 -69 -48 -245c0 -101 0 -229 3 -282c1 -22 7 -35 27 -40c17 -4 24 -6 41 -8c1 -6 0 -37 -6 -38c-23 0 -74 4 -126 4c-47 0 -85 -4 -106 -4c-4 6 -5 33 0 38c16 3 25 4 34 8c15 4 19 17 19 32
c2 71 1 175 1 262c0 4 -2 7 -7 7l-53 3c0 10 5 31 9 37c11 2 35 11 47 17c3 2 5 7 5 11c0 40 11 85 23 117c-24 40 -57 67 -99 67c-45 0 -76 -43 -76 -183l3 -332c0 -22 6 -35 26 -40c14 -3 24 -5 35 -6c3 -6 1 -33 -4 -38c-24 0 -50 4 -120 4c-58 0 -95 -4 -114 -4
c-3 6 -4 32 0 37z" />
    <glyph glyph-name="longs_longs_i" unicode="&#x17f;&#x17f;i" horiz-adv-x="803" 
d="M17 33c15 2 32 6 42 9c15 5 19 17 19 33c2 71 1 173 1 260c0 2 -3 8 -6 8l-52 3c0 10 6 31 10 37c12 2 34 10 45 16c4 2 5 7 5 9c4 72 36 144 114 196c37 25 87 42 124 42c66 0 94 -25 113 -41c2 -2 5 -2 7 0c46 38 102 61 151 61c73 0 114 -31 128 -65c2 -5 3 -20 0 -27
c-8 -19 -26 -39 -49 -51c-8 -3 -24 -3 -30 1c-12 11 -21 23 -32 37c-24 34 -47 52 -75 52c-12 0 -26 -5 -38 -18c-23 -22 -33 -71 -33 -184c-1 -144 1 -276 3 -329c2 -22 4 -33 23 -39c14 -4 24 -7 40 -9c1 -6 0 -37 -5 -38c-23 0 -69 4 -121 4c-47 0 -87 -4 -109 -4
c-4 6 -4 33 0 38c16 3 28 5 37 8c15 5 19 17 19 32c1 72 1 174 1 261c0 3 -4 8 -7 8l-53 3c0 10 6 31 10 37c11 2 34 11 45 17c4 2 5 6 6 11c2 49 11 83 24 113c-23 45 -65 71 -104 71c-44 0 -78 -40 -79 -180c-1 -89 2 -277 3 -335c1 -22 6 -35 26 -39c14 -3 27 -6 38 -7
c3 -4 0 -34 -4 -38c-19 0 -52 4 -122 4c-59 0 -95 -4 -115 -4c-3 6 -4 32 0 37zM793 34c2 -6 -1 -32 -5 -37c-18 0 -57 3 -121 3c-52 0 -83 -3 -105 -3c-3 5 -3 32 -1 37c18 3 23 5 34 9c13 4 18 13 19 37c1 23 1 83 1 133v93c-1 7 -2 16 -6 21c-7 8 -17 14 -47 26
c-1 5 2 27 4 31c21 0 116 14 164 33v-172c0 -52 0 -117 1 -163c0 -25 7 -35 20 -39c10 -3 17 -5 42 -9z" />
    <glyph glyph-name="longs_longs_l" unicode="&#x17f;&#x17f;l" horiz-adv-x="804" 
d="M16 33c15 2 34 6 43 9c15 5 19 17 19 33c1 71 1 173 1 260c0 2 -2 8 -5 8l-52 3c0 10 6 30 10 37c11 2 29 8 44 16c3 2 4 6 4 7c8 80 37 146 117 199c37 25 85 41 122 41c61 0 94 -24 113 -41c2 -2 4 -2 7 1c45 37 98 60 152 60c27 0 54 -6 77 -17c4 -1 10 -1 13 0
c22 5 38 12 49 17c3 -2 10 -11 9 -15c-6 -17 -9 -43 -10 -83c-1 -49 0 -160 0 -253c0 -118 -1 -194 1 -233c2 -25 4 -34 24 -40c12 -4 21 -5 38 -8c3 -6 2 -30 -3 -37c-21 0 -61 3 -125 3c-37 0 -74 -3 -104 -3c-3 6 -3 32 -1 37c19 2 27 5 40 10c11 6 13 21 14 42
c2 32 2 143 2 237c0 114 0 189 -3 233c0 9 -3 20 -11 27c-16 18 -36 30 -67 30c-12 0 -29 -5 -40 -19c-21 -24 -33 -70 -33 -182c-1 -145 0 -277 2 -330c2 -22 6 -34 25 -40c13 -4 26 -7 38 -8c1 -6 -1 -38 -6 -38c-23 0 -67 4 -119 4c-54 0 -88 -4 -110 -4c-4 6 -4 33 0 38
c16 3 28 5 38 8c15 5 19 17 19 32c1 72 1 175 1 262c0 2 -3 7 -6 7l-53 3c0 10 6 32 10 39c10 2 32 8 44 15c3 1 5 4 6 8c2 43 12 87 22 110c1 3 2 7 0 11c-23 41 -61 65 -102 65c-47 0 -78 -41 -78 -180c0 -90 0 -280 2 -334c1 -22 5 -33 26 -39c13 -3 25 -6 36 -7
c3 -4 0 -33 -4 -38c-18 0 -51 4 -121 4c-58 0 -96 -4 -115 -4c-4 6 -4 32 0 37z" />
    <glyph glyph-name="longs_t" unicode="&#x17f;t" horiz-adv-x="587" 
d="M17 33c14 2 33 6 43 9c15 4 19 17 19 33c1 71 1 173 1 260c0 2 -3 8 -6 8l-52 3c0 10 6 30 10 37c12 2 33 11 45 17c3 2 5 6 5 7c0 86 27 154 102 212c31 24 84 46 128 46c91 0 139 -63 141 -127c1 -27 1 -122 1 -129c0 -3 2 -7 5 -7l117 4c-4 -16 -10 -47 -11 -67
c-32 0 -72 1 -108 1c-2 0 -5 -4 -5 -5c0 -40 -1 -109 -1 -158c0 -40 1 -56 5 -75c5 -23 28 -40 57 -40c24 0 39 4 59 16c2 -6 1 -30 -2 -38c-27 -35 -72 -52 -118 -52c-45 0 -83 17 -100 51c-16 26 -16 52 -16 110c0 53 1 140 1 182c0 3 -2 9 -6 10c-15 1 -40 3 -55 5
c1 8 9 36 12 45c14 3 35 6 44 10c1 1 6 2 7 11c2 27 4 73 4 105c0 38 -8 61 -19 73c-17 18 -36 26 -57 26c-53 0 -76 -58 -75 -200c0 -89 1 -281 4 -337c1 -22 7 -33 28 -38c14 -3 32 -6 44 -7c1 -6 -1 -33 -4 -37c-24 0 -62 3 -132 3c-58 0 -96 -4 -115 -4c-3 6 -4 31 0 37
z" />
    <glyph glyph-name="t_t" unicode="tt" horiz-adv-x="610" 
d="M594 77c2 -5 1 -29 -1 -37c-27 -33 -71 -52 -116 -52c-46 0 -83 17 -101 51c-15 26 -15 52 -15 110c0 53 1 141 1 182c0 4 -3 10 -6 10l-165 1c-1 0 -4 -4 -4 -6c0 -40 -1 -111 -1 -159c0 -40 1 -57 5 -75c5 -24 27 -40 56 -40c23 0 38 3 58 15c2 -5 0 -29 -2 -37
c-27 -34 -72 -52 -116 -52c-45 0 -83 17 -100 51c-16 26 -16 52 -16 110c0 53 1 141 1 183c0 3 -2 9 -6 10l-52 3c1 8 6 28 10 37c13 2 35 10 43 16c1 1 5 4 5 9c1 8 0 62 1 84c24 8 80 37 95 50c6 2 18 4 24 3c-3 -23 -5 -69 -5 -134c0 -4 3 -7 5 -7h164c2 1 6 3 6 8v94
c25 8 81 38 96 50c6 2 17 5 24 3c-3 -22 -5 -83 -5 -148c0 -4 2 -7 4 -7c40 0 93 2 117 3c-3 -16 -9 -45 -10 -65c-32 0 -71 1 -107 1c-1 0 -4 -4 -4 -6c-1 -40 -1 -111 -1 -159c0 -40 1 -57 5 -75c5 -24 26 -40 55 -40c24 0 38 3 58 15z" />
    <glyph glyph-name="u0162_u0068" unicode="&#x162;h" horiz-adv-x="1054" 
d="M168 34c30 4 44 7 58 10c29 6 35 21 38 65c4 99 3 275 3 435c0 2 -4 10 -7 10c-18 2 -86 2 -115 1c-18 -1 -34 -9 -46 -33c-11 -22 -21 -48 -35 -87c-4 -4 -38 4 -40 11c8 42 18 127 21 174c2 1 8 2 12 1c27 -10 60 -13 88 -13h445c3 0 7 3 7 8v32c0 3 5 10 8 10
c45 1 92 13 104 17c4 -2 6 -6 6 -8c0 -10 -1 -54 -1 -131c0 -41 -1 -151 -1 -172c0 -2 3 -4 5 -3c44 32 90 55 130 55c84 0 132 -60 132 -164c0 -55 0 -145 1 -184c0 -6 4 -15 9 -19c12 -7 24 -11 52 -15c2 -5 -1 -33 -5 -37c-15 0 -56 3 -118 3c-36 0 -81 -1 -103 -3
c-3 6 -3 32 0 37c11 2 24 5 30 7c15 4 18 13 19 45c1 54 3 156 -4 194c-6 34 -34 63 -81 63c-20 0 -41 -5 -58 -16c-4 -2 -8 -9 -8 -15c0 -77 0 -193 2 -223c1 -29 1 -41 21 -48c10 -3 17 -5 33 -7c3 -4 2 -32 0 -37c-26 0 -72 3 -117 3c-39 0 -82 -3 -112 -3
c-3 6 -3 33 0 37c18 3 28 5 37 8c18 6 19 20 20 52c2 35 2 111 2 162c0 192 0 253 -2 284c0 7 -6 15 -14 15c-35 2 -164 2 -183 1c-2 -1 -7 -7 -7 -10c0 -145 -1 -396 3 -453c1 -21 5 -39 27 -47c15 -5 28 -7 64 -12c4 -5 1 -32 -3 -37c-56 1 -103 3 -156 3s-113 -3 -161 -3
c-6 6 -5 32 0 37zM341 -35c21 0 57 -28 57 -78c0 -70 -57 -115 -131 -130c-7 2 -17 24 -14 31c55 23 69 39 69 67c0 22 -21 41 -58 52c-3 3 -2 18 0 22c10 9 46 36 77 36z" />
    <glyph glyph-name="Tcaron_h" unicode="&#x164;h" horiz-adv-x="1054" 
d="M168 34c30 4 44 7 58 10c29 6 35 21 38 65c4 99 3 275 3 435c0 2 -4 10 -7 10c-18 2 -86 2 -115 1c-18 -1 -34 -9 -46 -33c-11 -22 -21 -48 -35 -87c-4 -4 -38 4 -40 11c8 42 18 127 21 174c2 1 8 2 12 1c27 -10 60 -13 88 -13h445c3 0 7 3 7 8v32c0 3 5 10 8 10
c45 1 92 13 104 17c4 -2 6 -6 6 -8c0 -10 -1 -54 -1 -131c0 -41 -1 -151 -1 -172c0 -2 3 -4 5 -3c44 32 90 55 130 55c84 0 132 -60 132 -164c0 -55 0 -145 1 -184c0 -6 4 -15 9 -19c12 -7 24 -11 52 -15c2 -5 -1 -33 -5 -37c-15 0 -56 3 -118 3c-36 0 -81 -1 -103 -3
c-3 6 -3 32 0 37c11 2 24 5 30 7c15 4 18 13 19 45c1 54 3 156 -4 194c-6 34 -34 63 -81 63c-20 0 -41 -5 -58 -16c-4 -2 -8 -9 -8 -15c0 -77 0 -193 2 -223c1 -29 1 -41 21 -48c10 -3 17 -5 33 -7c3 -4 2 -32 0 -37c-26 0 -72 3 -117 3c-39 0 -82 -3 -112 -3
c-3 6 -3 33 0 37c18 3 28 5 37 8c18 6 19 20 20 52c2 35 2 111 2 162c0 192 0 253 -2 284c0 7 -6 15 -14 15c-35 2 -164 2 -183 1c-2 -1 -7 -7 -7 -10c0 -145 -1 -396 3 -453c1 -21 5 -39 27 -47c15 -5 28 -7 64 -12c4 -5 1 -32 -3 -37c-56 1 -103 3 -156 3s-113 -3 -161 -3
c-6 6 -5 32 0 37zM348 654c-4 -2 -19 -6 -24 -7c-12 14 -109 92 -136 112c0 6 14 30 18 30c7 0 112 -44 127 -53c3 -1 7 -1 10 0c22 12 112 53 118 53s18 -23 17 -29c-28 -20 -114 -88 -130 -106z" />
    <glyph glyph-name="gamma_gamma" unicode="&#x3b3;&#x3b3;" horiz-adv-x="869" 
d="M14 275c-3 4 -6 32 -3 38c45 71 110 103 153 103c75 0 128 -59 120 -282c0 -2 5 -5 6 0c32 126 69 182 98 218c34 40 81 63 119 63c83 0 134 -57 131 -283c0 -2 5 -5 6 0c31 128 70 204 94 234c27 36 53 50 76 50c25 0 58 -28 67 -47c1 -6 -1 -20 -4 -24
c-113 -6 -199 -200 -217 -308c-2 -11 -6 -31 -6 -36c-2 -49 2 -194 -1 -203c-4 -8 -18 -14 -23 -14c-33 0 -91 33 -91 57c0 19 25 100 43 156c4 14 8 36 8 50c2 132 -28 249 -119 249c-92 1 -144 -151 -165 -259c-3 -10 -7 -41 -7 -47c-3 -44 -5 -198 -10 -215
c-4 -9 -18 -15 -23 -15c-33 0 -94 38 -94 60c0 19 26 99 52 171c5 13 11 41 11 55c3 127 -29 256 -136 256c-23 0 -55 -9 -85 -27z" />
    <glyph glyph-name="u03BB_u03BB" unicode="&#x3bb;&#x3bb;" horiz-adv-x="818" 
d="M352 -17c-40 0 -64 23 -79 60c-24 57 -61 216 -69 250l-6 -1c-34 -60 -67 -173 -81 -226c-7 -30 -5 -63 -4 -78c0 -2 -8 -7 -11 -7c-35 0 -86 22 -85 34c1 24 21 71 36 101c29 63 97 193 124 252c3 9 3 15 2 22c-4 19 -11 46 -17 62c-30 81 -63 98 -107 98
c-16 0 -42 -3 -58 -12c-4 2 -8 23 -6 27c29 42 86 70 128 70c68 0 98 -43 153 -223c36 -122 52 -178 77 -250c22 -63 38 -70 53 -70c11 0 22 9 36 35c31 55 86 177 108 244c3 9 4 17 3 24c-3 21 -6 46 -19 76c-33 82 -74 105 -126 105c-18 0 -46 -5 -72 -21
c-4 2 -9 23 -7 27c40 55 102 83 142 83c73 0 118 -43 172 -223c38 -124 61 -210 86 -282c27 -76 51 -86 72 -86c12 0 24 3 36 10c1 -3 3 -30 0 -34c-27 -35 -79 -63 -127 -63c-23 0 -40 16 -54 44c-26 54 -67 224 -74 250h-5c-23 -60 -67 -153 -97 -206
c-31 -57 -71 -92 -124 -92z" />
    <glyph glyph-name=".notdef" horiz-adv-x="495" 
d="M0 0v693h495v-693h-495zM248 391l168 253h-337zM277 347l169 -253v505zM79 50h337l-168 252zM50 599v-505l168 253z" />
    <glyph glyph-name="space" unicode=" " horiz-adv-x="190" 
 />
    <glyph glyph-name="exclam" unicode="!" horiz-adv-x="326" 
d="M230 606c9 0 23 -4 29 -10c0 -31 -42 -310 -55 -396c-7 -1 -41 4 -44 9c-12 77 -54 301 -58 349c-2 8 7 28 17 32c24 9 90 17 111 16zM187 131c18 0 36 -6 48 -16c18 -17 23 -39 23 -57c0 -13 -8 -37 -21 -51c-14 -14 -35 -20 -57 -20c-14 0 -33 5 -48 19
c-14 15 -19 32 -19 53c0 19 8 38 23 53c14 12 34 19 51 19z" />
    <glyph glyph-name="quotedbl" unicode="&#x22;" horiz-adv-x="348" 
d="M149 613c0 -64 -15 -163 -24 -182c-10 -22 -28 -35 -39 -43c-1 -1 -12 -1 -13 -1c-3 85 -12 207 -22 233c5 5 62 35 80 38c0 0 12 -2 12 -3c4 -6 6 -24 6 -42zM297 619c0 -67 -15 -160 -25 -179c-9 -22 -27 -35 -38 -44c-1 -1 -12 -1 -13 0c-3 84 -11 198 -22 225
c7 6 69 42 81 42c1 0 11 -1 11 -2c4 -6 6 -24 6 -42z" />
    <glyph glyph-name="numbersign" unicode="#" horiz-adv-x="483" 
d="M306 454l29 133c4 4 38 12 43 13c1 0 5 -2 6 -3l-32 -140c0 -1 2 -3 4 -3c37 0 80 1 100 4c1 -8 -5 -33 -8 -38c-24 -27 -55 -38 -106 -39c-3 0 -6 -3 -6 -5l-22 -99c0 -2 2 -5 4 -5c35 0 69 0 97 5c1 -3 -3 -31 -7 -37c-27 -31 -59 -44 -107 -45c-2 0 -4 -3 -4 -5
c-8 -41 -24 -116 -30 -143c-1 -2 -5 -2 -7 -2c-3 0 -34 17 -35 19c6 28 23 100 29 131h-94c-2 0 -5 -2 -5 -4l-33 -144c-1 -2 -6 -3 -7 -3c-6 2 -34 18 -36 20c9 36 22 89 31 131c-55 0 -85 2 -94 4c-3 8 17 74 24 78c23 -3 53 -4 86 -4l24 108c-22 0 -81 2 -91 4
c-1 11 16 69 25 73c24 -1 52 -3 81 -3l25 122c0 2 39 13 43 13c1 0 5 -2 6 -4l-27 -126c0 -3 1 -5 3 -5zM292 381h-92c-2 0 -5 -4 -6 -6l-22 -96c0 -1 1 -6 3 -6h93z" />
    <glyph glyph-name="dollar" unicode="$" horiz-adv-x="504" 
d="M170 468c0 -42 27 -68 68 -90c1 -1 4 -2 5 2l17 173c-1 3 -2 3 -4 3c-61 -7 -86 -45 -86 -88zM267 218l-17 -171c1 -1 3 -4 4 -4c44 1 89 25 90 84c0 46 -27 68 -72 94c-2 1 -5 -2 -5 -3zM196 -83l8 78c-1 4 -3 6 -5 6c-50 4 -113 21 -131 26c-13 19 -25 102 -28 139
c1 4 32 12 37 12c38 -102 74 -120 128 -133c2 0 4 0 5 3l18 185c-1 5 -2 6 -4 7c-93 51 -157 91 -157 187c0 102 80 164 193 166c2 0 4 0 5 3l7 70c7 4 35 8 43 7l-8 -76c0 -4 3 -4 4 -4c25 -2 54 -7 77 -10c21 -4 42 -5 55 -6c-8 -37 -16 -88 -20 -133c-3 -4 -36 -6 -38 -2
c-6 76 -24 102 -80 112c-1 0 -3 0 -4 -3l-19 -187c1 -5 3 -6 5 -7c85 -42 171 -80 171 -181c0 -100 -76 -165 -207 -174c-2 0 -4 -2 -6 -4l-7 -75c-6 -5 -36 -9 -42 -6z" />
    <glyph glyph-name="percent" unicode="%" horiz-adv-x="735" 
d="M142 7c141 206 269 399 410 605c8 5 40 13 47 14c3 -1 7 -6 7 -9c-39 -49 -366 -542 -438 -641c-1 -1 -7 -2 -9 -1c-4 3 -17 26 -17 32zM567 346c82 0 126 -77 126 -151c0 -89 -34 -128 -59 -149c-38 -31 -73 -41 -113 -41c-77 0 -126 68 -126 152c0 70 19 109 52 141
c27 26 73 48 120 48zM542 305c-44 0 -55 -65 -55 -117c0 -104 37 -139 68 -139c48 0 61 52 61 110c0 77 -22 146 -74 146zM215 598c85 0 125 -77 125 -150c0 -86 -35 -129 -60 -149c-38 -31 -72 -42 -112 -42c-76 0 -126 65 -126 154c0 68 19 108 53 139c27 26 74 48 120 48
zM189 558c-44 0 -55 -66 -55 -118c0 -103 36 -139 69 -139c47 0 60 52 60 109c0 78 -20 148 -74 148z" />
    <glyph glyph-name="ampersand" unicode="&#x26;" horiz-adv-x="730" 
d="M277 580c-35 0 -62 -29 -62 -79c0 -43 25 -86 70 -122c1 -2 6 -2 8 0c31 28 54 62 54 115c0 42 -24 86 -70 86zM203 295c-1 1 -5 2 -6 0c-24 -26 -40 -52 -40 -89c0 -73 64 -136 151 -136c44 0 84 19 104 39c1 2 2 4 0 5c-69 56 -148 121 -209 181zM292 619
c88 0 150 -54 150 -127c0 -57 -41 -89 -123 -138c-2 -1 -2 -3 -1 -4c44 -39 114 -95 172 -136c1 -1 5 -2 7 0c21 33 41 78 47 100c5 13 7 30 -13 37c-10 4 -26 8 -47 11c-5 1 -2 36 2 39c16 0 60 -3 101 -3c65 0 96 3 109 3c4 -5 3 -36 -3 -40c-15 -2 -30 -6 -40 -9
c-20 -6 -32 -16 -42 -31c-41 -63 -60 -102 -80 -129c-1 -1 0 -6 1 -6c57 -41 130 -93 146 -114c0 -26 -49 -102 -62 -114c-4 -2 -15 -2 -19 0c-7 13 -25 30 -33 36c-40 33 -72 59 -113 90c-1 1 -2 1 -4 0c-68 -71 -133 -100 -206 -100c-116 0 -199 71 -199 180
c0 55 24 90 130 159c1 1 1 4 0 5c-32 36 -55 76 -55 133c0 89 80 158 175 158z" />
    <glyph glyph-name="quoteright" unicode="&#x2019;" horiz-adv-x="237" 
d="M119 552c0 21 -22 40 -55 49c-3 2 -6 13 -4 18c5 14 49 54 71 54c39 0 70 -39 70 -87c0 -86 -98 -142 -153 -157c-3 3 -12 27 -11 32c62 26 82 58 82 91z" />
    <glyph glyph-name="parenleft" unicode="(" horiz-adv-x="411" 
d="M81 270c0 229 119 396 252 487c7 0 24 -22 23 -28c-102 -96 -183 -223 -183 -444c0 -202 59 -349 172 -461c2 -5 -17 -27 -25 -29c-68 31 -239 205 -239 475z" />
    <glyph glyph-name="parenright" unicode=")" horiz-adv-x="412" 
d="M330 281c0 -230 -118 -395 -252 -486c-7 1 -25 23 -23 29c103 102 183 224 183 444c0 204 -57 348 -173 461c-1 3 22 27 25 28c75 -36 240 -205 240 -476z" />
    <glyph glyph-name="asterisk" unicode="*" horiz-adv-x="390" 
d="M231 541c24 9 90 35 122 50c4 -1 9 -11 8 -13c-4 -13 -17 -37 -26 -44c-25 -13 -63 -29 -90 -39c21 -19 83 -67 103 -75c2 -2 0 -10 -2 -13c-12 -8 -45 -11 -58 -5c-30 15 -54 35 -77 49c-8 -37 -20 -91 -21 -123c-2 -1 -6 -2 -8 -2c-19 1 -40 28 -38 51c2 22 8 56 14 86
c-25 -9 -97 -34 -125 -42c-2 1 -7 7 -7 10c5 13 19 44 27 47c28 11 52 18 89 32c-20 15 -67 60 -82 77c-5 5 -6 16 -1 20c12 8 39 20 48 20c15 -20 46 -51 70 -73c7 33 18 84 24 100c5 8 37 14 60 14c1 -2 3 -5 3 -7c-10 -20 -27 -94 -33 -120z" />
    <glyph glyph-name="plus" unicode="+" horiz-adv-x="571" 
d="M525 266c-1 -9 -12 -53 -19 -54c-12 -2 -114 0 -184 -2c-3 0 -7 -7 -7 -9c-1 -64 2 -184 0 -192c-2 -6 -49 -20 -59 -21c-3 0 -9 1 -9 3c-1 15 1 118 0 219h-199c-2 0 -3 7 -3 10c1 12 11 54 14 60c10 -3 58 -2 119 -2h69v66c0 55 -1 118 -2 133c11 5 59 13 65 13
c3 0 5 -2 5 -36c0 -30 1 -101 0 -165c0 -4 3 -11 6 -11h201c2 -1 3 -10 3 -12z" />
    <glyph glyph-name="comma" unicode="," horiz-adv-x="243" 
d="M10 -161c-1 1 -5 7 -4 9c48 44 87 95 85 154c-1 25 -20 58 -37 82c8 15 62 63 79 70c5 3 19 4 24 0c14 -10 30 -47 32 -88c4 -100 -84 -204 -143 -236c-6 -3 -29 4 -36 9z" />
    <glyph glyph-name="hyphen" unicode="-" horiz-adv-x="307" 
d="M53 244c53 0 187 5 215 5v-11c-1 -15 -13 -62 -18 -64c-9 -4 -189 -8 -210 -7c0 0 -1 9 -1 10c1 18 9 67 14 67z" />
    <glyph glyph-name="period" unicode="." horiz-adv-x="243" 
d="M122 140c18 0 38 -7 50 -19c19 -17 23 -41 23 -59c0 -14 -5 -39 -20 -53c-15 -15 -36 -22 -57 -22c-16 0 -34 7 -49 21s-21 34 -21 55c0 20 8 41 23 55c14 14 34 22 51 22z" />
    <glyph glyph-name="slash" unicode="/" horiz-adv-x="466" 
d="M413 681c2 -2 5 -5 5 -9c-6 -24 -253 -660 -309 -763c-6 -11 -48 -25 -57 -26c-4 0 -8 5 -8 7c72 156 280 690 311 775c2 5 48 16 58 16z" />
    <glyph glyph-name="zero" unicode="0" horiz-adv-x="504" 
d="M266 601c67 0 116 -30 140 -62c38 -42 67 -118 67 -228c0 -122 -29 -226 -107 -283c-37 -29 -84 -40 -119 -40c-51 0 -91 11 -122 36c-68 52 -94 153 -94 271c0 97 24 194 90 252c40 37 94 54 145 54zM247 558c-17 0 -30 -8 -39 -18c-28 -30 -48 -107 -48 -220
c0 -197 41 -286 104 -286c16 0 31 6 39 15c23 26 44 86 44 240c0 180 -39 269 -100 269z" />
    <glyph glyph-name="one" unicode="1" horiz-adv-x="504" 
d="M420 34c3 -4 1 -33 -4 -37c-44 0 -101 3 -163 3c-65 0 -115 -3 -155 -3c-4 5 -5 32 0 36c27 4 43 5 61 8c31 7 37 29 37 60c2 42 2 114 3 194c0 83 -1 156 -3 181c-1 16 -10 29 -26 31c-14 3 -40 5 -57 6c-5 6 -1 34 2 37c71 6 154 32 198 51c4 2 16 -4 16 -7
c-5 -36 -6 -70 -6 -182c0 -72 0 -240 3 -307c2 -35 8 -56 33 -62c26 -6 42 -7 61 -9z" />
    <glyph glyph-name="two" unicode="2" horiz-adv-x="504" 
d="M180 502c-42 0 -80 -18 -124 -65c-7 -2 -26 20 -26 26c48 79 124 138 207 138c95 0 171 -74 171 -182c0 -69 -36 -128 -107 -203c-44 -46 -79 -75 -111 -104c0 -3 -3 -8 4 -9c29 -4 124 -5 177 -5c22 1 49 25 80 88c6 3 31 -7 34 -13c-7 -33 -38 -135 -61 -166
c-4 -7 -17 -9 -51 -10c-71 -2 -186 3 -272 3c-23 0 -45 -1 -61 -2c-2 9 -3 21 -3 31c66 51 119 100 175 173c43 57 73 118 73 180c0 66 -34 120 -105 120z" />
    <glyph glyph-name="three" unicode="3" horiz-adv-x="504" 
d="M252 601c94 0 153 -65 153 -142c0 -56 -42 -91 -92 -123c-1 -1 -1 -3 0 -4c80 -26 143 -73 143 -157c0 -69 -41 -130 -103 -169c-49 -32 -107 -48 -165 -48c-42 0 -72 7 -95 18c-14 7 -24 17 -33 36c-8 19 -17 51 -20 75c2 6 26 17 30 17c17 -33 47 -64 76 -80
c28 -15 51 -19 85 -19c50 0 104 35 104 116c0 79 -60 138 -152 138c-12 0 -16 0 -33 -2c-3 7 15 51 20 54c89 17 125 50 125 102c0 54 -34 100 -99 100c-40 0 -79 -20 -115 -53c-7 -1 -19 24 -18 31c29 38 104 110 189 110z" />
    <glyph glyph-name="four" unicode="4" horiz-adv-x="504" 
d="M484 161c-31 0 -62 1 -94 1c-1 0 -4 -3 -4 -6c0 -59 1 -118 1 -177c-41 -1 -103 -7 -129 -11l2 189c0 3 -3 6 -4 6l-135 1c-36 0 -80 0 -107 -1c-2 5 2 35 5 41c66 94 251 342 284 387c19 3 62 9 80 9c0 -90 0 -272 1 -363c0 -1 1 -5 4 -5c44 0 83 1 109 3
c-6 -22 -12 -54 -13 -74zM103 233c18 -1 55 -2 85 -2h68c2 0 4 3 4 5l4 232c-1 1 -3 1 -4 0c-24 -29 -127 -178 -158 -230c-1 -1 0 -5 1 -5z" />
    <glyph glyph-name="five" unicode="5" horiz-adv-x="504" 
d="M396 604c2 0 15 -9 14 -14c-1 -12 -22 -61 -48 -90c-12 -14 -30 -22 -47 -22c-53 0 -102 7 -117 7c-5 0 -10 -3 -12 -7c-8 -15 -16 -34 -22 -51c-1 -3 2 -11 5 -12c38 -19 137 -60 188 -92c63 -39 95 -82 95 -152c0 -131 -142 -213 -255 -213c-74 0 -119 29 -142 53
c-7 9 -13 22 -13 33c0 15 16 51 27 66c2 3 12 7 15 7c35 -53 95 -104 172 -104c54 0 88 37 88 88c0 48 -17 84 -79 125c-53 36 -148 73 -172 89c-2 5 -3 31 -2 38c15 52 69 183 101 227c9 9 17 15 27 14c17 0 66 -5 121 -5c31 0 39 5 56 15z" />
    <glyph glyph-name="six" unicode="6" horiz-adv-x="504" 
d="M451 603c-166 -80 -228 -170 -257 -237c-1 -3 1 -6 3 -5c49 24 90 37 119 37c79 0 157 -68 157 -181c0 -90 -45 -163 -126 -204c-29 -16 -70 -26 -104 -26c-147 0 -210 110 -210 225c0 189 168 361 404 426c6 -2 17 -30 14 -35zM231 330c-12 0 -31 -4 -43 -11
c-6 -2 -14 -12 -17 -23c-7 -22 -9 -54 -9 -74c0 -127 52 -189 113 -189c44 0 81 42 81 126c0 111 -54 171 -125 171z" />
    <glyph glyph-name="seven" unicode="7" horiz-adv-x="504" 
d="M474 591c3 -1 7 -13 6 -17c-36 -115 -247 -518 -278 -603c-2 -3 -5 -5 -8 -6c-12 1 -37 12 -45 19c-3 4 -1 17 0 19c52 107 202 381 234 467c0 2 -2 6 -3 6c-45 1 -177 3 -238 -2c-33 -2 -44 -18 -78 -79c-6 -3 -32 8 -36 14c17 57 38 136 45 187c20 -5 52 -7 83 -7h206
c38 0 84 0 112 2z" />
    <glyph glyph-name="eight" unicode="8" horiz-adv-x="504" 
d="M266 601c97 0 169 -60 169 -147c0 -39 -21 -74 -100 -124c-1 -2 -1 -4 1 -5c81 -52 124 -91 124 -163c0 -90 -92 -173 -218 -173c-144 0 -197 83 -197 152c0 43 23 76 122 137c2 1 2 5 0 6c-61 43 -98 88 -98 150c0 49 24 95 62 123c35 27 83 44 135 44zM247 559
c-47 0 -76 -35 -76 -78c0 -53 36 -83 126 -134c1 -1 4 0 6 2c32 32 41 63 41 96c0 64 -36 114 -97 114zM266 31c49 0 83 31 83 79c0 55 -36 87 -142 149c-2 2 -6 0 -7 -1c-36 -33 -53 -65 -53 -105c0 -62 49 -122 119 -122z" />
    <glyph glyph-name="nine" unicode="9" horiz-adv-x="504" 
d="M88 -50c-7 2 -19 28 -16 36c148 68 213 154 252 251c1 4 -2 7 -5 5c-49 -29 -105 -47 -132 -47c-94 0 -158 86 -158 183c0 82 41 150 112 191c33 18 77 32 120 32c140 0 211 -116 211 -242c0 -189 -153 -350 -384 -409zM231 557c-47 0 -86 -47 -86 -125
c0 -113 60 -162 125 -162c18 0 40 6 54 14c5 3 12 12 13 18c6 27 7 43 7 62c0 104 -36 193 -113 193z" />
    <glyph glyph-name="colon" unicode=":" horiz-adv-x="310" 
d="M155 136c18 0 38 -8 49 -19c19 -17 24 -39 24 -57c0 -13 -6 -37 -20 -50c-15 -15 -35 -22 -57 -22c-15 0 -34 7 -48 20c-15 14 -21 33 -21 54c0 19 8 39 23 53c14 13 33 21 50 21zM155 384c18 0 38 -8 50 -18c19 -17 23 -40 23 -59c0 -13 -6 -36 -20 -49
c-15 -15 -34 -22 -56 -22c-15 0 -34 6 -48 19c-15 14 -22 34 -22 55c0 19 8 40 22 54c15 13 34 20 51 20z" />
    <glyph glyph-name="semicolon" unicode=";" horiz-adv-x="310" 
d="M156 383c18 0 37 -6 49 -17c18 -17 23 -39 23 -57c0 -13 -6 -36 -20 -50c-15 -15 -36 -21 -57 -21c-15 0 -34 6 -48 19c-16 14 -22 33 -22 54c0 19 9 38 23 52c15 13 35 20 52 20zM38 -161c-1 1 -4 7 -3 9c48 44 88 95 86 155c-1 26 -21 59 -38 81c9 15 63 63 80 70
c5 3 19 4 24 0c13 -10 30 -46 32 -88c4 -97 -84 -204 -144 -236c-6 -3 -28 4 -37 9z" />
    <glyph glyph-name="less" unicode="&#x3c;" horiz-adv-x="571" 
d="M482 410c-24 -19 -244 -130 -306 -162c-4 -1 -2 -6 -1 -7c35 -19 303 -146 328 -171c4 -4 -15 -49 -20 -59c-1 -2 -7 -4 -9 -4c-42 31 -312 170 -408 209c-2 6 10 48 14 51c89 42 376 190 411 217c2 0 6 -2 7 -5c0 -14 -8 -64 -16 -69z" />
    <glyph glyph-name="equal" unicode="=" horiz-adv-x="571" 
d="M507 306l-458 -2c-2 1 -3 7 -3 10c0 12 10 54 13 61c10 -3 58 -2 119 -2h346c2 -3 2 -8 2 -11c-1 -5 -12 -54 -19 -56zM507 118l-458 -3c-2 2 -3 5 -3 10c1 9 11 54 13 61c10 -3 58 -2 119 -2h346c1 -3 2 -8 1 -11c-1 -6 -12 -54 -18 -55z" />
    <glyph glyph-name="greater" unicode="&#x3e;" horiz-adv-x="571" 
d="M88 82c24 19 244 130 307 161c3 2 1 7 0 8c-34 19 -302 146 -327 171c-4 4 14 49 20 59c1 2 6 3 8 3c43 -31 312 -170 409 -208c1 -7 -10 -48 -14 -51c-89 -42 -376 -190 -411 -218c-2 0 -6 3 -7 6c0 14 8 63 15 69z" />
    <glyph glyph-name="question" unicode="?" horiz-adv-x="392" 
d="M208 297c0 -8 10 -32 30 -52c2 -2 0 -12 -3 -15c-7 -8 -54 -29 -64 -30c-7 -1 -17 -1 -23 2c-34 13 -53 44 -53 67c0 14 6 29 12 35c18 14 92 52 116 68c18 12 24 23 24 39c0 46 -61 79 -124 93c-9 2 -20 3 -28 5c-9 2 -13 14 -13 19c0 11 20 58 37 71c5 4 20 10 33 10
c47 0 97 -21 130 -46c45 -34 64 -76 64 -111c0 -30 -11 -55 -20 -64c-20 -21 -71 -47 -102 -67c-10 -5 -16 -15 -16 -24zM192 131c17 0 36 -6 48 -17c18 -17 23 -39 23 -56c0 -14 -8 -37 -21 -51c-14 -14 -36 -20 -57 -20c-14 0 -34 5 -49 19c-13 15 -19 32 -19 53
c0 19 8 38 23 52c14 13 34 20 52 20z" />
    <glyph glyph-name="at" unicode="@" horiz-adv-x="863" 
d="M607 59h1c54 0 138 62 138 201c0 201 -136 285 -278 284c-124 0 -334 -98 -334 -406c0 -193 94 -282 170 -302c23 -6 57 -11 80 -9c2 -2 1 -14 0 -17c-19 -18 -57 -24 -84 -24c-54 0 -248 87 -248 343c0 130 50 239 127 320c90 97 206 149 331 149
c200 0 303 -160 303 -295c0 -220 -176 -319 -297 -318c-39 0 -52 31 -48 72c2 15 3 32 8 59c0 2 -4 4 -6 2c-53 -73 -135 -132 -180 -132c-47 0 -58 59 -58 103c0 81 38 172 91 227c36 39 133 97 208 97c50 0 80 -6 106 -14c-10 -24 -16 -44 -22 -71
c-17 -82 -36 -185 -37 -222c-1 -29 6 -47 29 -47zM373 88c27 0 63 29 102 95c12 21 19 43 30 90c5 21 14 59 19 71c-13 9 -36 12 -55 12c-40 0 -72 -19 -98 -73c-17 -36 -28 -87 -29 -130c0 -47 15 -65 31 -65z" />
    <glyph glyph-name="A" unicode="A" horiz-adv-x="639" 
d="M-17 34c72 11 85 19 114 86c54 127 136 349 160 418c8 22 18 54 21 72c12 -1 29 -2 47 -2c21 0 36 1 47 2c5 -18 12 -42 18 -60c31 -84 118 -330 154 -418c33 -80 38 -87 114 -98c4 -5 1 -33 -3 -37c-26 0 -71 3 -142 3c-72 0 -117 -3 -149 -3c-3 6 -4 32 -1 37
c22 4 42 7 52 13c11 6 12 16 10 21c-8 34 -33 104 -47 139c-2 3 -7 7 -10 7c-17 1 -54 0 -86 0c-47 0 -65 1 -79 0c-4 0 -9 -6 -11 -10c-18 -51 -40 -109 -40 -127c0 -16 3 -28 29 -34c16 -3 32 -7 50 -9c3 -5 1 -32 -2 -37c-25 0 -69 3 -131 3c-44 0 -85 -3 -115 -3
c-4 6 -4 31 0 37zM288 473c-1 0 -4 1 -5 -1l-65 -191c0 -3 0 -6 3 -7c11 -1 35 -1 65 -1s56 0 65 1c2 0 4 4 4 6c-12 37 -48 142 -67 193z" />
    <glyph glyph-name="B" unicode="B" horiz-adv-x="623" 
d="M32 575c-5 5 -4 33 0 36c20 0 61 -3 136 -3c73 0 135 3 174 3c91 0 193 -24 193 -138c0 -56 -40 -105 -104 -126c-2 -1 -2 -4 0 -5c83 -20 148 -63 148 -150c0 -81 -44 -136 -124 -171c-46 -20 -111 -29 -169 -29c-44 0 -198 5 -266 5c-5 6 -5 33 0 37c27 3 50 6 67 11
c17 6 24 17 27 48c2 27 2 117 2 215c0 108 0 165 -2 214c-1 27 -8 37 -27 43c-16 5 -39 8 -55 10zM278 567c-7 0 -18 -1 -27 -3c-3 -2 -7 -10 -7 -14c-2 -26 -3 -128 -3 -193c0 -3 4 -5 6 -5c10 -1 28 -2 52 -2c36 0 62 4 73 10c27 16 40 46 40 84c0 76 -44 123 -134 123z
M331 36c65 0 111 44 111 133c0 87 -56 138 -158 138c-10 0 -29 0 -37 -1c-2 -1 -6 -2 -6 -6c0 -70 0 -166 3 -208c1 -13 10 -29 18 -36c17 -16 53 -20 69 -20z" />
    <glyph glyph-name="C" unicode="C" horiz-adv-x="679" 
d="M569 440c-11 66 -19 97 -59 119c-34 18 -75 24 -118 24c-118 0 -192 -90 -192 -264c0 -136 67 -282 235 -282c34 0 70 7 98 31c24 20 54 59 78 100c8 -1 27 -12 32 -21c-13 -42 -55 -123 -82 -140c-32 -11 -82 -25 -152 -25c-224 0 -356 114 -356 328
c0 111 53 217 163 273c54 27 120 43 203 43c85 0 161 -16 204 -18c-5 -34 -14 -114 -15 -165c-4 -6 -38 -9 -39 -3z" />
    <glyph glyph-name="D" unicode="D" horiz-adv-x="730" 
d="M27 575c-4 5 -1 31 3 36c20 0 114 -3 143 -3c73 1 105 3 190 3c89 0 159 -20 213 -64c65 -54 101 -136 101 -228c0 -119 -51 -198 -111 -247c-74 -59 -163 -79 -270 -79c-59 0 -145 3 -236 4h-42c-4 7 -5 35 0 37c28 2 43 5 62 10c21 5 31 18 34 47c2 36 2 123 2 221
c0 93 1 163 -2 207c-2 28 -8 38 -32 45c-12 4 -36 8 -55 11zM247 99c0 -10 7 -26 17 -35c21 -19 65 -25 89 -25c45 0 85 15 122 56c38 46 64 105 64 208c0 93 -35 181 -105 229c-39 27 -90 37 -142 37c-15 0 -32 -2 -38 -5c-4 -2 -8 -9 -8 -14c-2 -33 -2 -156 -2 -244
c0 -93 0 -181 3 -207z" />
    <glyph glyph-name="E" unicode="E" horiz-adv-x="592" 
d="M34 575c-4 5 -2 32 2 36c37 0 98 -3 149 -3h204c39 0 95 1 126 6c2 -1 4 -3 4 -5c-7 -31 -12 -96 -15 -149c-6 -5 -35 -6 -41 -2c-4 33 -9 51 -15 67c-10 22 -25 29 -44 30c-25 2 -131 3 -145 1c-6 -2 -11 -14 -11 -19c-1 -63 0 -131 0 -194c0 -3 3 -8 6 -8
c32 0 99 -1 134 2c19 1 27 11 33 32c3 10 6 24 9 38c6 4 38 2 44 -2c-2 -23 -7 -66 -7 -98c0 -31 2 -73 3 -100c-6 -4 -37 -5 -43 -1c-7 30 -6 30 -10 43c-5 14 -13 24 -33 26c-22 3 -97 3 -129 3c-4 0 -7 -7 -7 -9v-176c0 -18 10 -31 23 -35c19 -5 85 -7 137 -7
c39 0 54 5 75 32c18 22 37 57 51 89c7 1 35 -8 39 -14c-4 -27 -28 -111 -45 -145c-5 -9 -10 -17 -56 -17c-84 0 -176 4 -284 4c-57 0 -127 -3 -177 -3c-3 8 -4 31 -1 37c36 4 62 8 77 12c20 5 30 17 31 49c2 45 2 120 2 236c0 79 0 160 -2 190c-2 31 -9 38 -29 44
c-15 5 -33 8 -55 10z" />
    <glyph glyph-name="F" unicode="F" horiz-adv-x="565" 
d="M27 575c-4 5 -2 32 1 36c34 0 91 -3 148 -3h230c63 0 100 3 118 6c2 -1 5 -5 5 -8c-8 -34 -14 -96 -17 -154c-7 -5 -33 -8 -39 -3c-6 35 -11 60 -19 78c-10 21 -23 26 -42 28c-33 2 -136 3 -156 0c-6 -1 -11 -12 -11 -18c-1 -55 -1 -134 -1 -208c0 -3 3 -7 6 -7
c35 0 114 0 145 2c24 1 31 11 38 30c3 10 8 28 12 45c7 2 34 1 42 -3c-2 -25 -5 -60 -5 -103c0 -40 1 -72 2 -104c-6 -5 -31 -5 -41 -2c-4 20 -8 33 -13 47c-7 22 -17 27 -32 28c-28 2 -123 3 -150 3c-2 0 -4 -4 -4 -7c0 -62 -1 -124 1 -166c1 -28 7 -42 30 -47
c20 -5 43 -8 72 -11c2 -8 0 -32 -4 -37c-48 0 -97 3 -161 3c-58 0 -99 -3 -151 -3c-5 6 -6 30 -1 36c18 2 37 4 51 8c27 6 31 18 33 49c1 27 2 137 2 218c0 115 0 174 -2 211c-1 32 -8 39 -28 45c-16 4 -37 8 -59 11z" />
    <glyph glyph-name="G" unicode="G" horiz-adv-x="721" 
d="M651 45c1 -5 -2 -21 -5 -25c-38 -11 -139 -38 -230 -38c-231 0 -363 110 -363 325c0 132 68 234 180 282c55 24 115 37 202 37c90 0 155 -19 207 -22c-9 -42 -17 -125 -17 -176c-5 -6 -37 -9 -42 -4c-9 70 -21 103 -48 123c-33 25 -79 36 -134 36
c-115 0 -199 -75 -199 -261c0 -169 86 -296 232 -296c15 0 37 3 49 13c8 6 13 23 14 33c3 27 3 66 2 96c-1 31 -6 48 -34 57c-19 5 -39 6 -70 11c-5 6 -3 34 1 38c28 0 93 -3 165 -3c68 0 103 2 124 3c4 -4 3 -34 0 -38c-11 -2 -24 -5 -33 -8c-19 -5 -24 -15 -25 -49
c-1 -27 -1 -95 1 -107c1 -11 5 -16 23 -27z" />
    <glyph glyph-name="H" unicode="H" horiz-adv-x="764" 
d="M32 574c-5 4 -3 33 1 37c24 0 66 -3 143 -3s118 3 144 3c4 -5 4 -33 -1 -37c-18 -2 -38 -5 -48 -9c-20 -7 -25 -19 -26 -48c-1 -43 -1 -96 -1 -166c1 -4 3 -7 5 -8c9 -2 25 -2 140 -2c82 0 113 0 124 2c3 0 7 4 7 6c0 51 0 130 -2 180c-1 14 -5 29 -20 34
c-14 6 -32 8 -59 11c-5 5 -4 33 1 37c38 0 76 -3 146 -3c74 0 114 3 140 3c5 -5 6 -31 0 -37c-20 -2 -39 -5 -51 -10c-20 -7 -24 -18 -26 -50c-2 -57 -1 -104 -1 -217c0 -73 0 -162 2 -203c2 -25 6 -41 24 -47c14 -6 32 -8 66 -13c2 -5 0 -33 -5 -37c-26 0 -80 3 -149 3
c-66 0 -123 -3 -146 -3c-5 5 -6 31 0 37c23 3 39 6 53 10c17 5 24 17 26 46c1 42 1 119 1 183c0 3 -3 7 -6 7c-20 1 -80 1 -128 1c-101 0 -133 -1 -139 -3c-1 0 -3 -4 -3 -5c0 -61 0 -139 1 -174c1 -30 5 -46 29 -53c14 -4 36 -8 59 -12c5 -6 0 -33 -4 -37
c-18 0 -66 3 -154 3c-74 0 -125 -3 -144 -3c-4 4 -6 32 -1 37c24 3 35 6 50 9c27 7 33 23 35 65c1 22 2 111 2 199c0 98 -1 183 -2 209c-1 31 -6 42 -26 48c-18 5 -35 8 -57 10z" />
    <glyph glyph-name="I" unicode="I" horiz-adv-x="360" 
d="M30 575c-4 5 -3 31 1 36c31 0 81 -3 145 -3c86 0 125 3 149 3c3 -5 4 -31 0 -36c-22 -3 -41 -6 -55 -10c-22 -7 -24 -22 -25 -49c-2 -35 -2 -105 -2 -191c0 -107 0 -193 2 -231c1 -21 4 -42 32 -49c13 -4 38 -8 60 -11c4 -5 1 -33 -4 -37c-33 1 -80 3 -148 3
c-81 0 -121 -3 -155 -3c-6 4 -6 33 -1 37c22 3 37 5 49 8c28 6 33 16 36 50c2 30 2 144 2 237c0 99 1 149 -2 193c-1 22 -7 36 -26 42c-18 5 -34 7 -58 11z" />
    <glyph glyph-name="J" unicode="J" horiz-adv-x="360" 
d="M33 575c-4 6 -3 31 1 36c32 0 65 -3 158 -3c79 0 115 3 143 3c4 -5 5 -31 0 -36c-20 -3 -41 -8 -51 -12c-16 -6 -22 -15 -23 -43c-2 -97 0 -306 -5 -413c-3 -69 -14 -126 -43 -176c-55 -93 -146 -154 -216 -154c-36 0 -69 10 -80 30c-1 1 -1 16 -1 17c4 21 21 71 30 86
c37 -26 91 -53 119 -53c15 0 29 3 42 17c16 21 20 45 21 112c3 142 1 456 -2 526c-2 25 -6 45 -31 51c-16 5 -35 8 -62 12z" />
    <glyph glyph-name="K" unicode="K" horiz-adv-x="675" 
d="M242 309c0 -101 0 -161 2 -214c2 -31 9 -43 30 -50c14 -4 34 -7 58 -12c4 -4 0 -32 -5 -36c-42 1 -83 3 -152 3c-76 0 -121 -3 -146 -3c-4 5 -4 31 0 36c22 4 42 7 55 11c25 7 29 19 30 60c2 40 2 129 2 215c0 95 0 159 -1 200c-1 25 -6 39 -26 45c-12 3 -35 7 -55 10
c-7 5 -4 32 0 37c22 0 62 -3 145 -3c53 0 99 3 139 3c3 -6 3 -30 0 -36c-20 -4 -32 -6 -48 -10c-20 -7 -25 -18 -26 -48c-1 -49 -2 -140 -2 -208zM391 575c-3 7 -3 31 1 36c31 0 66 -3 123 -3c75 1 102 2 131 3c5 -5 5 -31 0 -36c-58 -9 -85 -16 -125 -63l-148 -167v-5
c45 -73 166 -214 226 -268c13 -12 28 -24 42 -28c20 -6 43 -9 60 -10c4 -6 1 -32 -4 -37c-42 -5 -173 -4 -201 8c-18 7 -36 24 -48 37c-50 54 -133 161 -180 227c-1 3 -11 13 -18 18c0 3 1 18 4 19c46 21 109 85 181 180c22 30 30 47 30 60c0 7 -5 14 -18 18
c-12 4 -30 7 -56 11z" />
    <glyph glyph-name="L" unicode="L" horiz-adv-x="574" 
d="M29 575c-4 6 -2 33 3 36c40 0 70 -3 148 -3c73 0 110 2 143 3c5 -5 4 -31 0 -36c-26 -4 -39 -7 -50 -10c-23 -7 -27 -17 -28 -41c-1 -23 -2 -88 -2 -189c0 -112 1 -217 3 -247c1 -18 13 -28 20 -30c24 -7 93 -7 140 -7c20 0 39 8 58 36c19 29 46 79 63 118
c7 2 36 -8 39 -15c-4 -29 -37 -143 -60 -181c-3 -8 -14 -14 -51 -14c-78 0 -210 5 -281 5c-73 0 -125 -3 -153 -3c-5 6 -5 33 0 37c32 4 43 5 63 10c20 6 26 17 29 39c2 25 3 139 3 233c0 113 1 169 -1 203c-1 27 -7 40 -30 46c-13 4 -36 7 -56 10z" />
    <glyph glyph-name="M" unicode="M" horiz-adv-x="859" 
d="M31 575c-3 4 0 33 3 36c64 0 135 -3 228 -3c3 -22 10 -42 20 -63c44 -99 131 -285 155 -331c2 -2 5 -2 6 0c24 45 124 255 158 335c9 22 16 43 18 59c116 0 161 3 213 3c5 -2 5 -32 0 -37c-29 -4 -50 -8 -64 -12c-22 -7 -27 -22 -27 -47c-2 -69 6 -346 12 -415
c2 -28 8 -48 36 -55c14 -3 34 -7 59 -11c4 -6 2 -31 -3 -37c-31 0 -75 3 -162 3c-55 0 -101 -3 -142 -3c-4 5 -4 32 0 37c24 4 41 7 55 11c17 7 22 20 22 48c2 76 0 268 0 369c-1 1 -3 1 -5 0c-38 -90 -170 -372 -200 -457c-5 -3 -39 -3 -43 -1c-25 83 -119 298 -186 457
c-2 0 -5 -1 -6 -3c-7 -87 -17 -277 -17 -353c0 -34 5 -49 35 -58c18 -6 36 -9 65 -13c5 -4 3 -32 -2 -37c-27 0 -73 3 -138 3c-45 0 -91 -3 -122 -3c-4 6 -4 32 0 37c20 3 39 5 52 9c30 8 39 22 45 65c10 78 30 322 35 405c0 17 -5 38 -26 46c-18 6 -42 10 -74 16z" />
    <glyph glyph-name="N" unicode="N" horiz-adv-x="736" 
d="M19 574c-4 4 -3 33 0 37c33 0 80 -3 144 -3c27 0 55 1 69 2c6 -15 15 -28 37 -56c86 -109 246 -310 306 -379c2 0 3 1 4 1c0 129 1 261 -4 331c-3 33 -12 49 -44 57c-20 4 -38 8 -64 11c-4 3 -3 34 0 36c25 0 71 -3 138 -3c53 0 100 3 119 3c4 -4 3 -33 0 -36
c-15 -3 -28 -5 -42 -10c-27 -8 -38 -20 -41 -60c-6 -82 -8 -219 -8 -372c0 -46 1 -103 1 -139c-14 2 -78 1 -93 -1c-62 84 -289 379 -360 468c-3 3 -5 1 -5 -1c-2 -107 -1 -305 2 -352c2 -42 16 -57 44 -63c16 -4 34 -7 60 -11c4 -5 3 -31 -1 -37c-35 0 -81 3 -130 3
c-54 0 -101 -3 -132 -3c-4 4 -3 33 0 37c23 3 40 6 58 12c23 8 33 25 35 57c6 53 9 236 10 394c0 22 -9 50 -34 60c-18 8 -38 13 -69 17z" />
    <glyph glyph-name="O" unicode="O" horiz-adv-x="760" 
d="M378 -18c-110 0 -186 35 -240 91c-62 65 -85 152 -85 233c0 79 24 161 90 221c56 59 146 99 248 99c208 0 316 -145 316 -311c0 -79 -20 -150 -62 -205c-65 -87 -165 -128 -267 -128zM410 31c31 0 63 11 85 32c51 45 68 129 68 217c0 104 -30 209 -96 263
c-31 24 -63 37 -106 37c-29 0 -57 -8 -79 -22c-61 -41 -84 -127 -84 -223c0 -95 30 -209 105 -268c30 -23 63 -36 107 -36z" />
    <glyph glyph-name="P" unicode="P" horiz-adv-x="592" 
d="M295 239c-8 6 -17 25 -17 32c-1 4 2 10 4 11c5 -1 17 -2 31 -2c22 0 39 4 56 13c35 22 53 59 52 120c0 91 -46 153 -136 153c-7 0 -25 -1 -33 -5c-1 -1 -6 -8 -7 -14c-1 -30 -2 -79 -2 -224c0 -76 0 -178 2 -229c2 -26 7 -43 33 -50c19 -5 40 -7 66 -10
c5 -7 3 -31 -2 -37c-42 0 -109 3 -160 3s-109 -3 -151 -3c-4 7 -4 32 -1 37c21 2 38 4 55 9c24 6 27 25 29 55c1 37 2 106 2 220c0 108 0 165 -2 194c-1 35 -7 48 -34 54c-14 3 -30 6 -51 9c-3 7 -2 31 2 36c25 0 81 -3 133 -3c72 0 117 2 191 2c32 0 91 -5 133 -36
c36 -27 67 -71 67 -140c0 -86 -46 -140 -95 -168c-37 -21 -80 -31 -120 -31c-20 0 -34 2 -45 4z" />
    <glyph glyph-name="Q" unicode="Q" horiz-adv-x="760" 
d="M933 -123c-65 -58 -156 -81 -219 -81c-40 0 -84 12 -128 37c-61 34 -110 75 -172 115c-24 16 -54 29 -81 33c-59 11 -110 26 -155 57c-90 62 -125 164 -125 265c0 70 18 136 55 189c67 93 180 134 286 134c205 0 313 -147 313 -310c0 -91 -27 -167 -75 -221
c-34 -38 -80 -67 -132 -87c33 -10 80 -33 118 -52c89 -43 141 -62 194 -62c44 0 85 8 115 23c4 -6 9 -31 6 -40zM359 579c-114 0 -162 -110 -162 -244c0 -167 72 -306 223 -306c93 0 143 111 143 252c0 140 -52 298 -204 298z" />
    <glyph glyph-name="R" unicode="R" horiz-adv-x="643" 
d="M31 575c-5 6 -3 33 3 36c24 0 99 -3 135 -3c83 0 138 2 185 2c122 0 189 -67 189 -155c0 -80 -51 -127 -115 -154c-2 -1 -2 -6 -1 -8c24 -44 110 -164 158 -212c36 -36 45 -40 101 -47c2 -3 -2 -36 -8 -38c-53 -4 -152 1 -191 20c-22 11 -41 29 -51 42
c-40 48 -88 132 -122 185c-7 11 -15 15 -28 16c-9 1 -34 1 -40 1c-2 0 -5 -5 -5 -7c0 -59 1 -127 2 -163c2 -29 8 -40 30 -46c18 -5 30 -6 56 -10c5 -2 3 -35 -2 -37c-21 0 -70 3 -147 3s-124 -3 -147 -3c-4 4 -6 32 0 37c18 2 36 5 49 8c22 5 30 18 31 50c2 29 3 158 3 218
c0 102 0 174 -2 211c-1 26 -9 39 -30 44c-13 3 -33 7 -53 10zM282 567c-8 0 -24 -2 -32 -5c-3 -3 -7 -11 -7 -15c-2 -28 -2 -130 -2 -231c0 -3 3 -7 6 -7c54 -2 98 2 115 11c29 14 52 43 52 105c0 87 -47 142 -132 142z" />
    <glyph glyph-name="S" unicode="S" horiz-adv-x="506" 
d="M78 187c21 -65 46 -107 82 -133c26 -20 62 -28 93 -28c46 0 91 27 91 84c0 51 -24 80 -120 137c-83 49 -156 96 -156 200c0 116 96 179 210 179c76 0 118 -13 167 -18c-7 -36 -14 -89 -17 -147c-5 -6 -33 -6 -37 -2c-9 60 -21 88 -44 106c-22 16 -47 22 -78 22
c-57 0 -90 -42 -90 -89c0 -46 23 -72 65 -99s76 -44 118 -69c67 -41 103 -84 103 -157c0 -103 -84 -191 -237 -191c-68 0 -129 20 -155 33c-11 14 -32 125 -33 160c3 7 32 15 38 12z" />
    <glyph glyph-name="T" unicode="T" horiz-adv-x="651" 
d="M486 34c4 -5 2 -32 -3 -37c-37 0 -95 3 -165 3c-85 0 -140 -3 -170 -3c-6 5 -5 32 0 37c28 3 53 6 67 10c29 6 36 20 38 64c5 98 4 278 4 438c0 3 -3 9 -6 9c-18 1 -75 1 -104 0c-18 -1 -32 -8 -46 -34c-12 -22 -24 -52 -37 -88c-4 -4 -37 3 -40 10c8 42 18 126 21 172
c0 2 8 8 11 7c27 -11 61 -14 90 -14h358c54 0 86 3 112 13c3 0 7 -6 8 -8c-11 -43 -20 -114 -24 -177c-5 -4 -38 -5 -41 -1c-5 37 -10 65 -19 90c-8 22 -19 29 -38 30c-35 2 -94 2 -113 1c-2 -1 -5 -5 -5 -8c0 -145 -1 -398 2 -455c2 -21 6 -39 28 -47c15 -5 35 -7 72 -12z
" />
    <glyph glyph-name="U" unicode="U" horiz-adv-x="720" 
d="M19 575c-3 5 -3 31 1 36c34 0 96 -3 150 -3c56 0 109 3 148 3c4 -5 4 -30 0 -36c-19 -3 -36 -7 -48 -10c-25 -6 -32 -22 -33 -54c-2 -82 -1 -172 0 -225c0 -35 3 -87 10 -118c12 -66 63 -114 163 -114c71 0 148 21 158 166c5 75 6 215 1 279c-2 40 -10 58 -43 65
c-15 4 -37 7 -60 11c-4 6 -3 30 1 36c33 0 78 -3 128 -3c70 0 101 3 121 3c5 -5 5 -32 0 -36c-15 -4 -30 -6 -44 -10c-26 -7 -34 -23 -36 -72c-3 -86 -5 -202 -13 -270c-15 -184 -122 -241 -261 -241c-176 0 -239 85 -250 186c-7 71 -6 264 -7 346c-1 26 -9 42 -32 50
c-12 4 -34 8 -54 11z" />
    <glyph glyph-name="V" unicode="V" horiz-adv-x="647" 
d="M-18 574c-3 6 -1 34 4 37c30 0 94 -3 144 -3c65 0 131 3 150 3c5 -3 6 -32 2 -36c-24 -5 -44 -11 -54 -15c-9 -4 -12 -15 -7 -29c23 -67 121 -318 146 -378c1 0 5 -1 6 1c28 59 113 277 134 349c11 34 9 52 -20 60c-15 4 -36 8 -62 12c-4 5 0 33 4 36c17 0 53 -3 127 -3
c63 0 94 3 118 3c4 -4 6 -30 1 -36c-21 -5 -40 -9 -52 -14c-27 -14 -38 -36 -59 -84c-34 -74 -92 -215 -143 -341c-28 -67 -44 -114 -54 -145c-18 2 -63 2 -83 0c-13 42 -30 89 -51 141c-52 138 -100 262 -130 333c-30 72 -43 90 -76 99c-13 4 -25 6 -45 10z" />
    <glyph glyph-name="W" unicode="W" horiz-adv-x="894" 
d="M-27 575c-3 4 -2 33 4 36c42 0 77 -3 150 -3c79 0 106 3 143 3c5 -4 5 -31 0 -36c-22 -5 -38 -9 -50 -14c-13 -5 -15 -18 -12 -29c25 -99 74 -257 101 -342c1 -2 4 -1 5 1c39 98 104 293 129 386c18 -3 57 -2 72 0c25 -83 123 -340 150 -406c2 0 5 0 6 2
c31 91 84 266 96 328c7 32 3 52 -24 61c-18 6 -35 8 -63 13c-6 4 -3 34 0 36c24 0 69 -3 125 -3c73 0 102 3 123 3c2 -4 3 -31 0 -36c-20 -5 -30 -7 -43 -12c-23 -8 -38 -23 -52 -60c-48 -125 -131 -383 -172 -511c-16 0 -57 1 -72 -2c-24 77 -116 330 -145 401
c-2 1 -5 0 -6 -1c-40 -108 -112 -304 -140 -399c-16 2 -56 3 -72 0c-28 125 -116 410 -152 509c-11 31 -23 54 -46 62c-18 7 -28 8 -55 13z" />
    <glyph glyph-name="X" unicode="X" horiz-adv-x="632" 
d="M647 34c3 -4 2 -32 -3 -37c-35 0 -104 3 -168 3c-87 0 -125 -3 -141 -3c-5 3 -6 33 -2 37c23 5 41 8 53 13c7 2 9 12 5 19c-21 44 -62 114 -99 173c-2 2 -6 2 -7 0c-60 -89 -99 -147 -106 -166c-5 -11 -3 -25 19 -30c14 -3 24 -5 49 -9c2 -4 -1 -33 -5 -37
c-35 0 -91 4 -131 3c-45 -1 -90 -3 -117 -4c-3 5 -3 35 0 38c26 4 42 7 62 13c24 8 43 22 71 56c45 55 100 133 133 181c2 2 2 8 1 8c-36 64 -84 145 -118 198c-29 46 -42 65 -77 74c-17 5 -30 8 -51 11c-6 4 -4 34 1 37c37 0 83 -4 138 -4c62 0 132 3 149 4
c4 -4 3 -34 1 -37c-11 -2 -28 -6 -38 -9c-9 -4 -12 -13 -8 -21c18 -37 61 -110 90 -158c1 -1 4 -2 6 0c46 66 89 132 94 156c2 10 0 17 -14 21c-16 5 -31 7 -51 10c-3 6 1 34 4 37c32 0 70 -3 114 -3c60 0 90 3 118 3c3 -4 3 -31 0 -36c-24 -4 -41 -8 -54 -12
c-30 -11 -47 -26 -84 -74c-36 -49 -74 -102 -100 -142c-2 -2 -2 -6 -1 -8c36 -63 76 -131 113 -187c52 -81 65 -97 98 -107c16 -4 35 -9 56 -11z" />
    <glyph glyph-name="Y" unicode="Y" horiz-adv-x="583" 
d="M-22 575c-3 7 -2 32 2 36c32 0 84 -3 135 -3c57 0 127 2 144 3c5 -4 6 -32 1 -36l-32 -7c-15 -4 -13 -16 -7 -29c20 -45 92 -186 109 -214c2 -2 5 -1 7 0c34 56 95 171 107 207c5 17 4 28 -21 33c-15 4 -30 6 -52 10c-2 7 -1 33 4 36c30 0 72 -3 121 -3c55 0 82 3 115 3
c5 -3 5 -32 1 -36c-18 -4 -35 -6 -47 -10c-29 -9 -43 -20 -72 -65c-40 -63 -103 -176 -126 -221c-7 -15 -10 -27 -10 -44c0 -44 0 -80 1 -131c1 -34 5 -55 33 -61c16 -4 36 -6 61 -10c3 -4 0 -33 -4 -37c-30 0 -101 4 -161 4c-79 0 -113 -4 -154 -4c-5 4 -4 34 0 37
c28 3 51 7 66 10c26 7 31 27 31 56c2 47 1 79 1 122c0 15 -5 34 -12 50c-20 45 -78 152 -115 219c-34 60 -48 69 -77 77c-13 4 -29 6 -49 8z" />
    <glyph glyph-name="Z" unicode="Z" horiz-adv-x="608" 
d="M593 181c-4 -29 -34 -137 -53 -173c-5 -9 -16 -13 -57 -13c-114 1 -256 3 -343 5c-29 -1 -73 -1 -96 -3c-2 3 -5 22 -4 25c74 97 307 457 346 532c1 2 -1 5 -3 5c-40 1 -163 1 -212 -4c-17 -2 -36 -8 -53 -36c-13 -22 -27 -56 -43 -94c-4 -3 -38 8 -40 12
c13 57 24 123 30 180c2 2 17 6 20 4c18 -11 42 -13 87 -13h209c57 0 128 1 164 3c2 -2 4 -18 3 -23c-37 -65 -250 -406 -327 -526c-1 -2 -1 -7 2 -7c21 -5 121 -8 204 -7c20 0 35 5 53 23c21 21 48 68 73 125c6 3 36 -8 40 -15z" />
    <glyph glyph-name="bracketleft" unicode="[" horiz-adv-x="402" 
d="M120 740h218s1 -55 -9 -55c-31 -2 -125 -2 -146 -2c-2 0 -6 -4 -6 -7c-3 -29 -5 -241 -5 -390c0 -210 1 -344 5 -390c1 -7 4 -18 10 -20c21 -6 111 -5 158 -5c2 -5 0 -54 -10 -54c-42 -1 -120 -3 -175 0c-25 2 -38 5 -45 9v908c0 2 3 6 5 6z" />
    <glyph glyph-name="backslash" unicode="\" horiz-adv-x="449" 
d="M90 689c2 1 6 0 8 -1c57 -155 236 -643 307 -796c-1 -2 -6 -7 -10 -7c-14 2 -57 16 -63 26c-42 76 -229 590 -290 741c4 6 37 32 48 37z" />
    <glyph glyph-name="bracketright" unicode="]" horiz-adv-x="403" 
d="M282 -185c-67 0 -141 -1 -216 -1c-1 0 -3 55 7 55c31 1 127 2 148 4c2 0 6 5 6 8c3 30 4 252 4 387c0 201 0 343 -4 391c-1 7 -4 19 -10 20c-21 3 -113 3 -160 4c-2 5 1 54 10 54c43 0 166 2 206 2c9 0 10 -6 15 -9v-908c0 -2 -4 -6 -6 -7z" />
    <glyph glyph-name="asciicircum" unicode="^" horiz-adv-x="484" 
d="M117 257c-9 -11 -54 -14 -62 -14c-4 0 -9 4 -9 6c23 30 152 297 171 347c1 2 42 11 46 11c31 -71 148 -308 175 -346c0 0 -1 -4 -3 -5c-9 -6 -61 -21 -64 -18c-20 19 -114 217 -131 252c-1 1 -7 2 -8 0c-25 -58 -100 -216 -115 -233z" />
    <glyph glyph-name="underscore" unicode="_" horiz-adv-x="518" 
d="M560 -182v-51h-569v51h569z" />
    <glyph glyph-name="quoteleft" unicode="&#x2018;" horiz-adv-x="237" 
d="M118 552c0 -22 22 -41 55 -50c3 -1 7 -13 4 -18c-5 -14 -48 -55 -70 -55c-39 0 -70 40 -70 88c0 87 97 143 152 156c4 -2 12 -25 11 -30c-61 -26 -82 -58 -82 -91z" />
    <glyph glyph-name="a" unicode="a" horiz-adv-x="439" 
d="M255 261c0 18 -3 38 -14 54c-17 23 -44 32 -71 32c-21 0 -39 -6 -46 -13c-9 -9 -27 -46 -35 -64c-5 -4 -39 11 -39 19c2 10 16 60 23 66c49 34 121 61 151 61c51 0 91 -24 114 -59c20 -30 26 -65 26 -101c0 -48 -3 -118 -3 -159c0 -20 7 -37 30 -37c13 0 22 1 35 5
c2 -4 -2 -37 -5 -41c-26 -24 -73 -37 -103 -37c-32 0 -52 12 -58 29c-2 6 -5 14 -6 20c0 2 -4 2 -4 2c-50 -33 -97 -50 -116 -50c-22 0 -43 9 -60 25c-24 23 -38 58 -38 96c0 16 11 51 18 61c32 18 156 47 193 64c3 1 6 7 7 10c1 6 1 11 1 17zM254 193c0 2 -2 5 -4 5
c-27 -10 -81 -27 -95 -37c-4 -2 -10 -22 -10 -32c0 -46 33 -69 68 -69c10 0 22 3 31 9c5 3 8 10 8 19c2 28 2 88 2 105z" />
    <glyph glyph-name="b" unicode="b" horiz-adv-x="518" 
d="M318 416c50 0 88 -21 114 -50c34 -38 47 -91 47 -132c0 -83 -33 -144 -86 -185c-40 -30 -122 -61 -165 -61c-40 0 -68 6 -97 14c-14 3 -37 4 -57 -2c-3 -1 -10 6 -10 8c3 36 5 124 5 252c-1 156 -1 269 -5 302c-1 15 -5 23 -23 28c-10 2 -27 5 -43 7c-3 5 -2 30 2 34
c55 3 148 20 189 35c4 -1 8 -15 7 -20c-9 -15 -12 -28 -12 -147v-126c1 -3 4 -3 6 -2c43 22 96 45 128 45zM241 346c-16 0 -39 -6 -48 -12c-3 -2 -7 -9 -8 -15c-1 -45 -1 -157 2 -208c0 -21 7 -36 16 -44c21 -19 50 -26 70 -26c22 0 39 8 57 29c18 23 30 68 30 114
c0 55 -13 93 -31 119c-26 35 -56 43 -88 43z" />
    <glyph glyph-name="c" unicode="c" horiz-adv-x="430" 
d="M405 71c-50 -61 -122 -83 -173 -83c-66 0 -116 25 -151 70c-28 37 -42 87 -42 139c0 69 37 139 103 176c38 24 100 43 143 43s66 -6 87 -15c9 -3 27 -13 34 -28c2 -5 1 -14 -1 -19c-7 -20 -33 -50 -43 -55c-3 -1 -12 -2 -15 0c-21 22 -60 69 -109 69
c-55 0 -86 -53 -86 -125c0 -42 9 -85 33 -117c31 -40 68 -52 109 -52c36 0 73 11 112 44c2 -1 6 -4 6 -8c2 -9 -2 -32 -7 -39z" />
    <glyph glyph-name="d" unicode="d" horiz-adv-x="529" 
d="M518 61c1 -5 -4 -33 -7 -36c-37 -18 -140 -41 -164 -41c-3 0 -7 6 -8 10c-2 9 -2 33 -2 49c0 1 -3 4 -6 3c-45 -31 -102 -56 -135 -56c-45 0 -83 20 -111 54c-28 36 -46 88 -46 145c0 68 32 129 77 165c41 33 123 62 186 62c10 0 23 -1 32 -2c3 0 5 3 5 5
c0 64 0 109 -2 136c-1 16 -5 30 -22 36c-14 5 -35 9 -57 11c-3 6 -1 32 4 35c60 0 162 15 199 29c3 -2 7 -15 6 -19c-10 -17 -10 -32 -11 -93c-1 -59 -2 -134 -2 -279c0 -58 0 -142 1 -176c0 -29 7 -35 17 -36c11 -3 24 -3 46 -2zM248 369c-18 0 -39 -7 -55 -23
c-20 -20 -35 -57 -35 -110c0 -107 51 -169 123 -169c16 0 34 5 48 15c5 4 8 11 8 20c2 28 2 142 2 196c-1 23 -8 38 -25 51c-20 15 -43 20 -66 20z" />
    <glyph glyph-name="e" unicode="e" horiz-adv-x="448" 
d="M410 115c1 -1 4 -4 4 -7c1 -10 -4 -31 -5 -35c-43 -53 -119 -85 -178 -85s-101 18 -132 48c-43 41 -60 105 -60 164c0 84 39 148 93 182c34 21 79 34 118 34c110 0 147 -90 156 -146c1 -5 9 -11 16 -14c1 -4 -5 -26 -8 -29c-34 -11 -177 -19 -254 -22c-3 -1 -5 -7 -5 -10
c2 -28 15 -62 40 -85c25 -24 55 -35 98 -35c42 0 78 11 117 40zM220 373c-39 0 -65 -48 -67 -113c0 -2 3 -7 7 -7c28 -1 108 0 126 4c4 1 6 5 7 9c-5 60 -30 107 -73 107z" />
    <glyph glyph-name="f" unicode="f" horiz-adv-x="295" 
d="M21 34c17 3 30 5 39 8c15 5 19 18 19 33c1 72 1 171 1 259c0 2 -3 7 -5 7l-53 4c0 8 7 31 10 36c12 3 36 12 44 18c3 2 5 6 5 7c3 99 37 168 113 221c37 26 79 39 108 39c42 0 69 -13 83 -32c1 -3 1 -14 0 -17c-5 -17 -33 -62 -45 -69c-3 -2 -12 -2 -16 0
c-23 25 -60 55 -84 55c-10 0 -20 -4 -29 -14c-16 -20 -19 -59 -19 -127c0 -20 1 -42 2 -52c0 -4 4 -8 7 -8c66 1 84 2 102 3c-3 -15 -8 -46 -10 -65c-31 1 -65 2 -93 2c-4 0 -6 -5 -6 -8c1 -101 1 -198 4 -251c1 -22 6 -34 26 -40c15 -4 28 -6 55 -10c3 -4 0 -33 -5 -36
c-24 0 -56 3 -141 3c-53 0 -90 -3 -112 -3c-5 5 -5 33 0 37z" />
    <glyph glyph-name="g" unicode="g" horiz-adv-x="472" 
d="M230 416c41 0 69 -8 105 -20c20 -6 40 -10 61 -10c34 0 45 5 61 21c3 2 15 -6 16 -9c0 -12 -15 -52 -26 -64c-9 -9 -18 -12 -37 -12h-20c-2 0 -3 -2 -2 -3c2 -9 5 -28 5 -39c0 -64 -21 -97 -58 -125c-21 -16 -62 -35 -114 -39c-4 -1 -29 -2 -33 -2c-6 0 -17 -9 -17 -18
c0 -15 13 -24 36 -27c46 -3 133 -9 172 -20c37 -11 77 -44 77 -104c0 -74 -53 -136 -131 -173c-41 -19 -85 -26 -123 -26c-47 0 -91 10 -123 31c-35 23 -58 58 -58 92c0 13 2 29 6 39c18 17 61 43 92 62c2 1 1 3 0 3c-39 17 -62 43 -64 77c0 5 2 13 4 17c14 7 61 34 78 47
c1 1 1 5 -1 6c-64 21 -98 71 -98 139c0 45 19 88 59 117c32 23 90 40 133 40zM248 -198c85 0 117 41 117 80c0 25 -12 45 -39 57c-34 16 -100 21 -146 21c-13 0 -24 -4 -29 -8c-26 -18 -36 -38 -36 -56c0 -22 7 -40 27 -59c25 -24 64 -35 106 -35zM209 377
c-35 0 -61 -34 -61 -91c0 -85 31 -130 79 -130c13 0 28 6 37 16c13 14 22 43 22 80c0 66 -21 125 -77 125z" />
    <glyph glyph-name="h" unicode="h" horiz-adv-x="529" 
d="M8 596c-5 4 -5 32 0 35c72 4 156 23 185 35c4 -2 10 -14 9 -20c-9 -16 -12 -27 -12 -95c-1 -21 -1 -166 -1 -187c0 -2 3 -4 4 -3c45 32 90 55 131 55c83 0 131 -60 131 -165c0 -54 -1 -143 1 -183c0 -6 3 -16 9 -20c12 -7 31 -12 49 -14c5 -4 2 -33 -4 -37
c-16 0 -53 3 -115 3c-38 0 -82 -2 -104 -3c-6 5 -6 32 -1 37c12 2 24 5 30 7c15 4 18 13 19 45c2 54 4 157 -3 195c-6 32 -34 63 -81 63c-19 0 -40 -6 -57 -16c-4 -3 -8 -10 -8 -16c0 -76 0 -193 1 -223c2 -29 2 -41 22 -48c10 -3 18 -5 35 -7c6 -5 3 -31 -2 -37
c-26 0 -56 3 -117 3c-60 0 -90 -3 -110 -3c-6 7 -6 33 0 37c16 3 26 5 35 8c17 6 19 20 20 52c2 35 2 111 2 162c0 215 0 272 -4 304c-1 14 -4 23 -18 28c-11 3 -28 5 -46 8z" />
    <glyph glyph-name="i" unicode="i" horiz-adv-x="269" 
d="M256 34c3 -5 1 -32 -5 -37c-18 0 -53 3 -118 3c-52 0 -90 -3 -112 -3c-3 5 -5 32 0 37c18 3 29 5 40 9c14 4 16 13 17 37c1 23 1 83 1 133v91c0 8 -2 18 -8 24c-7 8 -18 14 -45 24c-3 6 0 28 4 32c25 1 118 14 166 33c0 -47 -1 -114 -1 -172c0 -52 0 -117 1 -163
c0 -25 6 -35 19 -39c10 -3 20 -6 41 -9zM193 547c0 -20 -10 -45 -25 -58c-8 -7 -57 -11 -68 -5c-16 7 -26 22 -32 44c-2 10 -2 36 5 44c14 13 45 23 70 23c22 0 37 -7 42 -12c6 -9 8 -27 8 -36z" />
    <glyph glyph-name="j" unicode="j" horiz-adv-x="272" 
d="M204 415l-2 -309c0 -59 -1 -91 -10 -131c-26 -118 -113 -198 -154 -218c-19 0 -32 9 -38 17c-2 4 -1 11 0 14c65 35 84 88 84 208c0 97 1 262 -3 307c-1 14 -3 28 -18 34c-11 6 -30 11 -48 14c-4 7 -2 32 1 36c62 3 145 14 188 28zM198 549c0 -20 -9 -45 -25 -57
c-8 -6 -58 -15 -69 -9c-19 11 -28 27 -33 50c-2 11 -1 35 7 41c12 12 42 24 70 24c21 0 38 -9 42 -15c6 -7 8 -23 8 -34z" />
    <glyph glyph-name="k" unicode="k" horiz-adv-x="492" 
d="M254 366c-3 6 0 32 5 36c72 0 159 2 206 8c5 -4 6 -32 0 -38c-37 -7 -62 -14 -84 -36c-28 -28 -63 -62 -87 -89c-2 -1 0 -3 0 -5c21 -36 114 -156 150 -187c20 -17 29 -19 68 -21c4 -5 0 -33 -5 -37c-20 -3 -77 -4 -119 -4c-29 0 -48 12 -57 21c-25 23 -73 95 -112 150
c-8 11 -17 24 -30 26c0 -46 0 -71 1 -109c1 -28 7 -34 25 -39c12 -4 24 -6 37 -8c4 -6 0 -33 -6 -37c-22 0 -57 3 -114 3c-61 0 -92 -3 -116 -3c-5 4 -5 33 0 37c16 2 27 4 37 7c15 5 18 15 20 37c2 28 2 118 2 164c0 250 0 302 -2 321c-1 14 -5 25 -17 29
c-10 4 -28 7 -44 9c-4 6 -3 30 0 34c58 3 150 18 183 31c3 -2 9 -15 8 -18c-9 -14 -11 -35 -12 -97c-1 -67 -2 -169 -2 -332c14 3 29 10 45 23c36 29 80 83 82 98c0 9 -3 14 -15 18c-12 3 -40 7 -47 8z" />
    <glyph glyph-name="l" unicode="l" horiz-adv-x="265" 
d="M17 -3c-3 6 -6 30 -1 37c15 2 27 5 40 10s16 21 17 43c2 32 2 142 2 236c0 114 0 193 -3 237c0 10 -3 22 -14 26c-9 4 -29 7 -48 9c-5 5 -4 27 1 32c52 6 148 24 183 39c4 -1 9 -11 8 -15c-8 -18 -10 -42 -11 -82c-1 -50 0 -161 -1 -254c0 -118 -1 -194 2 -232
c2 -26 4 -35 23 -41c12 -3 20 -5 38 -8c3 -6 0 -30 -5 -37c-15 0 -52 3 -123 3c-52 0 -92 -3 -108 -3z" />
    <glyph glyph-name="m" unicode="m" horiz-adv-x="790" 
d="M21 34c18 2 25 5 36 8c17 6 20 19 21 42c2 41 3 170 1 213c-1 7 -1 16 -7 23c-7 8 -22 16 -45 26c-3 6 0 29 4 32c58 7 132 28 161 41c1 -1 4 -4 4 -7c0 -5 -1 -39 -1 -57c0 -3 4 -4 6 -2c59 46 103 63 134 63c46 0 83 -26 104 -66c2 -4 3 -3 6 0c58 44 107 66 141 66
c79 0 130 -61 130 -165v-183c0 -4 3 -12 7 -15c11 -10 28 -13 55 -19c3 -6 0 -33 -4 -37c-24 0 -67 3 -110 3c-49 -1 -80 -1 -111 -3c-3 4 -5 32 -1 37c12 2 21 4 28 7c16 5 18 14 19 42c1 62 2 157 -3 189c-4 29 -24 65 -75 65c-19 0 -46 -9 -67 -25c-2 -2 -2 -4 -2 -6
c4 -19 6 -46 6 -73c0 -55 -1 -119 0 -162c0 -14 4 -21 13 -25c12 -6 24 -9 40 -12c4 -5 1 -33 -4 -37c-36 1 -72 3 -118 3c-42 0 -74 -2 -99 -3c-3 6 -4 32 0 37c15 3 26 4 35 8c12 4 15 16 16 31c2 60 2 176 -3 204c-6 28 -24 63 -73 63c-20 0 -43 -8 -60 -21
c-7 -5 -10 -14 -10 -20c0 -71 0 -159 1 -225c0 -21 5 -29 22 -34c6 -2 19 -4 31 -6c4 -5 1 -31 -4 -37c-34 1 -70 3 -113 3c-63 0 -82 -2 -110 -3c-5 6 -5 33 -1 37z" />
    <glyph glyph-name="n" unicode="n" horiz-adv-x="534" 
d="M23 34c13 2 22 3 33 7c15 3 20 18 21 37c2 30 2 105 2 158c0 29 0 61 -1 74c-3 10 -12 23 -50 37c-1 7 2 26 5 31c56 6 124 27 155 42c2 -2 5 -5 5 -8v-55c0 -3 4 -4 5 -3c47 37 96 62 131 62c46 0 79 -20 103 -54c20 -30 27 -72 27 -119c0 -62 0 -143 1 -176
c0 -8 3 -15 8 -18c15 -9 30 -12 51 -15c3 -6 0 -31 -5 -37c-15 0 -48 3 -113 3c-52 0 -75 -2 -107 -3c-2 6 -4 32 0 37c14 2 26 5 32 7c12 4 16 14 16 31c2 42 4 163 -3 203c-3 17 -12 38 -29 50c-13 10 -29 14 -50 14c-16 0 -40 -6 -57 -19c-6 -4 -9 -13 -9 -22
c0 -68 0 -168 2 -224c1 -24 7 -30 21 -34c10 -3 15 -4 32 -6c3 -5 2 -31 -3 -37c-31 1 -65 3 -112 3c-61 0 -92 -2 -111 -3c-4 6 -4 32 0 37z" />
    <glyph glyph-name="o" unicode="o" horiz-adv-x="520" 
d="M269 416c136 0 212 -92 212 -208c0 -82 -35 -145 -92 -181c-32 -20 -87 -39 -134 -39c-152 0 -215 101 -215 217c0 76 35 135 89 170c35 23 86 41 140 41zM242 372c-11 0 -23 -4 -33 -10c-25 -17 -43 -53 -43 -128c0 -131 47 -202 110 -202c15 0 30 5 40 14
c24 20 36 60 36 133c0 119 -41 193 -110 193z" />
    <glyph glyph-name="p" unicode="p" horiz-adv-x="522" 
d="M11 340c-2 6 -1 28 3 34c42 7 126 32 168 53c3 1 10 -7 10 -9c-1 -10 -2 -38 -2 -55c0 -2 4 -4 6 -3c51 33 97 56 134 56c43 0 80 -19 104 -47c34 -37 49 -88 49 -135c0 -87 -33 -141 -84 -183c-52 -43 -128 -64 -179 -64c-8 0 -20 1 -27 2c-2 1 -4 -2 -4 -4
c0 -31 1 -95 2 -122c2 -25 7 -36 30 -41c13 -3 40 -6 61 -9c2 -7 -1 -31 -6 -37h-30c-102 1 -164 -4 -242 -12c-4 6 -7 32 -3 38c18 3 38 7 50 11c17 7 20 21 21 49c2 29 2 106 3 224c0 114 0 163 -3 207c-1 17 -3 27 -17 34c-12 6 -28 10 -44 13zM255 339
c-16 0 -41 -6 -57 -18c-4 -2 -9 -11 -10 -18c-1 -28 0 -149 1 -190c1 -19 9 -39 24 -51c22 -17 44 -22 64 -22c16 0 37 6 55 25c22 24 34 67 34 116c0 50 -11 92 -32 120c-22 28 -48 38 -79 38z" />
    <glyph glyph-name="q" unicode="q" horiz-adv-x="524" 
d="M529 -224h-78c-91 -1 -158 -11 -193 -12c-3 6 -5 31 -1 36c19 3 38 8 53 13c18 6 22 19 24 48c2 43 3 111 3 165c0 3 -3 5 -5 4c-36 -23 -97 -43 -123 -43c-93 0 -170 79 -170 204c0 71 36 131 85 167s130 58 193 58c39 0 110 -11 149 -22c-4 -11 -8 -34 -11 -54
c-1 -28 -2 -93 -2 -142c-1 -113 0 -274 2 -324c2 -37 8 -48 29 -53c14 -3 31 -5 50 -7c2 -5 0 -33 -5 -38zM248 366c-47 0 -88 -35 -88 -132c0 -124 67 -175 132 -175c11 0 29 3 40 9c3 1 5 8 5 10c0 110 0 211 -4 242c-1 6 -7 21 -12 25c-17 12 -42 21 -73 21z" />
    <glyph glyph-name="r" unicode="r" horiz-adv-x="366" 
d="M310 416c25 0 47 -10 56 -28c1 -4 1 -15 0 -20c-3 -15 -26 -67 -41 -85c-3 -2 -11 -4 -13 -3c-21 21 -48 39 -76 39c-12 0 -26 -8 -36 -20c-2 -3 -7 -12 -7 -20c0 -58 1 -179 2 -194c2 -27 5 -36 26 -41c17 -5 35 -8 57 -10c2 -5 0 -31 -5 -37c-17 0 -73 3 -140 3
c-45 0 -87 -3 -113 -3c-3 6 -4 33 0 37c15 2 29 4 41 8c9 4 15 12 16 30c2 19 3 93 2 157c0 34 0 64 -1 77c-2 14 -8 27 -54 43c-1 6 2 26 5 29c37 3 122 22 157 42c3 0 6 -4 7 -6c-1 -12 -3 -60 -3 -75c0 -3 4 -3 6 -2c20 23 38 43 60 59c14 11 35 20 54 20z" />
    <glyph glyph-name="s" unicode="s" horiz-adv-x="377" 
d="M327 403c-7 -34 -9 -73 -12 -117c-5 -3 -31 -5 -35 -2c-8 43 -19 68 -41 81c-11 8 -27 12 -44 12c-31 0 -52 -20 -52 -45c0 -29 12 -46 96 -84c80 -35 106 -70 106 -124c0 -84 -81 -135 -175 -135c-49 0 -92 10 -121 20c-5 19 -16 104 -17 121c3 3 30 13 37 11
c16 -52 34 -80 62 -98c16 -9 38 -14 54 -14c35 0 55 19 55 45c0 29 -18 45 -69 69c-98 46 -127 84 -127 143c0 69 55 129 165 129c19 0 52 -3 70 -6z" />
    <glyph glyph-name="t" unicode="t" horiz-adv-x="320" 
d="M298 340c-27 1 -71 1 -107 1c-1 0 -4 -4 -4 -5c0 -40 -1 -110 -1 -158c0 -40 1 -57 5 -76c5 -23 27 -40 56 -40c23 0 38 4 58 15c2 -4 0 -30 -2 -37c-27 -35 -72 -52 -116 -52c-45 0 -82 17 -100 50c-15 27 -16 53 -16 111c0 53 1 141 1 183c0 3 -2 8 -5 9
c-16 2 -37 2 -53 4c0 8 6 33 10 43c14 2 35 8 43 11c2 0 5 3 5 8c1 9 1 63 1 85c24 9 81 38 96 51c4 2 19 3 23 2c-3 -22 -5 -72 -5 -136c0 -3 3 -7 5 -7c27 0 92 3 117 4c-4 -16 -10 -49 -11 -66z" />
    <glyph glyph-name="u" unicode="u" horiz-adv-x="520" 
d="M14 357c-2 9 0 32 4 37c45 1 132 5 175 16c-4 -32 -6 -84 -6 -189c0 -55 0 -88 5 -107c6 -24 26 -45 68 -45c23 0 45 9 59 21c6 6 8 11 8 17c2 14 3 69 0 209c0 12 -3 27 -17 31c-15 5 -34 8 -56 11c-3 10 -1 31 4 37c76 0 161 8 189 14c-1 -10 -1 -52 -2 -95v-214
c1 -19 4 -31 18 -32c14 -2 28 -1 44 -1c0 -8 -2 -32 -6 -37c-39 -18 -143 -43 -162 -43c-2 0 -5 4 -7 7c-2 11 -4 42 -4 54c0 3 -3 5 -5 3c-49 -40 -95 -62 -134 -62c-86 0 -116 59 -117 129c-1 50 1 148 -1 195c0 19 -3 31 -18 36c-8 2 -25 6 -39 8z" />
    <glyph glyph-name="v" unicode="v" horiz-adv-x="455" 
d="M-7 368c-2 8 0 33 4 37c28 -1 78 -3 119 -3c50 0 86 2 108 3c5 -5 7 -31 2 -37c-13 -2 -28 -5 -36 -8c-7 -2 -8 -9 -7 -14c13 -38 62 -168 80 -212c1 -2 3 0 4 1c20 47 57 140 71 185c9 27 2 35 -10 39c-14 5 -27 7 -44 10c-4 6 0 33 4 36c15 0 51 -3 93 -3
c32 0 70 2 89 3c5 -4 4 -31 0 -37c-16 -3 -26 -4 -37 -8c-15 -6 -25 -20 -39 -50c-26 -53 -61 -133 -96 -219c-16 -42 -26 -69 -34 -94c-17 2 -55 2 -71 -1c-8 27 -19 57 -31 89c-27 70 -58 146 -77 192c-29 66 -34 75 -57 83c-11 4 -23 6 -35 8z" />
    <glyph glyph-name="w" unicode="w" horiz-adv-x="663" 
d="M-13 368c-3 8 -1 33 2 37c24 0 68 -3 119 -3c42 0 97 3 118 4c4 -4 6 -32 3 -38c-17 -3 -35 -7 -40 -9c-9 -6 -9 -15 -8 -19c8 -36 42 -156 57 -199c1 -1 3 -2 4 0c24 57 70 179 86 239c14 -1 54 -1 66 1c4 -19 13 -45 24 -75c24 -66 58 -148 67 -172c2 0 4 -2 5 2
c16 41 51 148 59 190c2 13 3 23 -15 31c-12 5 -32 8 -52 11c-4 7 -1 33 4 37c13 0 52 -3 98 -3c39 0 76 2 97 3c5 -5 4 -31 0 -37c-14 -3 -27 -6 -36 -9c-23 -9 -31 -22 -42 -47c-27 -65 -95 -257 -115 -316c-17 2 -54 2 -70 -1c-19 62 -77 206 -89 234c-1 1 -3 1 -5 0
c-18 -48 -67 -165 -91 -233c-14 2 -56 2 -70 0c-23 83 -65 228 -91 297c-15 41 -21 58 -42 66c-10 4 -26 7 -43 9z" />
    <glyph glyph-name="x" unicode="x" horiz-adv-x="432" 
d="M-14 34c57 8 63 12 95 49c30 34 61 75 80 101c1 2 2 6 0 9c-24 43 -51 89 -74 123c-24 37 -32 45 -90 52c-3 6 -1 34 4 37c12 0 66 -3 118 -3c50 0 97 2 109 3c4 -4 5 -32 2 -37c-7 -1 -22 -4 -26 -6c-8 -3 -7 -11 -4 -16c12 -24 30 -57 46 -81c1 -1 3 -1 4 0
c24 31 44 64 49 77c2 8 3 15 -6 18c-8 4 -18 7 -33 8c-2 9 -1 33 4 37c15 0 49 -3 79 -3c49 0 72 2 88 3c4 -5 6 -29 3 -37c-54 -9 -60 -14 -85 -44c-26 -28 -53 -68 -74 -96c-1 -1 -2 -5 0 -7c21 -37 43 -74 63 -104c45 -69 43 -75 112 -83c2 -6 -1 -33 -6 -37
c-25 0 -78 3 -117 3c-57 -1 -94 -2 -112 -3c-4 5 -6 31 -4 37c14 3 25 5 29 10c5 3 4 10 2 15c-13 24 -30 53 -51 86c-1 2 -4 2 -6 0c-31 -46 -51 -74 -53 -85c-2 -7 0 -15 10 -18c9 -3 17 -5 34 -8c2 -7 -1 -31 -5 -37c-19 0 -56 3 -89 3c-36 0 -80 -2 -95 -3
c-3 5 -5 32 -1 37z" />
    <glyph glyph-name="y" unicode="y" horiz-adv-x="455" 
d="M-13 368c-1 10 2 32 6 37c14 0 65 -3 122 -3c55 0 90 2 114 3c5 -6 5 -29 3 -37c-13 -3 -26 -6 -32 -9c-9 -4 -9 -14 -8 -18c16 -50 68 -183 78 -202c0 0 3 -1 4 0c29 64 62 154 68 188c1 13 0 26 -17 32c-11 4 -24 6 -44 9c-2 11 1 33 5 37c18 0 53 -3 90 -3
c35 0 67 2 99 3c3 -6 4 -29 1 -37c-15 -2 -25 -5 -36 -9c-19 -7 -31 -21 -44 -56c-60 -159 -150 -340 -221 -470c-13 -22 -27 -49 -34 -63l-12 -4c-15 2 -57 17 -68 31c-2 5 -1 18 1 22c33 39 106 126 138 192l-11 23c-24 56 -62 152 -97 233c-29 67 -38 84 -68 93
c-10 3 -23 6 -37 8z" />
    <glyph glyph-name="z" unicode="z" horiz-adv-x="417" 
d="M368 404c2 -1 5 -16 4 -20c-20 -47 -140 -255 -186 -331c-1 -1 0 -5 2 -6c22 -4 79 -7 100 -7c17 0 45 20 79 96c5 5 28 7 37 6c1 0 4 -2 4 -3c-5 -33 -31 -104 -42 -128c-5 -10 -16 -16 -36 -16c-68 0 -250 6 -294 5c-2 4 -5 17 -4 21c56 92 158 247 199 333
c1 2 0 5 -2 5c-21 0 -67 0 -83 -2c-40 -3 -50 -13 -85 -92c-6 -2 -30 4 -36 10c11 46 20 102 26 138c18 -6 50 -11 77 -11h150c40 0 70 1 90 2z" />
    <glyph glyph-name="braceleft" unicode="{" horiz-adv-x="442" 
d="M60 295c109 3 110 61 100 151c-2 18 -7 78 -7 91c0 135 86 198 220 208c3 -2 6 -32 4 -37c-105 -21 -136 -60 -136 -138c0 -47 13 -108 13 -159c0 -43 -11 -108 -112 -133c-1 -2 -1 -4 0 -6c108 -11 120 -85 120 -131c0 -60 -13 -117 -13 -165c0 -93 74 -114 136 -123
c3 -4 -3 -35 -8 -38c-103 -4 -215 40 -216 155c0 24 2 49 7 101c9 107 27 168 -117 187c-2 6 4 34 9 37z" />
    <glyph glyph-name="bar" unicode="|" horiz-adv-x="307" 
d="M114 710h80v-1020h-80v1020z" />
    <glyph glyph-name="braceright" unicode="}" horiz-adv-x="444" 
d="M383 255c-109 -3 -112 -61 -101 -151c2 -18 7 -72 7 -85c0 -137 -86 -199 -220 -209c-4 4 -8 33 -4 37c104 22 136 58 136 137c0 47 -13 104 -13 155c0 43 13 108 113 135v6c-109 12 -121 83 -121 129c0 60 13 122 13 170c0 93 -74 115 -136 123c-3 7 4 35 8 38
c102 4 215 -39 216 -155c0 -24 -2 -47 -7 -100c-9 -107 -22 -174 119 -192c1 -7 -3 -32 -10 -38z" />
    <glyph glyph-name="asciitilde" unicode="~" horiz-adv-x="571" 
d="M209 314c29 0 56 -10 103 -31c30 -15 56 -27 82 -27c32 0 75 17 119 67c1 1 11 0 12 -3c0 -7 -3 -37 -7 -49c-20 -35 -82 -91 -153 -91c-27 0 -61 15 -104 38c-32 15 -56 21 -83 21c-40 0 -104 -48 -124 -70c-2 -2 -7 3 -8 6c0 14 9 50 12 53c27 36 106 86 151 86z" />
    <glyph glyph-name="exclamdown" unicode="&#xa1;" horiz-adv-x="303" 
d="M93 -199c-9 0 -23 4 -29 11c0 31 42 309 55 395c7 2 41 -3 45 -9c11 -77 53 -301 57 -349c2 -7 -7 -27 -17 -31c-24 -10 -90 -17 -111 -17zM136 277c-18 0 -36 5 -48 16c-18 17 -23 39 -23 57c0 13 8 36 21 51c14 14 36 20 57 20c14 0 33 -5 48 -19c14 -15 20 -33 20 -53
c0 -19 -9 -39 -24 -53c-14 -13 -33 -19 -51 -19z" />
    <glyph glyph-name="cent" unicode="&#xa2;" horiz-adv-x="504" 
d="M60 280c0 71 40 139 110 177c30 17 74 32 119 38l8 77c7 3 30 7 44 7l-9 -82c30 0 57 -4 81 -12c7 -3 31 -12 38 -28c1 -5 0 -14 -2 -19c-6 -12 -27 -38 -35 -43h-13c-16 16 -36 42 -71 53c-3 1 -4 -1 -5 -3l-26 -291c8 -1 16 -2 24 -2c37 0 83 16 121 47
c3 -3 5 -27 3 -35c-46 -57 -102 -80 -153 -89c-2 0 -4 -3 -5 -5l-8 -79c-10 -3 -32 -5 -43 -5l8 83c0 3 -2 5 -3 5c-55 6 -105 27 -139 68c-30 35 -44 80 -44 138zM256 164l28 285c0 3 -3 4 -4 4c-57 -5 -105 -55 -105 -141c0 -63 20 -125 81 -148z" />
    <glyph glyph-name="sterling" unicode="&#xa3;" horiz-adv-x="504" 
d="M320 -26c-34 0 -51 5 -108 23c-52 16 -83 24 -107 24c-16 0 -38 -5 -69 -37c-3 0 -14 6 -15 9c1 7 18 68 23 72c13 11 26 19 39 26c14 8 38 18 30 172c-17 0 -63 1 -74 2c0 1 -2 6 -1 7c0 7 8 31 12 36c9 0 35 -1 62 -1c-1 69 5 143 49 199c59 75 151 94 172 94
c61 0 89 -22 89 -31c-1 -23 -14 -58 -23 -72c-3 -3 -12 -3 -15 -1c-20 19 -56 55 -95 55c-15 0 -26 -7 -32 -20c-19 -36 -18 -123 -19 -218c0 -2 4 -6 6 -6c52 0 85 0 126 3c1 -3 0 -15 -3 -19c-9 -11 -23 -21 -38 -24c-19 -4 -62 -5 -88 -5c-3 0 -6 -2 -6 -5
c-9 -52 -28 -107 -89 -156c29 5 69 -1 105 -6c26 -4 64 -12 89 -12c57 0 81 8 114 93c1 2 8 2 10 1c3 -4 14 -19 15 -28c-34 -117 -104 -175 -159 -175z" />
    <glyph glyph-name="fraction" unicode="&#x2044;" horiz-adv-x="133" 
d="M242 632c2 2 35 0 40 -2c1 -1 1 -5 1 -7c-14 -21 -371 -641 -398 -684c-1 -2 -6 -4 -8 -2c-9 7 -20 22 -21 27c5 11 381 664 386 668z" />
    <glyph glyph-name="yen" unicode="&#xa5;" horiz-adv-x="504" 
d="M313 160c-2 0 -4 -3 -4 -5v-58c1 -31 4 -48 32 -54l54 -9c4 -4 0 -33 -3 -37c-37 0 -97 3 -151 3c-52 0 -89 -3 -140 -3c-4 4 -5 34 -1 37c26 3 42 5 57 8c25 7 30 23 31 51c1 18 1 34 1 63c0 1 -2 4 -4 4c-55 -1 -70 -2 -89 -2c0 12 4 37 7 41c15 0 19 -1 82 -1
c1 0 4 2 4 4v51c0 3 -4 7 -6 7c-48 -1 -67 -2 -81 -2c1 11 4 37 7 41c11 0 38 -1 71 -1c3 0 5 4 3 7c-16 39 -50 113 -85 178c-27 55 -41 61 -65 67c-17 4 -23 4 -32 5c-4 7 -3 31 2 36c29 0 73 -2 122 -2c55 0 105 1 121 2c4 -4 5 -32 1 -36c-9 -2 -23 -4 -29 -6
c-15 -5 -13 -16 -8 -29c19 -45 59 -136 74 -164c1 -2 4 -2 6 0c25 49 61 127 73 161c5 17 1 25 -15 29c-12 4 -24 6 -45 9c-1 7 1 33 5 36c19 0 49 -3 94 -3c50 0 74 3 96 3c4 -4 3 -32 0 -36c-11 -2 -22 -3 -32 -7c-28 -9 -43 -20 -67 -65c-33 -61 -69 -134 -88 -179
c-2 -3 0 -6 3 -6c51 0 78 1 88 1c1 -6 -3 -32 -5 -40c-19 0 -43 1 -84 1c-2 0 -4 -2 -4 -4v-53c0 -2 2 -5 4 -5c25 0 75 1 86 1c1 -7 -2 -32 -5 -40c-18 0 -42 1 -81 1z" />
    <glyph glyph-name="florin" unicode="&#x192;" horiz-adv-x="504" 
d="M183 289c0 3 -1 7 -4 7c-28 0 -59 1 -73 2c0 4 14 45 18 47c17 0 37 -1 60 -1c3 0 7 3 7 6c24 167 79 226 144 271c23 17 64 32 86 32c21 0 40 -2 53 -12c3 -1 6 -11 6 -14c-3 -16 -24 -66 -30 -73c-2 -3 -10 -4 -13 -1c-20 20 -52 42 -68 42c-14 0 -22 -9 -29 -28
c-8 -23 -22 -114 -32 -216c0 -3 2 -7 4 -7c39 0 75 1 97 3c1 -4 -8 -30 -11 -33c-11 -7 -30 -14 -51 -16c-14 -1 -28 -2 -40 -2c-3 0 -6 -5 -6 -7c-9 -65 -22 -164 -35 -237c-30 -177 -161 -229 -213 -229c-38 0 -58 11 -67 24c-2 3 -4 14 -3 16c3 12 21 61 28 70
c1 2 11 3 12 2c22 -24 53 -55 78 -55c17 0 29 11 40 86c12 76 24 186 42 323z" />
    <glyph glyph-name="section" unicode="&#xa7;" horiz-adv-x="490" 
d="M256 544c-15 0 -20 -10 -21 -22c0 -15 9 -40 15 -54c17 -37 54 -94 108 -178c54 -82 66 -136 66 -174c0 -42 -8 -87 -42 -140c-43 -74 -125 -121 -175 -121c-70 0 -108 27 -132 50c-9 9 -16 21 -16 29s10 42 19 56l7 3c49 -57 114 -74 132 -74c12 0 17 8 17 20
c0 19 -13 44 -23 59c-17 27 -48 71 -80 118c-64 94 -90 171 -90 227c0 84 29 142 71 190c33 38 95 74 143 74c58 0 98 -25 118 -43c10 -10 15 -21 15 -30c0 -14 -9 -37 -17 -49c-1 -1 -7 -2 -8 -2c-17 15 -83 61 -107 61zM286 -71c41 22 69 66 69 128c0 81 -35 137 -78 205
c-39 61 -95 137 -98 212c-2 21 4 49 11 68c-54 -10 -88 -74 -88 -135c0 -79 39 -150 80 -215c37 -55 111 -150 111 -212c1 -15 0 -33 -7 -51z" />
    <glyph glyph-name="currency" unicode="&#xa4;" horiz-adv-x="504" 
d="M269 473c29 0 60 -10 83 -25c2 -1 5 -1 6 0c23 25 38 43 50 51c4 2 47 6 55 5c2 -2 5 -8 4 -12c-29 -30 -54 -62 -72 -87c19 -28 27 -59 27 -101s-11 -79 -33 -110c-2 -4 -2 -7 0 -10c21 -26 53 -62 73 -82c1 -3 -2 -12 -4 -14c-14 -4 -60 -12 -67 -6
c-14 12 -49 43 -61 56c-28 -22 -62 -31 -96 -31s-71 13 -96 34c-23 -20 -58 -59 -71 -72c-3 -1 -11 1 -13 3c-4 10 -9 50 -4 56c20 26 34 36 50 54c2 2 0 7 0 7c-11 23 -21 50 -21 90c0 39 9 75 30 105c-15 17 -41 47 -52 62c-2 2 -3 7 -3 13c0 4 17 43 30 55
c1 1 11 2 13 -1c17 -22 42 -52 61 -72c2 -2 5 -2 9 0c30 23 77 32 102 32zM241 415c-63 0 -92 -53 -92 -114c0 -91 55 -131 113 -131c47 0 89 21 89 113c0 71 -44 132 -110 132z" />
    <glyph glyph-name="quotesingle" unicode="'" horiz-adv-x="200" 
d="M149 614c0 -64 -15 -163 -24 -182c-9 -22 -28 -36 -39 -44c-5 -1 -10 -2 -14 -1c-2 85 -11 207 -21 233c5 5 68 36 81 37c1 0 11 -1 11 -2c5 -6 6 -23 6 -41z" />
    <glyph glyph-name="quotedblleft" unicode="&#x201c;" horiz-adv-x="409" 
d="M118 552c0 -21 21 -41 55 -50c3 -2 6 -13 4 -18c-4 -14 -45 -55 -70 -55c-41 0 -70 40 -70 88c0 87 98 143 152 156c4 -2 13 -26 11 -31c-60 -24 -82 -57 -82 -90zM289 552c0 -21 22 -41 56 -50c2 -2 5 -13 4 -18c-4 -13 -47 -55 -71 -55c-41 0 -70 40 -70 88
c0 87 98 143 153 156c3 -2 12 -26 11 -31c-61 -24 -83 -58 -83 -90z" />
    <glyph glyph-name="guillemotleft" unicode="&#xab;" horiz-adv-x="682" 
d="M189 192c56 -33 141 -100 161 -125c5 -7 6 -40 5 -50c-1 -2 -5 -5 -8 -6c-30 30 -212 144 -273 166c1 6 7 28 9 31c95 42 234 133 274 167c2 -1 5 -4 6 -7c0 -13 -6 -45 -8 -48c-22 -26 -116 -92 -165 -122c-3 -2 -2 -6 -1 -6zM430 192c56 -34 144 -102 165 -127
c5 -7 6 -41 5 -50c-1 -2 -6 -6 -8 -6c-31 30 -216 145 -277 167c1 7 6 29 9 33c96 42 237 134 277 168c2 0 5 -4 6 -7c0 -12 -5 -45 -8 -48c-22 -27 -120 -93 -168 -124c-4 -2 -3 -6 -1 -6z" />
    <glyph glyph-name="guilsinglleft" unicode="&#x2039;" horiz-adv-x="462" 
d="M199 192c62 -33 158 -102 180 -127c5 -7 7 -40 6 -49c-1 -3 -7 -7 -9 -7c-34 30 -236 145 -302 167c1 9 7 29 11 33c102 42 252 134 296 168c2 0 6 -4 7 -7c0 -12 -6 -45 -9 -48c-24 -27 -127 -94 -178 -123c-4 -3 -3 -6 -2 -7z" />
    <glyph glyph-name="guilsinglright" unicode="&#x203a;" horiz-adv-x="464" 
d="M265 194c-61 33 -158 102 -180 127c-6 7 -7 40 -6 49c1 2 7 7 9 7c34 -30 235 -145 302 -168c-1 -6 -7 -28 -10 -32c-103 -43 -255 -134 -299 -168c-2 0 -6 5 -7 7c0 13 7 45 9 48c25 27 128 93 180 124c3 2 3 5 2 6z" />
    <glyph glyph-name="endash" unicode="&#x2013;" horiz-adv-x="500" 
d="M47 232c6 1 410 3 418 1v-9c-1 -11 -5 -51 -9 -52c-9 -2 -405 -2 -420 -1l-1 9c2 14 8 51 12 52z" />
    <glyph glyph-name="dagger" unicode="&#x2020;" horiz-adv-x="507" 
d="M190 542c13 1 66 11 99 23c2 -1 4 -2 6 -5c-10 -48 -16 -170 -17 -204c0 -2 3 -9 6 -9h52c46 0 100 1 118 6c1 -4 -1 -22 -3 -28c-4 -10 -17 -16 -33 -23c-12 -4 -45 -10 -84 -11c-21 -1 -35 -1 -52 -1c-1 0 -6 -8 -6 -9c-4 -93 -9 -319 -12 -393c0 -1 -5 -4 -8 -4
c-2 0 -33 9 -33 19c0 26 -12 375 -13 386h-18c-21 0 -147 -3 -155 3c4 17 16 50 22 64c16 -5 57 -9 104 -9h46c-3 82 -11 159 -19 195z" />
    <glyph glyph-name="daggerdbl" unicode="&#x2021;" horiz-adv-x="507" 
d="M216 176c0 25 -3 108 -5 137l-169 -4c-1 1 -4 7 -3 9c6 19 18 47 22 56c24 -7 94 -12 147 -10c-2 76 -10 161 -12 179c24 4 76 14 93 20c1 0 4 -1 6 -2c-5 -29 -12 -125 -14 -189c0 -4 2 -8 7 -7c102 0 152 2 165 5c1 -4 -1 -20 -4 -26c-15 -20 -58 -30 -103 -30
c-23 0 -48 0 -60 -1c-4 0 -7 -7 -7 -10c-1 -32 -4 -84 -4 -116c0 -5 3 -8 5 -8c110 0 142 1 158 6c2 -5 -1 -23 -3 -28c-7 -11 -37 -24 -71 -29c-25 -2 -65 -3 -84 -3c-3 0 -7 -5 -7 -7c-2 -57 -7 -215 -7 -222c-5 -5 -32 -13 -39 -11l-10 240c-41 0 -144 -3 -173 -4
c-2 1 -3 7 -3 9c7 17 24 49 29 56c18 -6 51 -11 146 -10z" />
    <glyph glyph-name="periodcentered" unicode="&#xb7;" horiz-adv-x="252" 
d="M127 270c17 0 38 -8 49 -19c20 -18 25 -42 25 -61c0 -14 -6 -38 -21 -53s-36 -22 -58 -22c-16 0 -35 7 -49 21c-15 15 -22 34 -22 56c0 20 8 41 23 56c14 13 35 22 53 22z" />
    <glyph glyph-name="paragraph" unicode="&#xb6;" horiz-adv-x="596" 
d="M542 574c-17 -2 -36 -3 -53 -8c-30 -8 -44 -10 -42 -198c1 -89 -1 -190 0 -279c0 -245 -114 -306 -185 -306c-32 0 -68 16 -79 38c-7 15 -13 53 -13 78c2 5 9 12 12 15c27 -20 78 -44 124 -44c70 0 82 69 78 264c-22 -10 -61 -21 -90 -22c-154 19 -248 114 -248 256
c0 146 123 212 228 228c88 13 219 14 268 17c4 -4 3 -33 0 -39zM272 367c0 -97 29 -180 111 -190c-1 52 -5 172 -5 243c0 64 3 113 13 134c-78 -7 -119 -56 -119 -187z" />
    <glyph glyph-name="bullet" unicode="&#x2022;" horiz-adv-x="425" 
d="M214 317c32 0 65 -10 88 -31c32 -30 37 -67 37 -98c0 -29 -10 -67 -35 -91c-25 -26 -59 -36 -95 -36c-26 0 -65 10 -88 33c-27 27 -35 58 -35 96c0 33 10 63 40 91c24 24 57 36 88 36z" />
    <glyph glyph-name="quotesinglbase" unicode="&#x201a;" horiz-adv-x="243" 
d="M2 -155c-1 1 -4 7 -3 9c49 42 90 92 90 149c0 24 -18 55 -32 79c8 14 63 60 79 67c5 2 19 2 23 -1c12 -9 26 -44 26 -83c0 -97 -89 -198 -148 -229c-6 -2 -27 4 -35 9z" />
    <glyph glyph-name="quotedblbase" unicode="&#x201e;" horiz-adv-x="419" 
d="M6 -155c-1 1 -4 7 -3 9c49 42 89 92 89 149c0 24 -17 55 -32 79c9 14 63 60 80 67c4 2 18 2 23 -1c11 -9 26 -45 26 -83c0 -95 -89 -198 -148 -229c-6 -2 -27 4 -35 9zM179 -155c-1 1 -3 7 -2 9c48 42 89 92 89 149c0 24 -18 55 -32 79c8 14 63 60 79 67c5 2 19 2 23 -1
c12 -9 26 -45 26 -83c0 -97 -89 -198 -148 -229c-6 -2 -27 4 -35 9z" />
    <glyph glyph-name="quotedblright" unicode="&#x201d;" horiz-adv-x="409" 
d="M291 551c0 21 -21 41 -55 50c-2 1 -6 13 -4 18c6 15 49 54 70 54c41 0 71 -39 71 -87c0 -88 -98 -143 -153 -157c-3 2 -12 26 -11 31c62 25 82 58 82 91zM120 551c0 21 -22 41 -56 50c-2 1 -5 13 -3 18c5 15 49 54 70 54c41 0 70 -39 70 -87c0 -87 -97 -143 -152 -157
c-4 2 -12 26 -11 31c61 25 82 58 82 91z" />
    <glyph glyph-name="guillemotright" unicode="&#xbb;" horiz-adv-x="682" 
d="M492 194c-55 33 -141 100 -161 125c-5 7 -5 40 -5 49c1 3 6 6 8 7c31 -30 214 -144 273 -166c-1 -6 -6 -28 -9 -32c-95 -41 -234 -132 -273 -166c-2 1 -6 4 -6 7c0 12 6 45 8 48c22 26 116 91 164 122c3 2 3 5 1 6zM252 194c-56 33 -145 102 -165 127c-6 7 -6 41 -5 50
c1 2 5 5 8 6c31 -30 217 -146 277 -168c-1 -6 -7 -28 -10 -32c-94 -42 -236 -134 -277 -168c-2 1 -5 4 -6 7c0 12 6 45 8 48c23 27 120 93 169 124c3 2 2 5 1 6z" />
    <glyph glyph-name="ellipsis" unicode="&#x2026;" horiz-adv-x="1000" 
d="M223 141c17 0 37 -9 49 -20c20 -17 24 -41 24 -59c0 -14 -6 -38 -20 -52c-15 -16 -36 -23 -58 -23c-15 0 -34 7 -48 21c-15 15 -22 34 -22 56c0 19 9 40 23 54c15 14 34 23 52 23zM500 141c18 0 38 -9 50 -20c19 -17 23 -41 23 -59c0 -14 -5 -38 -20 -52
c-15 -16 -36 -23 -57 -23c-16 0 -34 7 -49 21c-15 15 -21 34 -21 56c0 19 8 40 23 54c14 14 34 23 51 23zM779 141c17 0 38 -9 49 -20c20 -17 24 -41 24 -59c0 -14 -6 -38 -20 -52c-15 -16 -36 -23 -57 -23c-16 0 -35 7 -49 21c-15 14 -22 34 -22 56c0 19 9 40 24 54
c14 14 34 23 51 23z" />
    <glyph glyph-name="perthousand" unicode="&#x2030;" horiz-adv-x="1071" 
d="M905 346c82 0 125 -77 125 -151c0 -88 -34 -128 -59 -148c-38 -31 -74 -42 -113 -42c-78 0 -127 68 -127 152c0 68 20 109 53 141c27 26 74 48 121 48zM879 304c-44 0 -56 -64 -56 -116c0 -104 38 -139 69 -139c48 0 61 52 61 110c0 77 -22 145 -74 145zM142 7
c141 206 269 399 410 605c8 5 40 13 47 14c3 -1 7 -6 7 -9c-39 -49 -366 -542 -438 -641c-1 -1 -7 -2 -9 -1c-4 3 -17 26 -17 32zM567 346c82 0 126 -77 126 -151c0 -89 -34 -128 -59 -149c-38 -31 -73 -41 -113 -41c-77 0 -126 68 -126 152c0 70 19 109 52 141
c27 26 73 48 120 48zM542 305c-44 0 -55 -65 -55 -117c0 -104 37 -139 68 -139c48 0 61 52 61 110c0 77 -22 146 -74 146zM215 598c85 0 125 -77 125 -150c0 -86 -35 -129 -60 -149c-38 -31 -72 -42 -112 -42c-76 0 -126 65 -126 154c0 68 19 108 53 139c27 26 74 48 120 48
zM189 558c-44 0 -55 -66 -55 -118c0 -103 36 -139 69 -139c47 0 60 52 60 109c0 78 -20 148 -74 148z" />
    <glyph glyph-name="questiondown" unicode="&#xbf;" horiz-adv-x="368" 
d="M184 109c0 8 -10 31 -30 51c-2 3 0 12 3 15c7 8 54 30 63 31c7 1 18 1 24 -2c34 -13 53 -44 53 -67c0 -14 -6 -29 -12 -34c-18 -14 -92 -53 -116 -69c-18 -12 -24 -24 -24 -39c0 -47 61 -79 124 -93l28 -5c9 -2 13 -14 13 -19c0 -11 -20 -58 -37 -71
c-5 -4 -20 -10 -33 -10c-47 0 -97 21 -130 46c-45 34 -64 76 -64 111c0 29 11 55 20 64c20 20 71 46 102 66c9 6 16 16 16 25zM200 275c-17 0 -35 6 -47 16c-19 18 -24 39 -24 57c0 13 8 36 21 51c14 14 36 20 57 20c14 0 34 -5 49 -19c13 -15 19 -33 19 -53
c0 -19 -8 -38 -23 -53c-15 -12 -34 -19 -52 -19z" />
    <glyph glyph-name="grave" unicode="`" horiz-adv-x="400" 
d="M185 617c8 -17 43 -122 53 -158c-2 -5 -28 -17 -33 -16c-23 24 -101 120 -120 149c-1 3 1 12 4 14c12 5 85 14 96 11z" />
    <glyph glyph-name="acute" unicode="&#xb4;" horiz-adv-x="400" 
d="M220 616c12 5 85 10 96 6c2 -1 5 -11 5 -15c-14 -25 -108 -140 -131 -163c-4 -2 -29 13 -31 18c17 45 51 134 61 154z" />
    <glyph glyph-name="circumflex" unicode="&#x2c6;" horiz-adv-x="400" 
d="M194 540c-20 -34 -47 -76 -57 -82c-9 -5 -36 -10 -46 -9c-3 1 -4 6 -4 8c20 28 78 123 94 160c2 4 35 14 40 13c18 -43 77 -142 94 -165c-3 -6 -40 -19 -52 -19c-9 2 -42 56 -64 94c-1 1 -4 1 -5 0z" />
    <glyph glyph-name="tilde" unicode="&#x2dc;" horiz-adv-x="400" 
d="M265 544c13 0 40 4 71 34c1 1 5 -1 6 -5c2 -8 -2 -27 -3 -31c-14 -26 -59 -64 -100 -64c-17 0 -34 6 -69 18c-11 4 -25 8 -39 8c-20 0 -44 -14 -65 -33c-1 -1 -6 2 -7 5c-2 7 2 29 5 32c10 19 60 62 90 62c18 0 36 -5 61 -14c18 -6 39 -12 50 -12z" />
    <glyph glyph-name="macron" unicode="&#xaf;" horiz-adv-x="400" 
d="M98 560c8 -1 21 -2 47 -2c74 0 169 -1 175 0c0 -14 -13 -63 -17 -64c-14 -3 -110 -3 -188 -3c-21 0 -32 1 -35 2c1 12 16 64 18 67z" />
    <glyph glyph-name="breve" unicode="&#x2d8;" horiz-adv-x="400" 
d="M211 527c32 0 59 10 86 52c2 4 24 17 28 17c3 0 8 -4 8 -7c-14 -68 -67 -127 -146 -127c-61 0 -110 36 -110 87c0 15 23 38 39 48c2 1 12 1 12 -2c9 -45 38 -68 83 -68z" />
    <glyph glyph-name="dotaccent" unicode="&#x2d9;" horiz-adv-x="400" 
d="M264 546c0 -27 -12 -44 -27 -57c-8 -7 -56 -11 -66 -5c-16 8 -26 22 -33 44c-1 6 -2 36 5 44c15 15 46 23 70 23c23 0 38 -8 42 -13c7 -9 9 -27 9 -36z" />
    <glyph glyph-name="dieresis" unicode="&#xa8;" horiz-adv-x="400" 
d="M164 545c0 -24 -10 -39 -23 -52c-7 -6 -48 -9 -57 -4c-14 7 -23 19 -28 40c-1 6 -2 32 4 40c12 11 38 20 60 20c19 0 33 -7 37 -11c5 -8 7 -25 7 -33zM344 545c0 -24 -10 -39 -24 -52c-6 -6 -48 -9 -56 -4c-14 7 -23 19 -29 40c0 6 -1 32 5 39c11 12 38 21 59 21
c20 0 33 -7 37 -11c6 -8 8 -25 8 -33z" />
    <glyph glyph-name="ring" unicode="&#x2da;" horiz-adv-x="400" 
d="M204 621c52 0 80 -37 80 -82c0 -52 -37 -85 -84 -85c-32 0 -80 21 -80 82c0 49 32 85 84 85zM201 577c-29 0 -44 -16 -44 -40c0 -23 22 -38 47 -38c22 0 43 15 43 36c0 25 -13 42 -46 42z" />
    <glyph glyph-name="cedilla" unicode="&#xb8;" horiz-adv-x="398" 
d="M209 5l37 -1l-32 -41c13 -7 31 -17 45 -29c16 -14 24 -32 24 -52c0 -64 -84 -101 -115 -101c-28 0 -49 13 -59 29c-2 7 2 26 4 29c21 -11 41 -16 62 -16c24 0 39 12 39 30s-12 39 -72 58c0 0 -1 6 1 10c1 2 53 70 66 84z" />
    <glyph glyph-name="hungarumlaut" unicode="&#x2dd;" horiz-adv-x="400" 
d="M143 611c10 3 68 8 79 5c2 -2 4 -11 2 -14c-13 -27 -72 -123 -91 -151c-5 -1 -29 4 -31 9c10 42 33 126 41 151zM282 623c10 3 66 7 77 2c2 -2 3 -9 2 -13c-13 -27 -73 -128 -93 -155c-5 -1 -29 3 -31 8c12 43 36 134 45 158z" />
    <glyph glyph-name="ogonek" unicode="&#x2db;" horiz-adv-x="400" 
d="M224 4h42c-54 -49 -74 -85 -74 -113s20 -40 42 -40c17 0 35 5 49 14c3 -6 0 -31 -1 -34c-25 -35 -71 -48 -97 -48c-34 0 -79 20 -79 77c0 55 73 112 118 144z" />
    <glyph glyph-name="caron" unicode="&#x2c7;" horiz-adv-x="400" 
d="M208 535c20 34 48 76 57 82c10 5 36 10 47 9c2 -1 4 -6 3 -8c-19 -28 -77 -123 -93 -160c-2 -4 -36 -14 -40 -13c-19 43 -78 142 -95 165c3 6 40 19 52 19c9 -2 43 -56 64 -94c1 -2 4 -1 5 0z" />
    <glyph glyph-name="emdash" unicode="&#x2014;" horiz-adv-x="1000" 
d="M53 232c7 1 898 3 906 1v-9c-1 -11 -5 -51 -9 -52c-9 -2 -893 -2 -908 -1l-1 8c2 14 9 52 12 53z" />
    <glyph glyph-name="AE" unicode="&#xc6;" horiz-adv-x="876" 
d="M234 574c-5 7 -1 35 2 37c38 0 142 -3 204 -3h220c39 0 95 1 128 6l4 -4c-7 -30 -12 -97 -16 -152c-5 -5 -35 -6 -41 -1c-5 31 -10 51 -17 68c-9 23 -25 29 -43 31c-25 2 -128 2 -149 0c-6 0 -9 -13 -9 -18c5 -66 11 -150 18 -214c0 -3 4 -7 7 -7c34 0 92 -1 125 2
c19 1 28 8 35 31l10 40c6 3 38 2 44 -3c-2 -23 -6 -64 -6 -99c0 -34 1 -74 2 -97c-9 -3 -36 -6 -44 -1c-5 26 -7 31 -11 43c-5 15 -14 25 -33 27c-22 2 -82 2 -117 2c-2 0 -6 -6 -6 -8c5 -58 10 -112 15 -157c2 -23 11 -41 24 -43c19 -3 67 -4 118 -3c34 0 53 4 74 33
c15 22 36 57 51 89c7 1 35 -8 39 -14c-4 -27 -25 -108 -40 -141c-10 -21 -28 -22 -60 -22c-69 1 -119 4 -256 4c-58 0 -133 -4 -183 -4c-4 8 -5 32 -2 38c31 4 63 8 78 12c18 5 28 17 27 50c-1 34 -5 81 -11 156c-1 3 -4 6 -5 6c-17 2 -65 1 -97 1c-47 0 -55 0 -69 -1
c-4 0 -9 -5 -11 -9c-23 -46 -76 -150 -78 -171c-1 -17 2 -28 27 -35l52 -9c2 -5 1 -31 -2 -38c-37 0 -84 4 -136 4c-44 0 -87 -4 -115 -4c-3 6 -3 32 1 38c71 11 85 19 121 84c82 144 184 347 226 432c1 3 0 8 -4 10c-30 5 -73 12 -91 14zM391 552c-2 2 -7 3 -9 2
c-25 -55 -88 -178 -111 -229c-1 -2 0 -7 4 -8c10 -1 20 -1 50 -1c26 0 62 0 78 1c4 0 6 1 6 5c-5 71 -14 198 -18 230z" />
    <glyph glyph-name="ordfeminine" unicode="&#xaa;" horiz-adv-x="321" 
d="M320 273c1 -5 -3 -31 -7 -36c-18 -18 -58 -29 -82 -29s-41 11 -46 24c-2 4 -3 9 -4 14c0 1 -4 1 -4 1c-36 -24 -70 -38 -84 -38c-16 0 -31 6 -43 18c-16 16 -26 40 -26 67c0 11 7 36 12 43c24 13 115 33 141 47c2 1 5 4 5 7c1 4 1 9 1 12c0 13 -1 27 -10 39
c-13 18 -32 23 -49 23c-16 0 -26 -4 -31 -9c-6 -7 -19 -31 -25 -43c-2 -2 -34 8 -33 13c0 7 11 43 17 47c35 26 87 44 109 44c37 0 72 -19 89 -44c14 -22 19 -46 19 -73c0 -34 -3 -73 -3 -103c0 -14 6 -28 25 -28c9 0 17 1 29 4zM182 353c0 1 -2 4 -4 3
c-19 -7 -50 -20 -60 -28c-3 -2 -8 -12 -8 -19c0 -29 19 -42 43 -42c7 0 15 2 20 6c4 2 6 6 7 13c1 22 2 52 2 67z" />
    <glyph glyph-name="Lslash" unicode="&#x141;" horiz-adv-x="574" 
d="M21 34c32 4 43 5 63 10c20 6 26 17 29 39c1 18 2 86 3 164c-23 -10 -52 -21 -69 -28c-3 2 -7 40 -6 44c16 7 50 20 75 30v23c0 113 1 169 -1 203c-1 27 -7 40 -30 46c-13 4 -36 7 -56 10c-4 6 -2 33 3 36c40 0 70 -3 148 -3c73 0 110 2 143 3c5 -5 4 -31 0 -36
c-26 -4 -39 -7 -50 -10c-23 -7 -27 -17 -28 -41c-1 -22 -2 -84 -2 -181c52 21 104 43 145 59c3 -2 6 -39 5 -44l-150 -60c0 -96 1 -183 3 -210c1 -18 13 -28 20 -30c24 -7 93 -7 140 -7c20 0 39 8 58 36s46 77 63 118c7 2 36 -8 39 -15c-4 -32 -37 -143 -60 -181
c-3 -8 -14 -14 -51 -14c-78 0 -210 5 -281 5c-73 0 -125 -3 -153 -3c-5 6 -5 33 0 37z" />
    <glyph glyph-name="Oslash" unicode="&#xd8;" horiz-adv-x="760" 
d="M203 23l-44 -61c-1 -2 -35 6 -41 9l-1 4l51 72c-72 56 -115 148 -115 259c0 79 24 161 90 221c56 59 146 99 248 99c67 0 117 -14 161 -36l38 54c2 3 32 -3 41 -5l1 -6l-46 -65c84 -59 121 -158 121 -253c0 -79 -20 -150 -62 -205c-65 -87 -165 -128 -267 -128
c-77 0 -132 17 -175 41zM236 143l264 373c-29 36 -72 64 -138 64c-29 0 -58 -8 -79 -22c-61 -41 -90 -127 -90 -223c0 -67 12 -135 43 -192zM523 477l-264 -373c38 -50 90 -73 151 -73c31 0 66 11 88 31c51 45 70 130 70 218c0 75 -12 146 -45 197z" />
    <glyph glyph-name="OE" unicode="&#x152;" horiz-adv-x="1027" 
d="M911 -4c-69 1 -368 4 -386 4c-8 0 -33 -3 -39 -4c-36 -10 -70 -14 -108 -14c-106 0 -184 34 -238 90c-62 65 -87 153 -87 234c0 79 21 157 90 221c56 60 146 99 249 99c31 0 63 -4 90 -9c12 -3 32 -6 60 -9h282c45 0 97 1 126 6l4 -4c-8 -31 -12 -96 -15 -151
c-5 -5 -35 -6 -41 -2c-5 32 -10 51 -16 67c-10 23 -25 29 -46 31c-25 3 -202 4 -225 3c-2 -1 -5 -5 -3 -6c53 -46 91 -117 95 -210c0 -3 3 -7 6 -7c35 0 83 0 116 2c19 1 27 10 33 31c4 12 7 27 10 41c6 3 38 1 44 -4c-2 -23 -6 -67 -6 -99c0 -34 1 -76 2 -99
c-8 -4 -36 -6 -43 -1c-6 26 -6 30 -10 43c-6 16 -15 25 -33 27c-21 2 -95 2 -116 2c-2 0 -4 -3 -4 -7c-5 -73 -37 -151 -97 -204c-3 -3 -2 -9 3 -10c54 -4 189 -6 235 -6c36 0 56 4 76 34c16 22 36 55 50 89c8 1 36 -9 40 -15c-4 -24 -22 -93 -35 -129
c-12 -36 -18 -34 -63 -34zM411 31c31 0 62 10 84 30c50 45 68 133 68 220c0 105 -28 208 -96 262c-31 24 -64 37 -108 37c-31 0 -55 -8 -76 -22c-61 -41 -86 -125 -86 -223c0 -95 32 -210 107 -269c30 -22 63 -35 107 -35z" />
    <glyph glyph-name="ordmasculine" unicode="&#xba;" horiz-adv-x="388" 
d="M201 517c101 0 158 -67 158 -150c0 -59 -26 -106 -68 -132c-23 -14 -63 -26 -100 -26c-111 0 -162 70 -162 155c0 56 25 98 65 123c29 18 71 30 107 30zM184 480c-30 0 -54 -32 -54 -97c0 -94 33 -137 75 -137c37 0 54 38 54 100c0 86 -29 134 -75 134z" />
    <glyph glyph-name="ae" unicode="&#xe6;" horiz-adv-x="654" 
d="M144 -11c-22 0 -52 11 -69 26c-22 22 -36 56 -36 93c0 16 9 48 16 57c32 19 159 47 194 58c4 2 6 7 7 10c1 6 1 18 1 23c0 18 -6 44 -17 60c-19 26 -46 35 -70 35c-22 0 -39 -7 -45 -13c-10 -9 -27 -48 -35 -66c-3 -3 -40 10 -39 17c1 10 15 60 22 66
c49 35 118 61 148 61c49 0 82 -20 106 -50c1 -1 4 -2 6 0c44 31 97 50 130 50c103 0 132 -86 139 -119c2 -6 11 -14 18 -16c-1 -5 -5 -20 -8 -24c-16 -6 -186 -42 -242 -53c-3 -1 -5 -7 -5 -10c2 -33 16 -63 40 -87c24 -23 55 -36 93 -36c44 0 82 15 121 45
c3 -5 4 -31 2 -37c-42 -53 -117 -91 -180 -91c-56 0 -108 16 -146 67c-2 2 -4 2 -7 0c-42 -30 -92 -66 -144 -66zM256 180c0 2 -4 6 -5 5c-30 -8 -80 -19 -96 -28c-3 -2 -8 -17 -8 -27c0 -42 29 -66 65 -66c15 0 36 4 59 21c3 2 6 5 4 10c-12 27 -19 60 -19 85zM423 371
c-39 0 -67 -48 -63 -122c0 -2 3 -8 7 -7c33 6 101 20 126 26c3 2 6 6 7 10c-5 42 -33 93 -77 93z" />
    <glyph glyph-name="dotlessi" unicode="&#x131;" horiz-adv-x="269" 
d="M256 34c4 -5 1 -32 -5 -37c-18 0 -53 3 -118 3c-52 0 -90 -3 -112 -3c-3 5 -4 32 0 37c18 3 29 5 40 9c14 4 16 13 17 37c1 23 1 83 1 133v91c0 8 -2 18 -8 24c-7 8 -18 14 -45 24c-3 6 0 28 4 32c25 1 118 14 166 33c0 -47 -1 -114 -1 -172c0 -52 0 -117 1 -163
c0 -25 6 -35 19 -39c10 -3 20 -6 41 -9z" />
    <glyph glyph-name="lslash" unicode="&#x142;" horiz-adv-x="275" 
d="M270 394l-70 -35c0 -119 -1 -238 2 -276c2 -26 4 -34 23 -40c12 -4 24 -6 42 -9c3 -6 -1 -30 -5 -37c-21 0 -55 3 -127 3c-42 0 -81 -3 -110 -3c-3 6 -4 31 -1 37c19 2 31 5 43 10c12 6 15 21 16 43c1 23 1 202 1 220l-61 -28c-3 3 -6 37 0 40l62 28c0 114 0 169 -3 213
c0 10 -4 22 -15 26c-8 4 -29 7 -48 9c-5 5 -2 28 1 32c52 6 149 24 184 39c1 -1 7 -12 7 -15c-7 -17 -9 -42 -10 -82v-168l65 31c3 -4 6 -35 4 -38z" />
    <glyph glyph-name="oslash" unicode="&#xf8;" horiz-adv-x="520" 
d="M269 416c35 0 66 -6 93 -17l30 44c3 1 27 -18 28 -21l-26 -40c57 -38 87 -101 87 -174c0 -82 -35 -145 -92 -181c-32 -20 -87 -39 -134 -39c-42 0 -77 8 -107 21l-29 -45c-3 0 -28 17 -29 21l28 43c-55 40 -78 105 -78 177c0 76 35 135 89 170c35 23 86 41 140 41z
M276 31c60 0 83 58 83 148c0 46 -7 83 -21 118l-141 -215c17 -29 41 -51 79 -51zM243 372c-57 0 -83 -52 -83 -138c0 -40 5 -82 19 -114l139 212c-16 25 -41 40 -75 40z" />
    <glyph glyph-name="oe" unicode="&#x153;" horiz-adv-x="769" 
d="M244 372c-11 0 -25 -4 -34 -10c-26 -17 -45 -49 -45 -128c0 -136 54 -200 114 -200c14 0 32 4 42 13c22 18 38 52 38 134c0 116 -45 191 -115 191zM417 47c-1 1 -4 1 -6 0c-44 -38 -96 -59 -154 -59c-155 0 -218 101 -218 217c0 76 35 134 89 169c35 23 86 42 140 42
c58 -1 105 -17 147 -57c3 -2 7 -2 10 1c38 31 92 56 144 56c104 0 140 -87 146 -122c2 -6 11 -14 18 -16c-1 -5 -6 -22 -8 -26c-15 -5 -177 -25 -242 -32c-3 -1 -7 -7 -7 -11c3 -38 17 -76 42 -99c24 -23 55 -37 99 -37c43 0 79 13 118 43c3 -5 4 -32 1 -37
c-43 -53 -121 -91 -184 -91c-59 0 -104 26 -135 59zM538 375c-38 0 -66 -49 -65 -110c0 -2 3 -7 7 -6c34 3 99 9 124 15c4 1 6 6 7 10c-5 39 -30 91 -73 91z" />
    <glyph glyph-name="germandbls" unicode="&#xdf;" horiz-adv-x="531" 
d="M80 342l-58 4c0 10 6 33 9 37c22 4 41 12 50 19c0 111 47 178 102 219c37 28 85 45 125 45c96 0 154 -67 154 -147c0 -34 -13 -55 -16 -60c-22 -28 -47 -51 -69 -74c-7 -7 -13 -16 -13 -24c0 -13 48 -48 83 -80c30 -27 52 -66 52 -107c0 -100 -77 -151 -115 -171
c-28 -13 -48 -15 -64 -15c-21 0 -45 7 -54 18c-3 11 -3 44 1 65c0 4 7 9 9 9c22 -17 53 -36 82 -36c36 0 51 23 51 56s-19 62 -58 97c-37 33 -68 55 -87 77c-6 7 0 51 8 60c12 11 24 22 35 34c50 46 67 80 67 132c0 54 -37 121 -97 121c-62 0 -84 -81 -83 -266
c0 -88 0 -202 2 -280c1 -16 7 -26 22 -32c8 -3 19 -7 32 -9c4 -6 1 -32 -2 -37c-25 0 -70 3 -116 3c-47 0 -78 -3 -112 -3c-4 8 -4 27 0 37c15 2 27 5 35 7c22 6 25 14 25 36v265z" />
    <glyph glyph-name="logicalnot" unicode="&#xac;" horiz-adv-x="571" 
d="M88 282c-33 0 -36 3 -36 6c2 10 13 57 17 64c12 -2 83 -2 198 -2c159 0 217 1 225 1c2 0 6 -4 6 -7c0 -22 -1 -132 -1 -197c0 -48 1 -82 2 -95c-16 -5 -56 -11 -65 -11c-2 0 -7 5 -7 8c-1 48 -2 182 -2 204c0 7 -2 29 -15 29h-322z" />
    <glyph glyph-name="mu" unicode="&#xb5;" horiz-adv-x="490" 
d="M62 382c9 11 76 31 101 33c5 0 14 -1 18 -3c-1 -44 -9 -217 -9 -265c0 -11 1 -24 4 -32c7 -20 23 -31 44 -31c37 0 72 33 87 87c1 6 5 28 5 45c0 0 1 127 0 169c8 10 75 28 100 29c6 0 13 -1 17 -2c-8 -49 -15 -162 -15 -202v-58c0 -54 10 -67 29 -67c17 0 29 6 46 15
c2 -1 3 -24 2 -31c-23 -50 -78 -82 -113 -82c-36 0 -63 17 -64 111c0 1 -4 1 -5 0c-44 -87 -99 -111 -123 -111c-18 0 -37 7 -48 23c-1 -20 -3 -56 -1 -88c4 -67 42 -93 111 -110c1 -3 -4 -26 -8 -30c-16 -16 -68 -34 -99 -34c-28 0 -59 17 -66 124c-4 65 -4 142 -6 238
c-1 75 -4 185 -7 272z" />
    <glyph glyph-name="trademark" unicode="&#x2122;" horiz-adv-x="535" 
d="M280 562c0 8 2 12 -35 17c-1 3 -1 21 2 22h95l6 -20c9 -20 25 -56 35 -74c11 20 23 44 38 74l6 20h91c2 -1 2 -19 0 -22c-31 -2 -32 -10 -32 -21v-88c0 -14 9 -16 31 -20c3 -1 2 -22 0 -23c-14 0 -49 2 -64 2c-17 0 -33 -2 -49 -2c-2 2 -2 22 0 23c22 4 26 7 26 20l2 86
c-13 -26 -43 -92 -58 -127h-20c-10 28 -33 91 -49 124c-2 -19 -4 -59 -4 -83c0 -10 3 -16 29 -20c1 -2 1 -21 -1 -23c-12 0 -30 2 -45 2s-31 -2 -44 -2c-2 1 -2 20 0 23c27 4 31 7 34 21c2 21 6 72 6 91zM154 476c0 -21 5 -23 41 -27c1 -3 0 -21 -2 -22c-9 0 -46 2 -66 2
c-19 0 -59 -2 -65 -2c-1 2 -1 18 0 20c35 5 36 10 37 25c2 27 1 65 2 105h-30c-8 0 -17 -12 -27 -39c-3 -1 -18 2 -19 5l10 63c8 -4 31 -5 40 -5h110c13 0 28 1 45 3c-3 -20 -7 -41 -9 -63c-1 -1 -19 -2 -20 0c-3 30 -7 36 -17 36h-31c0 -37 0 -74 1 -101z" />
    <glyph glyph-name="Eth" unicode="&#xd0;" horiz-adv-x="730" 
d="M27 575c-4 5 -1 31 3 36c20 0 114 -3 143 -3c73 1 105 3 190 3c89 0 159 -20 213 -64c65 -54 101 -136 101 -228c0 -119 -51 -198 -111 -247c-74 -59 -163 -79 -270 -79c-59 0 -145 3 -236 4h-42c-4 7 -5 35 0 37c28 2 43 5 62 10c21 5 31 18 34 47c2 34 2 117 2 206
c-42 -1 -69 -2 -83 -2c0 11 4 38 7 42h76c0 82 0 142 -2 182c-2 28 -8 38 -32 45c-12 4 -36 8 -55 11zM247 99c0 -10 7 -26 17 -35c21 -19 65 -25 89 -25c45 0 85 15 122 56c38 46 64 105 64 208c0 93 -35 181 -105 229c-39 27 -90 37 -142 37c-15 0 -32 -2 -38 -5
c-4 -2 -8 -9 -8 -14c-2 -29 -2 -132 -2 -214c75 1 147 2 158 2c2 -7 -2 -35 -5 -42c-52 0 -104 1 -153 1c0 -91 0 -173 3 -198z" />
    <glyph glyph-name="onehalf" unicode="&#xbd;" horiz-adv-x="830" 
d="M285 247c2 -2 1 -30 -3 -33c-34 0 -70 3 -121 3c-53 0 -77 -3 -109 -3c-3 4 -3 29 0 32c16 3 29 4 41 6c21 4 25 18 26 39c1 27 2 63 2 114c0 53 -1 93 -2 109c-1 10 -6 19 -17 21c-8 2 -29 3 -41 5c-3 3 -1 29 2 31c47 4 121 19 150 31c3 1 11 -1 11 -3
c-4 -23 -4 -62 -4 -118c0 -46 -1 -144 1 -187c2 -23 5 -36 22 -40c16 -4 30 -5 42 -7zM579 632c2 2 35 0 40 -2c1 -1 1 -5 1 -7c-14 -21 -371 -641 -398 -684c-1 -2 -6 -4 -8 -2c-9 7 -20 22 -21 27c5 11 381 664 386 668zM585 299c-29 0 -55 -14 -84 -43
c-4 -1 -18 22 -18 25c33 54 88 93 143 93c67 0 118 -50 118 -117c0 -44 -19 -77 -68 -123c-31 -30 -55 -46 -71 -60c0 -2 -2 -5 2 -6c19 -2 70 -3 106 -3c14 1 34 18 54 58c3 2 26 -7 29 -11c-6 -21 -26 -92 -38 -108c-4 -8 -20 -15 -36 -16c-49 -1 -131 3 -190 3
c-13 0 -30 -1 -43 -1c-1 6 -1 21 -1 28c45 33 79 60 119 105c31 38 44 69 44 105c0 37 -21 71 -66 71z" />
    <glyph glyph-name="plusminus" unicode="&#xb1;" horiz-adv-x="571" 
d="M525 369c-1 -6 -10 -54 -17 -55c-12 -1 -117 0 -186 -2c-4 0 -7 -6 -7 -8c-1 -63 1 -167 -1 -175c-1 -7 -46 -18 -58 -21c-1 0 -8 2 -8 5c-1 14 0 99 -1 199h-198c-2 0 -3 7 -3 10c1 8 10 54 13 60c10 -3 59 -2 120 -2h68v66c0 56 -1 100 -2 115c11 4 59 13 65 13
c3 0 5 -2 5 -36c0 -30 1 -84 0 -148c0 -4 3 -10 6 -10h201c2 -1 3 -7 3 -11zM509 5l-461 -3c-1 0 -2 8 -2 11c1 14 10 53 13 60c10 -3 58 -2 119 -2h344c2 0 3 -9 3 -10c-1 -10 -9 -55 -16 -56z" />
    <glyph glyph-name="Thorn" unicode="&#xde;" horiz-adv-x="591" 
d="M31 34c22 3 37 4 53 8c24 8 29 27 30 56c1 37 2 106 2 220c0 90 0 167 -2 196c-2 31 -7 46 -34 53c-13 3 -29 5 -50 8c-3 7 0 32 3 36c24 0 73 -3 144 -3c62 0 108 3 146 3c2 -6 2 -29 0 -37c-23 -4 -39 -5 -54 -9c-22 -7 -24 -18 -25 -45v-35c1 -3 4 -5 5 -5
c37 1 63 2 106 2c41 0 100 -6 140 -36c36 -27 59 -67 59 -130c0 -81 -42 -130 -90 -156c-36 -20 -85 -29 -129 -29c-22 0 -37 1 -49 4c-4 2 -7 19 -8 25c0 6 0 11 1 15c7 -1 16 -2 30 -2c20 0 44 4 60 13c36 21 50 53 50 113c0 94 -49 138 -133 138c-7 0 -27 0 -35 -5
c-2 -1 -7 -7 -7 -13c-1 -31 -1 -57 -1 -186c0 -51 1 -89 3 -141c1 -21 5 -41 32 -48c19 -5 35 -6 62 -10c4 -7 2 -30 -1 -37c-43 0 -97 3 -148 3s-125 -3 -160 -3c-4 7 -4 32 0 37z" />
    <glyph glyph-name="onequarter" unicode="&#xbc;" horiz-adv-x="830" 
d="M769 95c-18 0 -36 1 -61 1c-1 0 -3 -2 -3 -4l1 -112c-26 0 -81 -4 -98 -7l1 119c0 2 -1 4 -2 4h-157c-1 3 2 27 4 31c44 60 162 214 184 242c10 3 56 7 65 6c0 -58 0 -165 1 -223c0 -1 1 -4 3 -4c27 0 55 1 71 2c-2 -12 -8 -43 -9 -55zM295 247c2 -2 1 -30 -3 -33
c-34 0 -70 3 -121 3c-53 0 -77 -3 -109 -3c-3 4 -3 29 0 32c16 3 29 4 41 6c21 4 25 18 26 39c1 27 2 63 2 114c0 53 -1 93 -2 109c-1 10 -6 19 -17 21c-8 2 -29 3 -41 5c-3 3 -1 29 2 31c47 4 121 19 150 31c3 1 11 -1 11 -3c-4 -23 -4 -62 -4 -118c0 -46 -1 -144 1 -187
c2 -23 5 -36 22 -40c16 -4 30 -5 42 -7zM594 632c2 2 35 0 40 -2c1 -1 1 -5 1 -7c-14 -21 -371 -641 -398 -684c-1 -2 -6 -4 -8 -2c-9 7 -20 22 -21 27c5 11 381 664 386 668zM515 148c23 -1 53 -1 92 -1c1 0 2 3 2 4l3 134h-3c-15 -18 -75 -101 -95 -134c0 0 0 -3 1 -3z
" />
    <glyph glyph-name="divide" unicode="&#xf7;" horiz-adv-x="569" 
d="M340 424c0 -28 -12 -47 -29 -65c-4 -4 -48 -13 -60 -3c-20 16 -24 38 -25 48c-1 5 6 35 9 38c11 9 42 18 59 18c18 0 34 -4 38 -9c3 -5 8 -19 8 -27zM507 212l-460 -2c-2 0 -4 7 -4 10c2 13 13 53 16 60c10 -3 58 -2 119 -2h345c2 0 3 -10 3 -11c-1 -6 -12 -54 -19 -55z
M340 106c0 -28 -3 -42 -21 -59c-4 -4 -51 -15 -64 -5c-19 15 -28 38 -29 48c-1 6 6 34 9 37c11 10 42 18 59 18c18 0 34 -4 38 -9c3 -5 8 -22 8 -30z" />
    <glyph glyph-name="brokenbar" unicode="&#xa6;" horiz-adv-x="308" 
d="M113 631h82v-348h-82v348zM113 127h82v-355h-82v355z" />
    <glyph glyph-name="degree" unicode="&#xb0;" horiz-adv-x="305" 
d="M152 607c76 0 116 -54 116 -122c0 -69 -56 -118 -119 -118c-67 0 -120 44 -120 115c0 83 58 125 123 125zM147 555c-38 0 -67 -29 -67 -65c0 -51 37 -71 71 -71c35 0 67 17 67 65c0 35 -24 71 -71 71z" />
    <glyph glyph-name="thorn" unicode="&#xfe;" horiz-adv-x="517" 
d="M-5 -198c18 3 35 8 47 12c17 6 24 21 24 48c2 32 3 106 3 399c-1 157 0 267 -4 300c-2 15 -6 24 -24 28c-10 3 -27 5 -43 8c-2 4 0 30 3 34c55 3 148 20 190 35c3 -2 7 -13 6 -17c-7 -12 -13 -28 -13 -148v-125c1 -3 3 -4 5 -3c44 22 95 43 129 43c51 0 87 -21 112 -50
c35 -38 48 -92 48 -133c0 -82 -38 -144 -91 -185c-35 -27 -116 -56 -166 -60c-7 0 -26 1 -37 2c0 -33 0 -100 2 -127c1 -25 9 -36 29 -40c13 -3 39 -7 60 -10c2 -7 -2 -31 -5 -37h-31c-101 1 -163 -4 -242 -12c-3 6 -5 32 -2 38zM239 347c-16 0 -37 -4 -47 -10
c-3 -2 -6 -10 -7 -16c-1 -45 -1 -173 0 -216c1 -17 8 -31 16 -39c20 -19 48 -24 66 -24c25 0 45 9 62 30c18 23 31 64 31 111c0 56 -13 92 -32 118c-25 36 -56 46 -89 46z" />
    <glyph glyph-name="threequarters" unicode="&#xbe;" horiz-adv-x="830" 
d="M772 95c-18 0 -36 1 -61 1c-1 0 -3 -2 -3 -4l1 -112c-26 0 -81 -4 -98 -7l1 119c0 2 -1 4 -2 4h-157c-1 3 2 27 4 31c44 60 162 214 184 242c10 3 56 7 65 6c0 -58 0 -165 1 -223c0 -1 1 -4 3 -4c27 0 55 1 71 2c-2 -12 -8 -43 -9 -55zM199 601c64 0 104 -41 104 -90
c0 -36 -24 -57 -57 -78c-2 0 -2 -1 -1 -2c55 -17 93 -48 93 -100c0 -44 -29 -81 -71 -106c-34 -20 -73 -31 -111 -31c-29 0 -50 4 -64 12c-9 5 -15 11 -21 22c-6 13 -14 43 -16 58c1 6 20 15 25 14c11 -21 29 -43 48 -54c17 -9 32 -14 55 -14c35 0 62 19 62 64
c0 49 -42 84 -96 84c-7 0 -13 0 -21 -2c-2 5 11 39 14 41c61 10 80 33 80 58c0 33 -26 58 -62 58c-26 0 -52 -12 -77 -35c-5 0 -17 21 -16 26c29 34 77 75 132 75zM604 632c2 2 35 0 40 -2c1 -1 1 -5 1 -7c-14 -21 -371 -641 -398 -684c-1 -2 -6 -4 -8 -2
c-9 7 -20 22 -21 27c5 11 381 664 386 668zM518 148c23 -1 53 -1 92 -1c1 0 2 3 2 4l3 134h-3c-15 -18 -75 -101 -95 -134c0 0 0 -3 1 -3z" />
    <glyph glyph-name="registered" unicode="&#xae;" horiz-adv-x="339" 
d="M170 616c83 0 147 -63 147 -149s-65 -149 -148 -149c-82 0 -147 62 -147 149c0 83 66 149 148 149zM170 587c-67 0 -115 -53 -115 -120c0 -66 51 -120 115 -120c66 0 115 52 115 120c0 65 -50 120 -115 120zM94 401c-1 4 -1 11 0 14c18 3 23 5 23 15v81
c0 10 -5 11 -21 13c-1 1 0 16 1 17c9 0 24 -1 37 -1h55c29 0 45 -15 45 -37c0 -19 -17 -30 -31 -35c10 -14 19 -29 29 -41c8 -7 10 -11 25 -12c1 -2 -1 -14 -3 -16c-6 0 -34 0 -44 3c-6 2 -10 3 -17 12c-9 12 -14 24 -23 39c-3 6 -8 8 -12 8v-30c0 -9 4 -12 20 -15
c2 -1 2 -12 0 -15c-7 0 -27 2 -40 2c-14 0 -37 -2 -44 -2zM158 475c7 0 16 1 24 4c5 3 11 9 11 18c0 16 -10 26 -27 26c-8 0 -8 -3 -8 -7v-41z" />
    <glyph glyph-name="minus" unicode="&#x2212;" horiz-adv-x="570" 
d="M509 212c0 0 -455 -2 -460 -2c-2 0 -4 9 -4 10c0 13 11 53 14 60c10 -3 58 -2 119 -2h345c3 0 3 -8 3 -11c0 -4 -10 -54 -17 -55z" />
    <glyph glyph-name="eth" unicode="&#xf0;" horiz-adv-x="515" 
d="M269 30c49 0 80 56 80 168c0 34 -4 99 -17 121c-23 38 -53 49 -86 49c-43 0 -79 -43 -79 -141c0 -119 40 -197 102 -197zM443 573l-83 -38c70 -69 112 -173 112 -277c0 -116 -38 -198 -117 -243c-29 -16 -65 -27 -109 -27c-146 0 -207 108 -207 206c0 88 37 142 89 176
c30 21 87 41 133 41c27 0 44 -3 60 -8c-11 35 -27 67 -51 96l-132 -54c-5 1 -10 38 -3 43l102 45c-42 41 -95 75 -165 96c0 8 11 32 15 35c58 -3 153 -37 234 -96l118 50c6 2 8 -42 4 -45z" />
    <glyph glyph-name="multiply" unicode="&#xd7;" horiz-adv-x="571" 
d="M447 459c3 5 41 12 70 14c2 -2 6 -11 3 -15c-60 -79 -134 -159 -192 -223c-1 -2 0 -8 0 -8c39 -45 150 -164 187 -196c1 -3 -1 -14 -4 -16c-10 -2 -75 1 -91 14c-19 16 -92 93 -141 146c-1 1 -5 4 -7 1c-66 -72 -130 -142 -140 -150c-13 -9 -57 -13 -75 -15
c-3 2 -6 12 -5 16c20 16 154 160 179 191c3 3 2 7 0 9c-68 75 -158 180 -172 198c0 9 30 51 35 56c2 1 12 2 15 0c7 -13 130 -159 176 -208c63 69 152 171 162 186z" />
    <glyph glyph-name="copyright" unicode="&#xa9;" horiz-adv-x="741" 
d="M371 629c182 0 322 -144 322 -323c0 -182 -144 -325 -322 -325c-180 0 -322 141 -322 325c0 179 144 323 322 323zM371 591c-153 0 -276 -126 -276 -285c0 -158 124 -284 277 -284c157 0 275 128 275 284c0 159 -125 285 -276 285zM396 466c-70 0 -106 -66 -106 -153
c0 -68 28 -158 121 -158c32 0 61 20 98 70c4 0 21 -11 21 -16c-7 -27 -39 -74 -47 -79c-20 -6 -48 -13 -88 -13c-130 0 -210 73 -210 190c1 99 70 190 216 190c23 0 46 -2 70 -5c16 -2 35 -4 54 -3c-3 -26 -7 -78 -8 -106c-3 -3 -27 -5 -30 -3c-5 37 -16 57 -34 70
c-16 12 -36 16 -57 16z" />
    <glyph glyph-name="Aacute" unicode="&#xc1;" horiz-adv-x="639" 
d="M-17 34c72 11 85 19 114 86c54 127 136 349 160 418c8 22 18 54 21 72c12 -1 29 -2 47 -2c21 0 36 1 47 2c5 -18 12 -42 18 -60c31 -84 118 -330 154 -418c33 -80 38 -87 114 -98c4 -5 1 -33 -3 -37c-26 0 -71 3 -142 3c-72 0 -117 -3 -149 -3c-3 6 -4 32 -1 37
c22 4 42 7 52 13c11 6 12 16 10 21c-8 34 -33 104 -47 139c-2 3 -7 7 -10 7c-17 1 -54 0 -86 0c-47 0 -65 1 -79 0c-4 0 -9 -6 -11 -10c-18 -51 -40 -109 -40 -127c0 -16 3 -28 29 -34c16 -3 32 -7 50 -9c3 -5 1 -32 -2 -37c-25 0 -69 3 -131 3c-44 0 -85 -3 -115 -3
c-4 6 -4 31 0 37zM288 473c-1 0 -4 1 -5 -1l-65 -191c0 -3 0 -6 3 -7c11 -1 35 -1 65 -1s56 0 65 1c2 0 4 4 4 6c-12 37 -48 142 -67 193zM404 795c15 -1 60 -38 67 -52c2 -2 2 -11 0 -13c-18 -17 -171 -93 -180 -93c-4 0 -23 23 -22 28c23 25 115 116 135 130z" />
    <glyph glyph-name="Acircumflex" unicode="&#xc2;" horiz-adv-x="639" 
d="M-17 34c72 11 85 19 114 86c54 127 136 349 160 418c8 22 18 54 21 72c12 -1 29 -2 47 -2c21 0 36 1 47 2c5 -18 12 -42 18 -60c31 -84 118 -330 154 -418c33 -80 38 -87 114 -98c4 -5 1 -33 -3 -37c-26 0 -71 3 -142 3c-72 0 -117 -3 -149 -3c-3 6 -4 32 -1 37
c22 4 42 7 52 13c11 6 12 16 10 21c-8 34 -33 104 -47 139c-2 3 -7 7 -10 7c-17 1 -54 0 -86 0c-47 0 -65 1 -79 0c-4 0 -9 -6 -11 -10c-18 -51 -40 -109 -40 -127c0 -16 3 -28 29 -34c16 -3 32 -7 50 -9c3 -5 1 -32 -2 -37c-25 0 -69 3 -131 3c-44 0 -85 -3 -115 -3
c-4 6 -4 31 0 37zM288 473c-1 0 -4 1 -5 -1l-65 -191c0 -3 0 -6 3 -7c11 -1 35 -1 65 -1s56 0 65 1c2 0 4 4 4 6c-12 37 -48 142 -67 193zM311 769c4 3 18 6 24 7c12 -14 109 -92 136 -112c0 -5 -14 -30 -18 -30c-7 0 -112 45 -127 53c-3 1 -7 2 -10 0
c-22 -11 -112 -53 -118 -53s-18 23 -17 29c28 20 114 88 130 106z" />
    <glyph glyph-name="Adieresis" unicode="&#xc4;" horiz-adv-x="639" 
d="M-17 34c72 11 85 19 114 86c54 127 136 349 160 418c8 22 18 54 21 72c12 -1 29 -2 47 -2c21 0 36 1 47 2c5 -18 12 -42 18 -60c31 -84 118 -330 154 -418c33 -80 38 -87 114 -98c4 -5 1 -33 -3 -37c-26 0 -71 3 -142 3c-72 0 -117 -3 -149 -3c-3 6 -4 32 -1 37
c22 4 42 7 52 13c11 6 12 16 10 21c-8 34 -33 104 -47 139c-2 3 -7 7 -10 7c-17 1 -54 0 -86 0c-47 0 -65 1 -79 0c-4 0 -9 -6 -11 -10c-18 -51 -40 -109 -40 -127c0 -16 3 -28 29 -34c16 -3 32 -7 50 -9c3 -5 1 -32 -2 -37c-25 0 -69 3 -131 3c-44 0 -85 -3 -115 -3
c-4 6 -4 31 0 37zM288 473c-1 0 -4 1 -5 -1l-65 -191c0 -3 0 -6 3 -7c11 -1 35 -1 65 -1s56 0 65 1c2 0 4 4 4 6c-12 37 -48 142 -67 193zM289 703c0 -26 -10 -42 -24 -54c-6 -7 -50 -10 -58 -6c-15 8 -24 21 -30 42c-1 6 -2 33 4 41c12 12 38 21 63 21c20 0 34 -6 38 -11
c4 -8 7 -26 7 -33zM473 703c0 -26 -11 -42 -25 -54c-6 -7 -50 -10 -58 -6c-15 8 -23 21 -30 42c-1 6 -2 33 5 41c12 12 39 21 63 21c20 0 33 -6 37 -11c5 -8 8 -26 8 -33z" />
    <glyph glyph-name="Agrave" unicode="&#xc0;" horiz-adv-x="639" 
d="M-17 34c72 11 85 19 114 86c54 127 136 349 160 418c8 22 18 54 21 72c12 -1 29 -2 47 -2c21 0 36 1 47 2c5 -18 12 -42 18 -60c31 -84 118 -330 154 -418c33 -80 38 -87 114 -98c4 -5 1 -33 -3 -37c-26 0 -71 3 -142 3c-72 0 -117 -3 -149 -3c-3 6 -4 32 -1 37
c22 4 42 7 52 13c11 6 12 16 10 21c-8 34 -33 104 -47 139c-2 3 -7 7 -10 7c-17 1 -54 0 -86 0c-47 0 -65 1 -79 0c-4 0 -9 -6 -11 -10c-18 -51 -40 -109 -40 -127c0 -16 3 -28 29 -34c16 -3 32 -7 50 -9c3 -5 1 -32 -2 -37c-25 0 -69 3 -131 3c-44 0 -85 -3 -115 -3
c-4 6 -4 31 0 37zM288 473c-1 0 -4 1 -5 -1l-65 -191c0 -3 0 -6 3 -7c11 -1 35 -1 65 -1s56 0 65 1c2 0 4 4 4 6c-12 37 -48 142 -67 193zM255 803c20 -14 102 -109 120 -134c3 -3 -19 -28 -24 -28c-8 0 -151 79 -171 95c-1 2 -1 14 0 15c8 12 60 52 75 52z" />
    <glyph glyph-name="Aring" unicode="&#xc5;" horiz-adv-x="639" 
d="M-17 34c72 11 85 19 114 86c54 127 136 349 160 418c8 22 18 54 21 72c12 -1 29 -2 47 -2c21 0 36 1 47 2c5 -18 12 -42 18 -60c31 -84 118 -330 154 -418c33 -80 38 -87 114 -98c4 -5 1 -33 -3 -37c-26 0 -71 3 -142 3c-72 0 -117 -3 -149 -3c-3 6 -4 32 -1 37
c22 4 42 7 52 13c11 6 12 16 10 21c-8 34 -33 104 -47 139c-2 3 -7 7 -10 7c-17 1 -54 0 -86 0c-47 0 -65 1 -79 0c-4 0 -9 -6 -11 -10c-18 -51 -40 -109 -40 -127c0 -16 3 -28 29 -34c16 -3 32 -7 50 -9c3 -5 1 -32 -2 -37c-25 0 -69 3 -131 3c-44 0 -85 -3 -115 -3
c-4 6 -4 31 0 37zM288 473c-1 0 -4 1 -5 -1l-65 -191c0 -3 0 -6 3 -7c11 -1 35 -1 65 -1s56 0 65 1c2 0 4 4 4 6c-12 37 -48 142 -67 193zM327 783c53 0 81 -35 81 -76c0 -49 -36 -80 -85 -80c-29 0 -82 19 -82 76c0 46 28 80 86 80zM323 742c-30 0 -45 -15 -45 -37
c0 -23 23 -36 49 -36c24 0 46 14 46 34c0 24 -13 39 -50 39z" />
    <glyph glyph-name="Atilde" unicode="&#xc3;" horiz-adv-x="639" 
d="M-17 34c72 11 85 19 114 86c54 127 136 349 160 418c8 22 18 54 21 72c12 -1 29 -2 47 -2c21 0 36 1 47 2c5 -18 12 -42 18 -60c31 -84 118 -330 154 -418c33 -80 38 -87 114 -98c4 -5 1 -33 -3 -37c-26 0 -71 3 -142 3c-72 0 -117 -3 -149 -3c-3 6 -4 32 -1 37
c22 4 42 7 52 13c11 6 12 16 10 21c-8 34 -33 104 -47 139c-2 3 -7 7 -10 7c-17 1 -54 0 -86 0c-47 0 -65 1 -79 0c-4 0 -9 -6 -11 -10c-18 -51 -40 -109 -40 -127c0 -16 3 -28 29 -34c16 -3 32 -7 50 -9c3 -5 1 -32 -2 -37c-25 0 -69 3 -131 3c-44 0 -85 -3 -115 -3
c-4 6 -4 31 0 37zM288 473c-1 0 -4 1 -5 -1l-65 -191c0 -3 0 -6 3 -7c11 -1 35 -1 65 -1s56 0 65 1c2 0 4 4 4 6c-12 37 -48 142 -67 193zM397 721c14 0 39 2 74 35c4 5 10 -26 9 -31c-14 -27 -67 -69 -112 -69c-17 0 -36 5 -73 18c-12 4 -28 9 -43 9c-21 0 -43 -14 -66 -33
c-3 -2 -15 25 -11 29c11 19 69 70 101 70c20 0 40 -6 67 -15c19 -7 42 -13 54 -13z" />
    <glyph glyph-name="Ccedilla" unicode="&#xc7;" horiz-adv-x="679" 
d="M575 442c-13 73 -27 98 -65 117c-32 17 -73 24 -117 24c-118 0 -193 -90 -193 -264c0 -136 67 -282 235 -282c34 0 70 7 98 31c24 20 53 59 78 100c8 -1 27 -12 32 -21c-13 -42 -55 -123 -82 -140c-29 -10 -74 -23 -136 -25l-16 -25c14 -7 32 -17 46 -28
c18 -16 26 -37 26 -55c0 -67 -89 -107 -122 -107c-26 0 -51 14 -61 31c0 8 2 21 4 28c23 -13 43 -17 65 -17c25 0 40 12 40 33c0 18 -13 43 -77 63c0 0 1 6 3 9c0 0 30 41 50 69c-209 8 -330 121 -330 327c0 111 53 217 163 273c54 27 121 43 203 43c41 0 82 -4 120 -8
c29 -4 61 -7 79 -7c-3 -44 -6 -114 -4 -163c-4 -6 -38 -12 -39 -6z" />
    <glyph glyph-name="Eacute" unicode="&#xc9;" horiz-adv-x="592" 
d="M34 575c-4 5 -2 32 2 36c37 0 98 -3 149 -3h204c39 0 95 1 126 6c2 -1 4 -3 4 -5c-7 -31 -12 -96 -15 -149c-6 -5 -35 -6 -41 -2c-4 33 -9 51 -15 67c-10 22 -25 29 -44 30c-25 2 -131 3 -145 1c-6 -2 -11 -14 -11 -19c-1 -63 0 -131 0 -194c0 -3 3 -8 6 -8
c32 0 99 -1 134 2c19 1 27 11 33 32c3 10 6 24 9 38c6 4 38 2 44 -2c-2 -23 -7 -66 -7 -98c0 -31 2 -73 3 -100c-6 -4 -37 -5 -43 -1c-7 30 -6 30 -10 43c-5 14 -13 24 -33 26c-22 3 -97 3 -129 3c-4 0 -7 -7 -7 -9v-176c0 -18 10 -31 23 -35c19 -5 85 -7 137 -7
c39 0 54 5 75 32c18 22 37 57 51 89c7 1 35 -8 39 -14c-4 -27 -28 -111 -45 -145c-5 -9 -10 -17 -56 -17c-84 0 -176 4 -284 4c-57 0 -127 -3 -177 -3c-3 8 -4 31 -1 37c36 4 62 8 77 12c20 5 30 17 31 49c2 45 2 120 2 236c0 79 0 160 -2 190c-2 31 -9 38 -29 44
c-15 5 -33 8 -55 10zM391 804c15 -1 60 -38 67 -52c2 -2 2 -11 0 -13c-18 -17 -171 -93 -180 -93c-4 0 -23 23 -22 28c23 25 115 116 135 130z" />
    <glyph glyph-name="Ecircumflex" unicode="&#xca;" horiz-adv-x="592" 
d="M34 575c-4 5 -2 32 2 36c37 0 98 -3 149 -3h204c39 0 95 1 126 6c2 -1 4 -3 4 -5c-7 -31 -12 -96 -15 -149c-6 -5 -35 -6 -41 -2c-4 33 -9 51 -15 67c-10 22 -25 29 -44 30c-25 2 -131 3 -145 1c-6 -2 -11 -14 -11 -19c-1 -63 0 -131 0 -194c0 -3 3 -8 6 -8
c32 0 99 -1 134 2c19 1 27 11 33 32c3 10 6 24 9 38c6 4 38 2 44 -2c-2 -23 -7 -66 -7 -98c0 -31 2 -73 3 -100c-6 -4 -37 -5 -43 -1c-7 30 -6 30 -10 43c-5 14 -13 24 -33 26c-22 3 -97 3 -129 3c-4 0 -7 -7 -7 -9v-176c0 -18 10 -31 23 -35c19 -5 85 -7 137 -7
c39 0 54 5 75 32c18 22 37 57 51 89c7 1 35 -8 39 -14c-4 -27 -28 -111 -45 -145c-5 -9 -10 -17 -56 -17c-84 0 -176 4 -284 4c-57 0 -127 -3 -177 -3c-3 8 -4 31 -1 37c36 4 62 8 77 12c20 5 30 17 31 49c2 45 2 120 2 236c0 79 0 160 -2 190c-2 31 -9 38 -29 44
c-15 5 -33 8 -55 10zM284 783c4 3 18 6 24 7c12 -14 109 -92 136 -112c0 -5 -14 -30 -18 -30c-7 0 -112 45 -127 53c-3 1 -7 2 -10 0c-22 -11 -112 -53 -118 -53s-18 23 -17 29c28 20 114 88 130 106z" />
    <glyph glyph-name="Edieresis" unicode="&#xcb;" horiz-adv-x="592" 
d="M34 575c-4 5 -2 32 2 36c37 0 98 -3 149 -3h204c39 0 95 1 126 6c2 -1 4 -3 4 -5c-7 -31 -12 -96 -15 -149c-6 -5 -35 -6 -41 -2c-4 33 -9 51 -15 67c-10 22 -25 29 -44 30c-25 2 -131 3 -145 1c-6 -2 -11 -14 -11 -19c-1 -63 0 -131 0 -194c0 -3 3 -8 6 -8
c32 0 99 -1 134 2c19 1 27 11 33 32c3 10 6 24 9 38c6 4 38 2 44 -2c-2 -23 -7 -66 -7 -98c0 -31 2 -73 3 -100c-6 -4 -37 -5 -43 -1c-7 30 -6 30 -10 43c-5 14 -13 24 -33 26c-22 3 -97 3 -129 3c-4 0 -7 -7 -7 -9v-176c0 -18 10 -31 23 -35c19 -5 85 -7 137 -7
c39 0 54 5 75 32c18 22 37 57 51 89c7 1 35 -8 39 -14c-4 -27 -28 -111 -45 -145c-5 -9 -10 -17 -56 -17c-84 0 -176 4 -284 4c-57 0 -127 -3 -177 -3c-3 8 -4 31 -1 37c36 4 62 8 77 12c20 5 30 17 31 49c2 45 2 120 2 236c0 79 0 160 -2 190c-2 31 -9 38 -29 44
c-15 5 -33 8 -55 10zM263 724c0 -26 -10 -42 -24 -54c-6 -7 -50 -10 -58 -6c-15 8 -24 21 -30 42c-1 6 -2 33 4 41c12 12 38 21 63 21c20 0 34 -6 38 -11c4 -8 7 -26 7 -33zM447 724c0 -26 -11 -42 -25 -54c-6 -7 -50 -10 -58 -6c-15 8 -23 21 -30 42c-1 6 -2 33 5 41
c12 12 39 21 63 21c20 0 33 -6 37 -11c5 -8 8 -26 8 -33z" />
    <glyph glyph-name="Egrave" unicode="&#xc8;" horiz-adv-x="592" 
d="M34 575c-4 5 -2 32 2 36c37 0 98 -3 149 -3h204c39 0 95 1 126 6c2 -1 4 -3 4 -5c-7 -31 -12 -96 -15 -149c-6 -5 -35 -6 -41 -2c-4 33 -9 51 -15 67c-10 22 -25 29 -44 30c-25 2 -131 3 -145 1c-6 -2 -11 -14 -11 -19c-1 -63 0 -131 0 -194c0 -3 3 -8 6 -8
c32 0 99 -1 134 2c19 1 27 11 33 32c3 10 6 24 9 38c6 4 38 2 44 -2c-2 -23 -7 -66 -7 -98c0 -31 2 -73 3 -100c-6 -4 -37 -5 -43 -1c-7 30 -6 30 -10 43c-5 14 -13 24 -33 26c-22 3 -97 3 -129 3c-4 0 -7 -7 -7 -9v-176c0 -18 10 -31 23 -35c19 -5 85 -7 137 -7
c39 0 54 5 75 32c18 22 37 57 51 89c7 1 35 -8 39 -14c-4 -27 -28 -111 -45 -145c-5 -9 -10 -17 -56 -17c-84 0 -176 4 -284 4c-57 0 -127 -3 -177 -3c-3 8 -4 31 -1 37c36 4 62 8 77 12c20 5 30 17 31 49c2 45 2 120 2 236c0 79 0 160 -2 190c-2 31 -9 38 -29 44
c-15 5 -33 8 -55 10zM239 810c20 -14 102 -109 120 -134c3 -3 -19 -28 -24 -28c-8 0 -151 79 -171 95c-1 2 -1 14 0 15c8 12 60 52 75 52z" />
    <glyph glyph-name="Iacute" unicode="&#xcd;" horiz-adv-x="360" 
d="M30 575c-4 5 -3 31 1 36c31 0 81 -3 145 -3c86 0 125 3 149 3c3 -5 4 -31 0 -36c-22 -3 -41 -6 -55 -10c-22 -7 -24 -22 -25 -49c-2 -35 -2 -105 -2 -191c0 -107 0 -193 2 -231c1 -21 4 -42 32 -49c13 -4 38 -8 60 -11c4 -5 1 -33 -4 -37c-33 1 -80 3 -148 3
c-81 0 -121 -3 -155 -3c-6 4 -6 33 -1 37c22 3 37 5 49 8c28 6 33 16 36 50c2 30 2 144 2 237c0 99 1 149 -2 193c-1 22 -7 36 -26 42c-18 5 -34 7 -58 11zM266 805c15 -1 60 -38 67 -52c2 -2 2 -11 0 -13c-18 -17 -171 -93 -180 -93c-4 0 -23 23 -22 28
c23 25 115 116 135 130z" />
    <glyph glyph-name="Icircumflex" unicode="&#xce;" horiz-adv-x="360" 
d="M30 575c-4 5 -3 31 1 36c31 0 81 -3 145 -3c86 0 125 3 149 3c3 -5 4 -31 0 -36c-22 -3 -41 -6 -55 -10c-22 -7 -24 -22 -25 -49c-2 -35 -2 -105 -2 -191c0 -107 0 -193 2 -231c1 -21 4 -42 32 -49c13 -4 38 -8 60 -11c4 -5 1 -33 -4 -37c-33 1 -80 3 -148 3
c-81 0 -121 -3 -155 -3c-6 4 -6 33 -1 37c22 3 37 5 49 8c28 6 33 16 36 50c2 30 2 144 2 237c0 99 1 149 -2 193c-1 22 -7 36 -26 42c-18 5 -34 7 -58 11zM166 784c4 3 18 6 24 7c12 -14 109 -92 136 -112c0 -5 -14 -30 -18 -30c-7 0 -112 45 -127 53c-3 1 -7 2 -10 0
c-22 -11 -112 -53 -118 -53s-18 23 -17 29c28 20 114 88 130 106z" />
    <glyph glyph-name="Idieresis" unicode="&#xcf;" horiz-adv-x="360" 
d="M30 575c-4 5 -3 31 1 36c31 0 81 -3 145 -3c86 0 125 3 149 3c3 -5 4 -31 0 -36c-22 -3 -41 -6 -55 -10c-22 -7 -24 -22 -25 -49c-2 -35 -2 -105 -2 -191c0 -107 0 -193 2 -231c1 -21 4 -42 32 -49c13 -4 38 -8 60 -11c4 -5 1 -33 -4 -37c-33 1 -80 3 -148 3
c-81 0 -121 -3 -155 -3c-6 4 -6 33 -1 37c22 3 37 5 49 8c28 6 33 16 36 50c2 30 2 144 2 237c0 99 1 149 -2 193c-1 22 -7 36 -26 42c-18 5 -34 7 -58 11zM144 723c0 -26 -10 -42 -24 -54c-6 -7 -50 -10 -58 -6c-15 8 -24 21 -30 42c-1 6 -2 33 4 41c12 12 38 21 63 21
c20 0 34 -6 38 -11c4 -8 7 -26 7 -33zM328 723c0 -26 -11 -42 -25 -54c-6 -7 -50 -10 -58 -6c-15 8 -23 21 -30 42c-1 6 -2 33 5 41c12 12 39 21 63 21c20 0 33 -6 37 -11c5 -8 8 -26 8 -33z" />
    <glyph glyph-name="Igrave" unicode="&#xcc;" horiz-adv-x="360" 
d="M30 575c-4 5 -3 31 1 36c31 0 81 -3 145 -3c86 0 125 3 149 3c3 -5 4 -31 0 -36c-22 -3 -41 -6 -55 -10c-22 -7 -24 -22 -25 -49c-2 -35 -2 -105 -2 -191c0 -107 0 -193 2 -231c1 -21 4 -42 32 -49c13 -4 38 -8 60 -11c4 -5 1 -33 -4 -37c-33 1 -80 3 -148 3
c-81 0 -121 -3 -155 -3c-6 4 -6 33 -1 37c22 3 37 5 49 8c28 6 33 16 36 50c2 30 2 144 2 237c0 99 1 149 -2 193c-1 22 -7 36 -26 42c-18 5 -34 7 -58 11zM108 805c20 -14 102 -109 120 -134c3 -3 -19 -28 -24 -28c-8 0 -151 79 -171 95c-1 2 -1 14 0 15c8 12 60 52 75 52z
" />
    <glyph glyph-name="Ntilde" unicode="&#xd1;" horiz-adv-x="736" 
d="M19 574c-4 4 -3 33 0 37c33 0 80 -3 144 -3c27 0 55 1 69 2c6 -15 15 -28 37 -56c86 -109 246 -310 306 -379c2 0 3 1 4 1c0 129 1 261 -4 331c-3 33 -12 49 -44 57c-20 4 -38 8 -64 11c-4 3 -3 34 0 36c25 0 71 -3 138 -3c53 0 100 3 119 3c4 -4 3 -33 0 -36
c-15 -3 -28 -5 -42 -10c-27 -8 -38 -20 -41 -60c-6 -82 -8 -219 -8 -372c0 -46 1 -103 1 -139c-14 2 -78 1 -93 -1c-62 84 -289 379 -360 468c-3 3 -5 1 -5 -1c-2 -107 -1 -305 2 -352c2 -42 16 -57 44 -63c16 -4 34 -7 60 -11c4 -5 3 -31 -1 -37c-35 0 -81 3 -130 3
c-54 0 -101 -3 -132 -3c-4 4 -3 33 0 37c23 3 40 6 58 12c23 8 33 25 35 57c6 53 9 236 10 394c0 22 -9 50 -34 60c-18 8 -38 13 -69 17zM449 737c14 0 39 2 74 35c4 5 10 -26 9 -31c-14 -27 -67 -69 -112 -69c-17 0 -36 5 -73 18c-12 4 -28 9 -43 9c-21 0 -43 -14 -66 -33
c-3 -2 -15 25 -11 29c11 19 69 70 101 70c20 0 40 -6 67 -15c19 -7 42 -13 54 -13z" />
    <glyph glyph-name="Oacute" unicode="&#xd3;" horiz-adv-x="760" 
d="M378 -18c-110 0 -186 35 -240 91c-62 65 -85 152 -85 233c0 79 24 161 90 221c56 59 146 99 248 99c208 0 316 -145 316 -311c0 -79 -20 -150 -62 -205c-65 -87 -165 -128 -267 -128zM410 31c31 0 63 11 85 32c51 45 68 129 68 217c0 104 -30 209 -96 263
c-31 24 -63 37 -106 37c-29 0 -57 -8 -79 -22c-61 -41 -84 -127 -84 -223c0 -95 30 -209 105 -268c30 -23 63 -36 107 -36zM448 819c15 -1 60 -38 67 -52c2 -2 2 -11 0 -13c-18 -17 -171 -93 -180 -93c-4 0 -23 23 -22 28c23 25 115 116 135 130z" />
    <glyph glyph-name="Ocircumflex" unicode="&#xd4;" horiz-adv-x="760" 
d="M378 -18c-110 0 -186 35 -240 91c-62 65 -85 152 -85 233c0 79 24 161 90 221c56 59 146 99 248 99c208 0 316 -145 316 -311c0 -79 -20 -150 -62 -205c-65 -87 -165 -128 -267 -128zM410 31c31 0 63 11 85 32c51 45 68 129 68 217c0 104 -30 209 -96 263
c-31 24 -63 37 -106 37c-29 0 -57 -8 -79 -22c-61 -41 -84 -127 -84 -223c0 -95 30 -209 105 -268c30 -23 63 -36 107 -36zM366 789c4 3 18 6 24 7c12 -14 109 -92 136 -112c0 -5 -14 -30 -18 -30c-7 0 -112 45 -127 53c-3 1 -7 2 -10 0c-22 -11 -112 -53 -118 -53
s-18 23 -17 29c28 20 114 88 130 106z" />
    <glyph glyph-name="Odieresis" unicode="&#xd6;" horiz-adv-x="760" 
d="M378 -18c-110 0 -186 35 -240 91c-62 65 -85 152 -85 233c0 79 24 161 90 221c56 59 146 99 248 99c208 0 316 -145 316 -311c0 -79 -20 -150 -62 -205c-65 -87 -165 -128 -267 -128zM410 31c31 0 63 11 85 32c51 45 68 129 68 217c0 104 -30 209 -96 263
c-31 24 -63 37 -106 37c-29 0 -57 -8 -79 -22c-61 -41 -84 -127 -84 -223c0 -95 30 -209 105 -268c30 -23 63 -36 107 -36zM344 732c0 -26 -10 -42 -24 -54c-6 -7 -50 -10 -58 -6c-15 8 -24 21 -30 42c-1 6 -2 33 4 41c12 12 38 21 63 21c20 0 34 -6 38 -11
c4 -8 7 -26 7 -33zM528 732c0 -26 -11 -42 -25 -54c-6 -7 -50 -10 -58 -6c-15 8 -23 21 -30 42c-1 6 -2 33 5 41c12 12 39 21 63 21c20 0 33 -6 37 -11c5 -8 8 -26 8 -33z" />
    <glyph glyph-name="Ograve" unicode="&#xd2;" horiz-adv-x="760" 
d="M378 -18c-110 0 -186 35 -240 91c-62 65 -85 152 -85 233c0 79 24 161 90 221c56 59 146 99 248 99c208 0 316 -145 316 -311c0 -79 -20 -150 -62 -205c-65 -87 -165 -128 -267 -128zM410 31c31 0 63 11 85 32c51 45 68 129 68 217c0 104 -30 209 -96 263
c-31 24 -63 37 -106 37c-29 0 -57 -8 -79 -22c-61 -41 -84 -127 -84 -223c0 -95 30 -209 105 -268c30 -23 63 -36 107 -36zM315 819c20 -14 102 -109 120 -134c3 -3 -19 -28 -24 -28c-8 0 -151 79 -171 95c-1 2 -1 14 0 15c8 12 60 52 75 52z" />
    <glyph glyph-name="Otilde" unicode="&#xd5;" horiz-adv-x="760" 
d="M378 -18c-110 0 -186 35 -240 91c-62 65 -85 152 -85 233c0 79 24 161 90 221c56 59 146 99 248 99c208 0 316 -145 316 -311c0 -79 -20 -150 -62 -205c-65 -87 -165 -128 -267 -128zM410 31c31 0 63 11 85 32c51 45 68 129 68 217c0 104 -30 209 -96 263
c-31 24 -63 37 -106 37c-29 0 -57 -8 -79 -22c-61 -41 -84 -127 -84 -223c0 -95 30 -209 105 -268c30 -23 63 -36 107 -36zM449 742c14 0 39 2 74 35c4 5 10 -26 9 -31c-14 -27 -67 -69 -112 -69c-17 0 -36 5 -73 18c-12 4 -28 9 -43 9c-21 0 -43 -14 -66 -33
c-3 -2 -15 25 -11 29c11 19 69 70 101 70c20 0 40 -6 67 -15c19 -7 42 -13 54 -13z" />
    <glyph glyph-name="Scaron" unicode="&#x160;" horiz-adv-x="506" 
d="M78 187c21 -65 46 -107 82 -133c26 -20 62 -28 93 -28c46 0 91 27 91 84c0 51 -24 80 -120 137c-83 49 -156 96 -156 200c0 116 96 179 210 179c76 0 118 -13 167 -18c-7 -36 -14 -89 -17 -147c-5 -6 -33 -6 -37 -2c-9 60 -21 88 -44 106c-22 16 -47 22 -78 22
c-57 0 -90 -42 -90 -89c0 -46 23 -72 65 -99s76 -44 118 -69c67 -41 103 -84 103 -157c0 -103 -84 -191 -237 -191c-68 0 -129 20 -155 33c-11 14 -32 125 -33 160c3 7 32 15 38 12zM287 664c-4 -2 -19 -6 -24 -7c-12 14 -109 92 -136 112c0 6 14 30 18 30
c7 0 112 -44 127 -53c3 -1 7 -1 10 0c22 12 112 53 118 53s18 -23 17 -29c-28 -20 -114 -88 -130 -106z" />
    <glyph glyph-name="Uacute" unicode="&#xda;" horiz-adv-x="720" 
d="M19 575c-3 5 -3 31 1 36c34 0 96 -3 150 -3c56 0 109 3 148 3c4 -5 4 -30 0 -36c-19 -3 -36 -7 -48 -10c-25 -6 -32 -22 -33 -54c-2 -82 -1 -172 0 -225c0 -35 3 -87 10 -118c12 -66 63 -114 163 -114c71 0 148 21 158 166c5 75 6 215 1 279c-2 40 -10 58 -43 65
c-15 4 -37 7 -60 11c-4 6 -3 30 1 36c33 0 78 -3 128 -3c70 0 101 3 121 3c5 -5 5 -32 0 -36c-15 -4 -30 -6 -44 -10c-26 -7 -34 -23 -36 -72c-3 -86 -5 -202 -13 -270c-15 -184 -122 -241 -261 -241c-176 0 -239 85 -250 186c-7 71 -6 264 -7 346c-1 26 -9 42 -32 50
c-12 4 -34 8 -54 11zM469 806c15 -1 60 -38 67 -52c2 -2 2 -11 0 -13c-18 -17 -171 -93 -180 -93c-4 0 -23 23 -22 28c23 25 115 116 135 130z" />
    <glyph glyph-name="Ucircumflex" unicode="&#xdb;" horiz-adv-x="720" 
d="M19 575c-3 5 -3 31 1 36c34 0 96 -3 150 -3c56 0 109 3 148 3c4 -5 4 -30 0 -36c-19 -3 -36 -7 -48 -10c-25 -6 -32 -22 -33 -54c-2 -82 -1 -172 0 -225c0 -35 3 -87 10 -118c12 -66 63 -114 163 -114c71 0 148 21 158 166c5 75 6 215 1 279c-2 40 -10 58 -43 65
c-15 4 -37 7 -60 11c-4 6 -3 30 1 36c33 0 78 -3 128 -3c70 0 101 3 121 3c5 -5 5 -32 0 -36c-15 -4 -30 -6 -44 -10c-26 -7 -34 -23 -36 -72c-3 -86 -5 -202 -13 -270c-15 -184 -122 -241 -261 -241c-176 0 -239 85 -250 186c-7 71 -6 264 -7 346c-1 26 -9 42 -32 50
c-12 4 -34 8 -54 11zM374 785c4 3 18 6 24 7c12 -14 109 -92 136 -112c0 -5 -14 -30 -18 -30c-7 0 -112 45 -127 53c-3 1 -7 2 -10 0c-22 -11 -112 -53 -118 -53s-18 23 -17 29c28 20 114 88 130 106z" />
    <glyph glyph-name="Udieresis" unicode="&#xdc;" horiz-adv-x="720" 
d="M19 575c-3 5 -3 31 1 36c34 0 96 -3 150 -3c56 0 109 3 148 3c4 -5 4 -30 0 -36c-19 -3 -36 -7 -48 -10c-25 -6 -32 -22 -33 -54c-2 -82 -1 -172 0 -225c0 -35 3 -87 10 -118c12 -66 63 -114 163 -114c71 0 148 21 158 166c5 75 6 215 1 279c-2 40 -10 58 -43 65
c-15 4 -37 7 -60 11c-4 6 -3 30 1 36c33 0 78 -3 128 -3c70 0 101 3 121 3c5 -5 5 -32 0 -36c-15 -4 -30 -6 -44 -10c-26 -7 -34 -23 -36 -72c-3 -86 -5 -202 -13 -270c-15 -184 -122 -241 -261 -241c-176 0 -239 85 -250 186c-7 71 -6 264 -7 346c-1 26 -9 42 -32 50
c-12 4 -34 8 -54 11zM356 725c0 -26 -10 -42 -24 -54c-6 -7 -50 -10 -58 -6c-15 8 -24 21 -30 42c-1 6 -2 33 4 41c12 12 38 21 63 21c20 0 34 -6 38 -11c4 -8 7 -26 7 -33zM540 725c0 -26 -11 -42 -25 -54c-6 -7 -50 -10 -58 -6c-15 8 -23 21 -30 42c-1 6 -2 33 5 41
c12 12 39 21 63 21c20 0 33 -6 37 -11c5 -8 8 -26 8 -33z" />
    <glyph glyph-name="Ugrave" unicode="&#xd9;" horiz-adv-x="720" 
d="M19 575c-3 5 -3 31 1 36c34 0 96 -3 150 -3c56 0 109 3 148 3c4 -5 4 -30 0 -36c-19 -3 -36 -7 -48 -10c-25 -6 -32 -22 -33 -54c-2 -82 -1 -172 0 -225c0 -35 3 -87 10 -118c12 -66 63 -114 163 -114c71 0 148 21 158 166c5 75 6 215 1 279c-2 40 -10 58 -43 65
c-15 4 -37 7 -60 11c-4 6 -3 30 1 36c33 0 78 -3 128 -3c70 0 101 3 121 3c5 -5 5 -32 0 -36c-15 -4 -30 -6 -44 -10c-26 -7 -34 -23 -36 -72c-3 -86 -5 -202 -13 -270c-15 -184 -122 -241 -261 -241c-176 0 -239 85 -250 186c-7 71 -6 264 -7 346c-1 26 -9 42 -32 50
c-12 4 -34 8 -54 11zM315 806c20 -14 102 -109 120 -134c3 -3 -19 -28 -24 -28c-8 0 -151 79 -171 95c-1 2 -1 14 0 15c8 12 60 52 75 52z" />
    <glyph glyph-name="Yacute" unicode="&#xdd;" horiz-adv-x="583" 
d="M-22 575c-3 7 -2 32 2 36c32 0 84 -3 135 -3c57 0 127 2 144 3c5 -4 6 -32 1 -36l-32 -7c-15 -4 -13 -16 -7 -29c20 -45 92 -186 109 -214c2 -2 5 -1 7 0c34 56 95 171 107 207c5 17 4 28 -21 33c-15 4 -30 6 -52 10c-2 7 -1 33 4 36c30 0 72 -3 121 -3c55 0 82 3 115 3
c5 -3 5 -32 1 -36c-18 -4 -35 -6 -47 -10c-29 -9 -43 -20 -72 -65c-40 -63 -103 -176 -126 -221c-7 -15 -10 -27 -10 -44c0 -44 0 -80 1 -131c1 -34 5 -55 33 -61c16 -4 36 -6 61 -10c3 -4 0 -33 -4 -37c-30 0 -101 4 -161 4c-79 0 -113 -4 -154 -4c-5 4 -4 34 0 37
c28 3 51 7 66 10c26 7 31 27 31 56c2 47 1 79 1 122c0 15 -5 34 -12 50c-20 45 -78 152 -115 219c-34 60 -48 69 -77 77c-13 4 -29 6 -49 8zM408 803c15 -1 60 -38 67 -52c2 -2 2 -11 0 -13c-18 -17 -171 -93 -180 -93c-4 0 -23 23 -22 28c23 25 115 116 135 130z" />
    <glyph glyph-name="Ydieresis" unicode="&#x178;" horiz-adv-x="583" 
d="M-22 575c-3 7 -2 32 2 36c32 0 84 -3 135 -3c57 0 127 2 144 3c5 -4 6 -32 1 -36l-32 -7c-15 -4 -13 -16 -7 -29c20 -45 92 -186 109 -214c2 -2 5 -1 7 0c34 56 95 171 107 207c5 17 4 28 -21 33c-15 4 -30 6 -52 10c-2 7 -1 33 4 36c30 0 72 -3 121 -3c55 0 82 3 115 3
c5 -3 5 -32 1 -36c-18 -4 -35 -6 -47 -10c-29 -9 -43 -20 -72 -65c-40 -63 -103 -176 -126 -221c-7 -15 -10 -27 -10 -44c0 -44 0 -80 1 -131c1 -34 5 -55 33 -61c16 -4 36 -6 61 -10c3 -4 0 -33 -4 -37c-30 0 -101 4 -161 4c-79 0 -113 -4 -154 -4c-5 4 -4 34 0 37
c28 3 51 7 66 10c26 7 31 27 31 56c2 47 1 79 1 122c0 15 -5 34 -12 50c-20 45 -78 152 -115 219c-34 60 -48 69 -77 77c-13 4 -29 6 -49 8zM282 724c0 -26 -10 -42 -24 -54c-6 -7 -50 -10 -58 -6c-15 8 -24 21 -30 42c-1 6 -2 33 4 41c12 12 38 21 63 21c20 0 34 -6 38 -11
c4 -8 7 -26 7 -33zM466 724c0 -26 -11 -42 -25 -54c-6 -7 -50 -10 -58 -6c-15 8 -23 21 -30 42c-1 6 -2 33 5 41c12 12 39 21 63 21c20 0 33 -6 37 -11c5 -8 8 -26 8 -33z" />
    <glyph glyph-name="Zcaron" unicode="&#x17d;" horiz-adv-x="608" 
d="M593 181c-4 -29 -34 -137 -53 -173c-5 -9 -16 -13 -57 -13c-114 1 -256 3 -343 5c-29 -1 -73 -1 -96 -3c-2 3 -5 22 -4 25c74 97 307 457 346 532c1 2 -1 5 -3 5c-40 1 -163 1 -212 -4c-17 -2 -36 -8 -53 -36c-13 -22 -27 -56 -43 -94c-4 -3 -38 8 -40 12
c13 57 24 123 30 180c2 2 17 6 20 4c18 -11 42 -13 87 -13h209c57 0 128 1 164 3c2 -2 4 -18 3 -23c-37 -65 -250 -406 -327 -526c-1 -2 -1 -7 2 -7c21 -5 121 -8 204 -7c20 0 35 5 53 23c21 21 48 68 73 125c6 3 36 -8 40 -15zM319 655c-4 -2 -19 -6 -24 -7
c-12 14 -109 92 -136 112c0 6 14 30 18 30c7 0 112 -44 127 -53c3 -1 7 -1 10 0c22 12 112 53 118 53s18 -23 17 -29c-28 -20 -114 -88 -130 -106z" />
    <glyph glyph-name="aacute" unicode="&#xe1;" horiz-adv-x="439" 
d="M255 261c0 18 -3 38 -14 54c-17 23 -44 32 -71 32c-21 0 -39 -6 -46 -13c-9 -9 -27 -46 -35 -64c-5 -4 -39 11 -39 19c2 10 16 60 23 66c49 34 121 61 151 61c51 0 91 -24 114 -59c20 -30 26 -65 26 -101c0 -48 -3 -118 -3 -159c0 -20 7 -37 30 -37c13 0 22 1 35 5
c2 -4 -2 -37 -5 -41c-26 -24 -73 -37 -103 -37c-32 0 -52 12 -58 29c-2 6 -5 14 -6 20c0 2 -4 2 -4 2c-50 -33 -97 -50 -116 -50c-22 0 -43 9 -60 25c-24 23 -38 58 -38 96c0 16 11 51 18 61c32 18 156 47 193 64c3 1 6 7 7 10c1 6 1 11 1 17zM254 193c0 2 -2 5 -4 5
c-27 -10 -81 -27 -95 -37c-4 -2 -10 -22 -10 -32c0 -46 33 -69 68 -69c10 0 22 3 31 9c5 3 8 10 8 19c2 28 2 88 2 105zM234 619c12 5 85 10 96 6c2 -1 5 -11 5 -15c-14 -25 -108 -140 -131 -163c-4 -2 -29 13 -31 18c17 45 51 134 61 154z" />
    <glyph glyph-name="acircumflex" unicode="&#xe2;" horiz-adv-x="439" 
d="M255 261c0 18 -3 38 -14 54c-17 23 -44 32 -71 32c-21 0 -39 -6 -46 -13c-9 -9 -27 -46 -35 -64c-5 -4 -39 11 -39 19c2 10 16 60 23 66c49 34 121 61 151 61c51 0 91 -24 114 -59c20 -30 26 -65 26 -101c0 -48 -3 -118 -3 -159c0 -20 7 -37 30 -37c13 0 22 1 35 5
c2 -4 -2 -37 -5 -41c-26 -24 -73 -37 -103 -37c-32 0 -52 12 -58 29c-2 6 -5 14 -6 20c0 2 -4 2 -4 2c-50 -33 -97 -50 -116 -50c-22 0 -43 9 -60 25c-24 23 -38 58 -38 96c0 16 11 51 18 61c32 18 156 47 193 64c3 1 6 7 7 10c1 6 1 11 1 17zM254 193c0 2 -2 5 -4 5
c-27 -10 -81 -27 -95 -37c-4 -2 -10 -22 -10 -32c0 -46 33 -69 68 -69c10 0 22 3 31 9c5 3 8 10 8 19c2 28 2 88 2 105zM209 540c-20 -34 -47 -76 -57 -82c-9 -5 -36 -10 -46 -9c-3 1 -4 6 -4 8c20 28 78 123 94 160c2 4 35 14 40 13c18 -43 77 -142 94 -165
c-3 -6 -40 -19 -52 -19c-9 2 -42 56 -64 94c-1 1 -4 1 -5 0z" />
    <glyph glyph-name="adieresis" unicode="&#xe4;" horiz-adv-x="439" 
d="M255 261c0 18 -3 38 -14 54c-17 23 -44 32 -71 32c-21 0 -39 -6 -46 -13c-9 -9 -27 -46 -35 -64c-5 -4 -39 11 -39 19c2 10 16 60 23 66c49 34 121 61 151 61c51 0 91 -24 114 -59c20 -30 26 -65 26 -101c0 -48 -3 -118 -3 -159c0 -20 7 -37 30 -37c13 0 22 1 35 5
c2 -4 -2 -37 -5 -41c-26 -24 -73 -37 -103 -37c-32 0 -52 12 -58 29c-2 6 -5 14 -6 20c0 2 -4 2 -4 2c-50 -33 -97 -50 -116 -50c-22 0 -43 9 -60 25c-24 23 -38 58 -38 96c0 16 11 51 18 61c32 18 156 47 193 64c3 1 6 7 7 10c1 6 1 11 1 17zM254 193c0 2 -2 5 -4 5
c-27 -10 -81 -27 -95 -37c-4 -2 -10 -22 -10 -32c0 -46 33 -69 68 -69c10 0 22 3 31 9c5 3 8 10 8 19c2 28 2 88 2 105zM181 545c0 -24 -10 -39 -23 -52c-7 -6 -48 -9 -57 -4c-14 7 -23 19 -28 40c-1 6 -2 32 4 40c12 11 38 20 60 20c19 0 33 -7 37 -11c5 -8 7 -25 7 -33z
M361 545c0 -24 -10 -39 -24 -52c-6 -6 -48 -9 -56 -4c-14 7 -23 19 -29 40c0 6 -1 32 5 39c11 12 38 21 59 21c20 0 33 -7 37 -11c6 -8 8 -25 8 -33z" />
    <glyph glyph-name="agrave" unicode="&#xe0;" horiz-adv-x="439" 
d="M255 261c0 18 -3 38 -14 54c-17 23 -44 32 -71 32c-21 0 -39 -6 -46 -13c-9 -9 -27 -46 -35 -64c-5 -4 -39 11 -39 19c2 10 16 60 23 66c49 34 121 61 151 61c51 0 91 -24 114 -59c20 -30 26 -65 26 -101c0 -48 -3 -118 -3 -159c0 -20 7 -37 30 -37c13 0 22 1 35 5
c2 -4 -2 -37 -5 -41c-26 -24 -73 -37 -103 -37c-32 0 -52 12 -58 29c-2 6 -5 14 -6 20c0 2 -4 2 -4 2c-50 -33 -97 -50 -116 -50c-22 0 -43 9 -60 25c-24 23 -38 58 -38 96c0 16 11 51 18 61c32 18 156 47 193 64c3 1 6 7 7 10c1 6 1 11 1 17zM254 193c0 2 -2 5 -4 5
c-27 -10 -81 -27 -95 -37c-4 -2 -10 -22 -10 -32c0 -46 33 -69 68 -69c10 0 22 3 31 9c5 3 8 10 8 19c2 28 2 88 2 105zM204 618c8 -17 43 -122 53 -158c-2 -5 -28 -17 -33 -16c-23 24 -101 120 -120 149c-1 3 1 12 4 14c12 5 85 14 96 11z" />
    <glyph glyph-name="aring" unicode="&#xe5;" horiz-adv-x="439" 
d="M255 261c0 18 -3 38 -14 54c-17 23 -44 32 -71 32c-21 0 -39 -6 -46 -13c-9 -9 -27 -46 -35 -64c-5 -4 -39 11 -39 19c2 10 16 60 23 66c49 34 121 61 151 61c51 0 91 -24 114 -59c20 -30 26 -65 26 -101c0 -48 -3 -118 -3 -159c0 -20 7 -37 30 -37c13 0 22 1 35 5
c2 -4 -2 -37 -5 -41c-26 -24 -73 -37 -103 -37c-32 0 -52 12 -58 29c-2 6 -5 14 -6 20c0 2 -4 2 -4 2c-50 -33 -97 -50 -116 -50c-22 0 -43 9 -60 25c-24 23 -38 58 -38 96c0 16 11 51 18 61c32 18 156 47 193 64c3 1 6 7 7 10c1 6 1 11 1 17zM254 193c0 2 -2 5 -4 5
c-27 -10 -81 -27 -95 -37c-4 -2 -10 -22 -10 -32c0 -46 33 -69 68 -69c10 0 22 3 31 9c5 3 8 10 8 19c2 28 2 88 2 105zM218 621c52 0 80 -37 80 -82c0 -52 -37 -85 -84 -85c-32 0 -80 21 -80 82c0 49 32 85 84 85zM215 577c-29 0 -44 -16 -44 -40c0 -23 22 -38 47 -38
c22 0 43 15 43 36c0 25 -13 42 -46 42z" />
    <glyph glyph-name="atilde" unicode="&#xe3;" horiz-adv-x="439" 
d="M255 261c0 18 -3 38 -14 54c-17 23 -44 32 -71 32c-21 0 -39 -6 -46 -13c-9 -9 -27 -46 -35 -64c-5 -4 -39 11 -39 19c2 10 16 60 23 66c49 34 121 61 151 61c51 0 91 -24 114 -59c20 -30 26 -65 26 -101c0 -48 -3 -118 -3 -159c0 -20 7 -37 30 -37c13 0 22 1 35 5
c2 -4 -2 -37 -5 -41c-26 -24 -73 -37 -103 -37c-32 0 -52 12 -58 29c-2 6 -5 14 -6 20c0 2 -4 2 -4 2c-50 -33 -97 -50 -116 -50c-22 0 -43 9 -60 25c-24 23 -38 58 -38 96c0 16 11 51 18 61c32 18 156 47 193 64c3 1 6 7 7 10c1 6 1 11 1 17zM254 193c0 2 -2 5 -4 5
c-27 -10 -81 -27 -95 -37c-4 -2 -10 -22 -10 -32c0 -46 33 -69 68 -69c10 0 22 3 31 9c5 3 8 10 8 19c2 28 2 88 2 105zM279 544c13 0 40 4 71 34c1 1 5 -1 6 -5c2 -8 -2 -27 -3 -31c-14 -26 -59 -64 -100 -64c-17 0 -34 6 -69 18c-11 4 -25 8 -39 8c-20 0 -44 -14 -65 -33
c-1 -1 -6 2 -7 5c-2 7 2 29 5 32c10 19 60 62 90 62c18 0 36 -5 61 -14c18 -6 39 -12 50 -12z" />
    <glyph glyph-name="ccedilla" unicode="&#xe7;" horiz-adv-x="430" 
d="M405 71c-37 -46 -86 -69 -131 -78l-22 -30c13 -7 32 -17 45 -29c17 -14 25 -32 25 -52c0 -64 -85 -101 -116 -101c-28 0 -48 13 -59 29c-1 7 2 26 4 29c22 -11 42 -16 62 -16c25 0 40 11 40 30c0 18 -13 39 -73 58c0 0 -1 6 1 10c0 0 31 42 52 67h-3
c-66 1 -114 25 -149 70c-28 37 -42 87 -42 139c0 69 37 139 103 176c38 24 100 43 143 43s66 -6 87 -15c9 -3 27 -13 34 -28c2 -5 1 -14 -1 -19c-7 -20 -33 -50 -43 -55c-3 -1 -12 -2 -15 0c-21 22 -60 69 -109 69c-55 0 -86 -53 -86 -125c0 -42 9 -85 33 -117
c31 -40 68 -52 109 -52c36 0 73 11 112 44c2 -1 6 -4 6 -8c2 -9 -2 -32 -7 -39z" />
    <glyph glyph-name="eacute" unicode="&#xe9;" horiz-adv-x="448" 
d="M410 115c1 -1 4 -4 4 -7c1 -10 -4 -31 -5 -35c-43 -53 -119 -85 -178 -85s-101 18 -132 48c-43 41 -60 105 -60 164c0 84 39 148 93 182c34 21 79 34 118 34c110 0 147 -90 156 -146c1 -5 9 -11 16 -14c1 -4 -5 -26 -8 -29c-34 -11 -177 -19 -254 -22c-3 -1 -5 -7 -5 -10
c2 -28 15 -62 40 -85c25 -24 55 -35 98 -35c42 0 78 11 117 40zM220 373c-39 0 -65 -48 -67 -113c0 -2 3 -7 7 -7c28 -1 108 0 126 4c4 1 6 5 7 9c-5 60 -30 107 -73 107zM250 617c12 5 85 10 96 6c2 -1 5 -11 5 -15c-14 -25 -108 -140 -131 -163c-4 -2 -29 13 -31 18
c17 45 51 134 61 154z" />
    <glyph glyph-name="ecircumflex" unicode="&#xea;" horiz-adv-x="448" 
d="M410 115c1 -1 4 -4 4 -7c1 -10 -4 -31 -5 -35c-43 -53 -119 -85 -178 -85s-101 18 -132 48c-43 41 -60 105 -60 164c0 84 39 148 93 182c34 21 79 34 118 34c110 0 147 -90 156 -146c1 -5 9 -11 16 -14c1 -4 -5 -26 -8 -29c-34 -11 -177 -19 -254 -22c-3 -1 -5 -7 -5 -10
c2 -28 15 -62 40 -85c25 -24 55 -35 98 -35c42 0 78 11 117 40zM220 373c-39 0 -65 -48 -67 -113c0 -2 3 -7 7 -7c28 -1 108 0 126 4c4 1 6 5 7 9c-5 60 -30 107 -73 107zM230 540c-20 -34 -47 -76 -57 -82c-9 -5 -36 -10 -46 -9c-3 1 -4 6 -4 8c20 28 78 123 94 160
c2 4 35 14 40 13c18 -43 77 -142 94 -165c-3 -6 -40 -19 -52 -19c-9 2 -42 56 -64 94c-1 1 -4 1 -5 0z" />
    <glyph glyph-name="edieresis" unicode="&#xeb;" horiz-adv-x="448" 
d="M410 115c1 -1 4 -4 4 -7c1 -10 -4 -31 -5 -35c-43 -53 -119 -85 -178 -85s-101 18 -132 48c-43 41 -60 105 -60 164c0 84 39 148 93 182c34 21 79 34 118 34c110 0 147 -90 156 -146c1 -5 9 -11 16 -14c1 -4 -5 -26 -8 -29c-34 -11 -177 -19 -254 -22c-3 -1 -5 -7 -5 -10
c2 -28 15 -62 40 -85c25 -24 55 -35 98 -35c42 0 78 11 117 40zM220 373c-39 0 -65 -48 -67 -113c0 -2 3 -7 7 -7c28 -1 108 0 126 4c4 1 6 5 7 9c-5 60 -30 107 -73 107zM206 545c0 -24 -10 -39 -23 -52c-7 -6 -48 -9 -57 -4c-14 7 -23 19 -28 40c-1 6 -2 32 4 40
c12 11 38 20 60 20c19 0 33 -7 37 -11c5 -8 7 -25 7 -33zM386 545c0 -24 -10 -39 -24 -52c-6 -6 -48 -9 -56 -4c-14 7 -23 19 -29 40c0 6 -1 32 5 39c11 12 38 21 59 21c20 0 33 -7 37 -11c6 -8 8 -25 8 -33z" />
    <glyph glyph-name="egrave" unicode="&#xe8;" horiz-adv-x="448" 
d="M410 115c1 -1 4 -4 4 -7c1 -10 -4 -31 -5 -35c-43 -53 -119 -85 -178 -85s-101 18 -132 48c-43 41 -60 105 -60 164c0 84 39 148 93 182c34 21 79 34 118 34c110 0 147 -90 156 -146c1 -5 9 -11 16 -14c1 -4 -5 -26 -8 -29c-34 -11 -177 -19 -254 -22c-3 -1 -5 -7 -5 -10
c2 -28 15 -62 40 -85c25 -24 55 -35 98 -35c42 0 78 11 117 40zM220 373c-39 0 -65 -48 -67 -113c0 -2 3 -7 7 -7c28 -1 108 0 126 4c4 1 6 5 7 9c-5 60 -30 107 -73 107zM226 623c8 -17 43 -122 53 -158c-2 -5 -28 -17 -33 -16c-23 24 -101 120 -120 149c-1 3 1 12 4 14
c12 5 85 14 96 11z" />
    <glyph glyph-name="iacute" unicode="&#xed;" horiz-adv-x="269" 
d="M256 34c4 -5 1 -32 -5 -37c-18 0 -53 3 -118 3c-52 0 -90 -3 -112 -3c-3 5 -4 32 0 37c18 3 29 5 40 9c14 4 16 13 17 37c1 23 1 83 1 133v91c0 8 -2 18 -8 24c-7 8 -18 14 -45 24c-3 6 0 28 4 32c25 1 118 14 166 33c0 -47 -1 -114 -1 -172c0 -52 0 -117 1 -163
c0 -25 6 -35 19 -39c10 -3 20 -6 41 -9zM153 616c12 5 85 10 96 6c2 -1 5 -11 5 -15c-14 -25 -108 -140 -131 -163c-4 -2 -29 13 -31 18c17 45 51 134 61 154z" />
    <glyph glyph-name="icircumflex" unicode="&#xee;" horiz-adv-x="269" 
d="M256 34c4 -5 1 -32 -5 -37c-18 0 -53 3 -118 3c-52 0 -90 -3 -112 -3c-3 5 -4 32 0 37c18 3 29 5 40 9c14 4 16 13 17 37c1 23 1 83 1 133v91c0 8 -2 18 -8 24c-7 8 -18 14 -45 24c-3 6 0 28 4 32c25 1 118 14 166 33c0 -47 -1 -114 -1 -172c0 -52 0 -117 1 -163
c0 -25 6 -35 19 -39c10 -3 20 -6 41 -9zM125 540c-20 -34 -47 -76 -57 -82c-9 -5 -36 -10 -46 -9c-3 1 -4 6 -4 8c20 28 78 123 94 160c2 4 35 14 40 13c18 -43 77 -142 94 -165c-3 -6 -40 -19 -52 -19c-9 2 -42 56 -64 94c-1 1 -4 1 -5 0z" />
    <glyph glyph-name="idieresis" unicode="&#xef;" horiz-adv-x="269" 
d="M256 34c4 -5 1 -32 -5 -37c-18 0 -53 3 -118 3c-52 0 -90 -3 -112 -3c-3 5 -4 32 0 37c18 3 29 5 40 9c14 4 16 13 17 37c1 23 1 83 1 133v91c0 8 -2 18 -8 24c-7 8 -18 14 -45 24c-3 6 0 28 4 32c25 1 118 14 166 33c0 -47 -1 -114 -1 -172c0 -52 0 -117 1 -163
c0 -25 6 -35 19 -39c10 -3 20 -6 41 -9zM99 545c0 -24 -10 -39 -23 -52c-7 -6 -48 -9 -57 -4c-14 7 -23 19 -28 40c-1 6 -2 32 4 40c12 11 38 20 60 20c19 0 33 -7 37 -11c5 -8 7 -25 7 -33zM279 545c0 -24 -10 -39 -24 -52c-6 -6 -48 -9 -56 -4c-14 7 -23 19 -29 40
c0 6 -1 32 5 39c11 12 38 21 59 21c20 0 33 -7 37 -11c6 -8 8 -25 8 -33z" />
    <glyph glyph-name="igrave" unicode="&#xec;" horiz-adv-x="269" 
d="M256 34c4 -5 1 -32 -5 -37c-18 0 -53 3 -118 3c-52 0 -90 -3 -112 -3c-3 5 -4 32 0 37c18 3 29 5 40 9c14 4 16 13 17 37c1 23 1 83 1 133v91c0 8 -2 18 -8 24c-7 8 -18 14 -45 24c-3 6 0 28 4 32c25 1 118 14 166 33c0 -47 -1 -114 -1 -172c0 -52 0 -117 1 -163
c0 -25 6 -35 19 -39c10 -3 20 -6 41 -9zM120 617c8 -17 43 -122 53 -158c-2 -5 -28 -17 -33 -16c-23 24 -101 120 -120 149c-1 3 1 12 4 14c12 5 85 14 96 11z" />
    <glyph glyph-name="ntilde" unicode="&#xf1;" horiz-adv-x="534" 
d="M23 34c13 2 22 3 33 7c15 3 20 18 21 37c2 30 2 105 2 158c0 29 0 61 -1 74c-3 10 -12 23 -50 37c-1 7 2 26 5 31c56 6 124 27 155 42c2 -2 5 -5 5 -8v-55c0 -3 4 -4 5 -3c47 37 96 62 131 62c46 0 79 -20 103 -54c20 -30 27 -72 27 -119c0 -62 0 -143 1 -176
c0 -8 3 -15 8 -18c15 -9 30 -12 51 -15c3 -6 0 -31 -5 -37c-15 0 -48 3 -113 3c-52 0 -75 -2 -107 -3c-2 6 -4 32 0 37c14 2 26 5 32 7c12 4 16 14 16 31c2 42 4 163 -3 203c-3 17 -12 38 -29 50c-13 10 -29 14 -50 14c-16 0 -40 -6 -57 -19c-6 -4 -9 -13 -9 -22
c0 -68 0 -168 2 -224c1 -24 7 -30 21 -34c10 -3 15 -4 32 -6c3 -5 2 -31 -3 -37c-31 1 -65 3 -112 3c-61 0 -92 -2 -111 -3c-4 6 -4 32 0 37zM332 544c13 0 40 4 71 34c1 1 5 -1 6 -5c2 -8 -2 -27 -3 -31c-14 -26 -59 -64 -100 -64c-17 0 -34 6 -69 18c-11 4 -25 8 -39 8
c-20 0 -44 -14 -65 -33c-1 -1 -6 2 -7 5c-2 7 2 29 5 32c10 19 60 62 90 62c18 0 36 -5 61 -14c18 -6 39 -12 50 -12z" />
    <glyph glyph-name="oacute" unicode="&#xf3;" horiz-adv-x="520" 
d="M269 416c136 0 212 -92 212 -208c0 -82 -35 -145 -92 -181c-32 -20 -87 -39 -134 -39c-152 0 -215 101 -215 217c0 76 35 135 89 170c35 23 86 41 140 41zM242 372c-11 0 -23 -4 -33 -10c-25 -17 -43 -53 -43 -128c0 -131 47 -202 110 -202c15 0 30 5 40 14
c24 20 36 60 36 133c0 119 -41 193 -110 193zM272 616c12 5 85 10 96 6c2 -1 5 -11 5 -15c-14 -25 -108 -140 -131 -163c-4 -2 -29 13 -31 18c17 45 51 134 61 154z" />
    <glyph glyph-name="ocircumflex" unicode="&#xf4;" horiz-adv-x="520" 
d="M269 416c136 0 212 -92 212 -208c0 -82 -35 -145 -92 -181c-32 -20 -87 -39 -134 -39c-152 0 -215 101 -215 217c0 76 35 135 89 170c35 23 86 41 140 41zM242 372c-11 0 -23 -4 -33 -10c-25 -17 -43 -53 -43 -128c0 -131 47 -202 110 -202c15 0 30 5 40 14
c24 20 36 60 36 133c0 119 -41 193 -110 193zM252 540c-20 -34 -47 -76 -57 -82c-9 -5 -36 -10 -46 -9c-3 1 -4 6 -4 8c20 28 78 123 94 160c2 4 35 14 40 13c18 -43 77 -142 94 -165c-3 -6 -40 -19 -52 -19c-9 2 -42 56 -64 94c-1 1 -4 1 -5 0z" />
    <glyph glyph-name="odieresis" unicode="&#xf6;" horiz-adv-x="520" 
d="M269 416c136 0 212 -92 212 -208c0 -82 -35 -145 -92 -181c-32 -20 -87 -39 -134 -39c-152 0 -215 101 -215 217c0 76 35 135 89 170c35 23 86 41 140 41zM242 372c-11 0 -23 -4 -33 -10c-25 -17 -43 -53 -43 -128c0 -131 47 -202 110 -202c15 0 30 5 40 14
c24 20 36 60 36 133c0 119 -41 193 -110 193zM224 545c0 -24 -10 -39 -23 -52c-7 -6 -48 -9 -57 -4c-14 7 -23 19 -28 40c-1 6 -2 32 4 40c12 11 38 20 60 20c19 0 33 -7 37 -11c5 -8 7 -25 7 -33zM404 545c0 -24 -10 -39 -24 -52c-6 -6 -48 -9 -56 -4c-14 7 -23 19 -29 40
c0 6 -1 32 5 39c11 12 38 21 59 21c20 0 33 -7 37 -11c6 -8 8 -25 8 -33z" />
    <glyph glyph-name="ograve" unicode="&#xf2;" horiz-adv-x="520" 
d="M269 416c136 0 212 -92 212 -208c0 -82 -35 -145 -92 -181c-32 -20 -87 -39 -134 -39c-152 0 -215 101 -215 217c0 76 35 135 89 170c35 23 86 41 140 41zM242 372c-11 0 -23 -4 -33 -10c-25 -17 -43 -53 -43 -128c0 -131 47 -202 110 -202c15 0 30 5 40 14
c24 20 36 60 36 133c0 119 -41 193 -110 193zM245 620c8 -17 43 -122 53 -158c-2 -5 -28 -17 -33 -16c-23 24 -101 120 -120 149c-1 3 1 12 4 14c12 5 85 14 96 11z" />
    <glyph glyph-name="otilde" unicode="&#xf5;" horiz-adv-x="520" 
d="M269 416c136 0 212 -92 212 -208c0 -82 -35 -145 -92 -181c-32 -20 -87 -39 -134 -39c-152 0 -215 101 -215 217c0 76 35 135 89 170c35 23 86 41 140 41zM242 372c-11 0 -23 -4 -33 -10c-25 -17 -43 -53 -43 -128c0 -131 47 -202 110 -202c15 0 30 5 40 14
c24 20 36 60 36 133c0 119 -41 193 -110 193zM325 544c13 0 40 4 71 34c1 1 5 -1 6 -5c2 -8 -2 -27 -3 -31c-14 -26 -59 -64 -100 -64c-17 0 -34 6 -69 18c-11 4 -25 8 -39 8c-20 0 -44 -14 -65 -33c-1 -1 -6 2 -7 5c-2 7 2 29 5 32c10 19 60 62 90 62c18 0 36 -5 61 -14
c18 -6 39 -12 50 -12z" />
    <glyph glyph-name="scaron" unicode="&#x161;" horiz-adv-x="377" 
d="M327 403c-7 -34 -9 -73 -12 -117c-5 -3 -31 -5 -35 -2c-8 43 -19 68 -41 81c-11 8 -27 12 -44 12c-31 0 -52 -20 -52 -45c0 -29 12 -46 96 -84c80 -35 106 -70 106 -124c0 -84 -81 -135 -175 -135c-49 0 -92 10 -121 20c-5 19 -16 104 -17 121c3 3 30 13 37 11
c16 -52 34 -80 62 -98c16 -9 38 -14 54 -14c35 0 55 19 55 45c0 29 -18 45 -69 69c-98 46 -127 84 -127 143c0 69 55 129 165 129c19 0 52 -3 70 -6zM203 535c20 34 48 76 57 82c10 5 36 10 47 9c2 -1 4 -6 3 -8c-19 -28 -77 -123 -93 -160c-2 -4 -36 -14 -40 -13
c-19 43 -78 142 -95 165c3 6 40 19 52 19c9 -2 43 -56 64 -94c1 -2 4 -1 5 0z" />
    <glyph glyph-name="uacute" unicode="&#xfa;" horiz-adv-x="520" 
d="M14 357c-2 9 0 32 4 37c45 1 132 5 175 16c-4 -32 -6 -84 -6 -189c0 -55 0 -88 5 -107c6 -24 26 -45 68 -45c23 0 45 9 59 21c6 6 8 11 8 17c2 14 3 69 0 209c0 12 -3 27 -17 31c-15 5 -34 8 -56 11c-3 10 -1 31 4 37c76 0 161 8 189 14c-1 -10 -1 -52 -2 -95v-214
c1 -19 4 -31 18 -32c14 -2 28 -1 44 -1c0 -8 -2 -32 -6 -37c-39 -18 -143 -43 -162 -43c-2 0 -5 4 -7 7c-2 11 -4 42 -4 54c0 3 -3 5 -5 3c-49 -40 -95 -62 -134 -62c-86 0 -116 59 -117 129c-1 50 1 148 -1 195c0 19 -3 31 -18 36c-8 2 -25 6 -39 8zM277 616
c12 5 85 10 96 6c2 -1 5 -11 5 -15c-14 -25 -108 -140 -131 -163c-4 -2 -29 13 -31 18c17 45 51 134 61 154z" />
    <glyph glyph-name="ucircumflex" unicode="&#xfb;" horiz-adv-x="520" 
d="M14 357c-2 9 0 32 4 37c45 1 132 5 175 16c-4 -32 -6 -84 -6 -189c0 -55 0 -88 5 -107c6 -24 26 -45 68 -45c23 0 45 9 59 21c6 6 8 11 8 17c2 14 3 69 0 209c0 12 -3 27 -17 31c-15 5 -34 8 -56 11c-3 10 -1 31 4 37c76 0 161 8 189 14c-1 -10 -1 -52 -2 -95v-214
c1 -19 4 -31 18 -32c14 -2 28 -1 44 -1c0 -8 -2 -32 -6 -37c-39 -18 -143 -43 -162 -43c-2 0 -5 4 -7 7c-2 11 -4 42 -4 54c0 3 -3 5 -5 3c-49 -40 -95 -62 -134 -62c-86 0 -116 59 -117 129c-1 50 1 148 -1 195c0 19 -3 31 -18 36c-8 2 -25 6 -39 8zM247 540
c-20 -34 -47 -76 -57 -82c-9 -5 -36 -10 -46 -9c-3 1 -4 6 -4 8c20 28 78 123 94 160c2 4 35 14 40 13c18 -43 77 -142 94 -165c-3 -6 -40 -19 -52 -19c-9 2 -42 56 -64 94c-1 1 -4 1 -5 0z" />
    <glyph glyph-name="udieresis" unicode="&#xfc;" horiz-adv-x="520" 
d="M14 357c-2 9 0 32 4 37c45 1 132 5 175 16c-4 -32 -6 -84 -6 -189c0 -55 0 -88 5 -107c6 -24 26 -45 68 -45c23 0 45 9 59 21c6 6 8 11 8 17c2 14 3 69 0 209c0 12 -3 27 -17 31c-15 5 -34 8 -56 11c-3 10 -1 31 4 37c76 0 161 8 189 14c-1 -10 -1 -52 -2 -95v-214
c1 -19 4 -31 18 -32c14 -2 28 -1 44 -1c0 -8 -2 -32 -6 -37c-39 -18 -143 -43 -162 -43c-2 0 -5 4 -7 7c-2 11 -4 42 -4 54c0 3 -3 5 -5 3c-49 -40 -95 -62 -134 -62c-86 0 -116 59 -117 129c-1 50 1 148 -1 195c0 19 -3 31 -18 36c-8 2 -25 6 -39 8zM219 545
c0 -24 -10 -39 -23 -52c-7 -6 -48 -9 -57 -4c-14 7 -23 19 -28 40c-1 6 -2 32 4 40c12 11 38 20 60 20c19 0 33 -7 37 -11c5 -8 7 -25 7 -33zM399 545c0 -24 -10 -39 -24 -52c-6 -6 -48 -9 -56 -4c-14 7 -23 19 -29 40c0 6 -1 32 5 39c11 12 38 21 59 21c20 0 33 -7 37 -11
c6 -8 8 -25 8 -33z" />
    <glyph glyph-name="ugrave" unicode="&#xf9;" horiz-adv-x="520" 
d="M14 357c-2 9 0 32 4 37c45 1 132 5 175 16c-4 -32 -6 -84 -6 -189c0 -55 0 -88 5 -107c6 -24 26 -45 68 -45c23 0 45 9 59 21c6 6 8 11 8 17c2 14 3 69 0 209c0 12 -3 27 -17 31c-15 5 -34 8 -56 11c-3 10 -1 31 4 37c76 0 161 8 189 14c-1 -10 -1 -52 -2 -95v-214
c1 -19 4 -31 18 -32c14 -2 28 -1 44 -1c0 -8 -2 -32 -6 -37c-39 -18 -143 -43 -162 -43c-2 0 -5 4 -7 7c-2 11 -4 42 -4 54c0 3 -3 5 -5 3c-49 -40 -95 -62 -134 -62c-86 0 -116 59 -117 129c-1 50 1 148 -1 195c0 19 -3 31 -18 36c-8 2 -25 6 -39 8zM242 617
c8 -17 43 -122 53 -158c-2 -5 -28 -17 -33 -16c-23 24 -101 120 -120 149c-1 3 1 12 4 14c12 5 85 14 96 11z" />
    <glyph glyph-name="yacute" unicode="&#xfd;" horiz-adv-x="455" 
d="M-13 368c-1 10 2 32 6 37c14 0 65 -3 122 -3c55 0 90 2 114 3c5 -6 5 -29 3 -37c-13 -3 -26 -6 -32 -9c-9 -4 -9 -14 -8 -18c16 -50 68 -183 78 -202c0 0 3 -1 4 0c29 64 62 154 68 188c1 13 0 26 -17 32c-11 4 -24 6 -44 9c-2 11 1 33 5 37c18 0 53 -3 90 -3
c35 0 67 2 99 3c3 -6 4 -29 1 -37c-15 -2 -25 -5 -36 -9c-19 -7 -31 -21 -44 -56c-60 -159 -150 -340 -221 -470c-13 -22 -27 -49 -34 -63l-12 -4c-15 2 -57 17 -68 31c-2 5 -1 18 1 22c33 39 106 126 138 192l-11 23c-24 56 -62 152 -97 233c-29 67 -38 84 -68 93
c-10 3 -23 6 -37 8zM281 616c12 5 85 10 96 6c2 -1 5 -11 5 -15c-14 -25 -108 -140 -131 -163c-4 -2 -29 13 -31 18c17 45 51 134 61 154z" />
    <glyph glyph-name="ydieresis" unicode="&#xff;" horiz-adv-x="455" 
d="M-13 368c-1 10 2 32 6 37c14 0 65 -3 122 -3c55 0 90 2 114 3c5 -6 5 -29 3 -37c-13 -3 -26 -6 -32 -9c-9 -4 -9 -14 -8 -18c16 -50 68 -183 78 -202c0 0 3 -1 4 0c29 64 62 154 68 188c1 13 0 26 -17 32c-11 4 -24 6 -44 9c-2 11 1 33 5 37c18 0 53 -3 90 -3
c35 0 67 2 99 3c3 -6 4 -29 1 -37c-15 -2 -25 -5 -36 -9c-19 -7 -31 -21 -44 -56c-60 -159 -150 -340 -221 -470c-13 -22 -27 -49 -34 -63l-12 -4c-15 2 -57 17 -68 31c-2 5 -1 18 1 22c33 39 106 126 138 192l-11 23c-24 56 -62 152 -97 233c-29 67 -38 84 -68 93
c-10 3 -23 6 -37 8zM215 545c0 -24 -10 -39 -23 -52c-7 -6 -48 -9 -57 -4c-14 7 -23 19 -28 40c-1 6 -2 32 4 40c12 11 38 20 60 20c19 0 33 -7 37 -11c5 -8 7 -25 7 -33zM395 545c0 -24 -10 -39 -24 -52c-6 -6 -48 -9 -56 -4c-14 7 -23 19 -29 40c0 6 -1 32 5 39
c11 12 38 21 59 21c20 0 33 -7 37 -11c6 -8 8 -25 8 -33z" />
    <glyph glyph-name="zcaron" unicode="&#x17e;" horiz-adv-x="417" 
d="M368 404c2 -1 5 -16 4 -20c-20 -47 -140 -255 -186 -331c-1 -1 0 -5 2 -6c22 -4 79 -7 100 -7c17 0 45 20 79 96c5 5 28 7 37 6c1 0 4 -2 4 -3c-5 -33 -31 -104 -42 -128c-5 -10 -16 -16 -36 -16c-68 0 -250 6 -294 5c-2 4 -5 17 -4 21c56 92 158 247 199 333
c1 2 0 5 -2 5c-21 0 -67 0 -83 -2c-40 -3 -50 -13 -85 -92c-6 -2 -30 4 -36 10c11 46 20 102 26 138c18 -6 50 -11 77 -11h150c40 0 70 1 90 2zM214 535c20 34 48 76 57 82c10 5 36 10 47 9c2 -1 4 -6 3 -8c-19 -28 -77 -123 -93 -160c-2 -4 -36 -14 -40 -13
c-19 43 -78 142 -95 165c3 6 40 19 52 19c9 -2 43 -56 64 -94c1 -2 4 -1 5 0z" />
    <glyph glyph-name="twodotenleader" unicode="&#x2025;" horiz-adv-x="500" 
d="M126 140c17 0 38 -8 49 -19c20 -17 24 -41 24 -59c0 -14 -6 -39 -20 -53c-15 -15 -36 -22 -58 -22c-15 0 -34 7 -48 21c-15 14 -22 34 -22 55c0 20 9 41 23 55c15 14 35 22 52 22zM376 140c17 0 37 -8 49 -19c20 -17 24 -41 24 -59c0 -14 -6 -39 -20 -53
c-15 -15 -36 -22 -58 -22c-15 0 -34 7 -48 20c-15 15 -22 35 -22 56c0 20 9 41 23 55c15 14 34 22 52 22z" />
    <glyph glyph-name="onedotenleader" unicode="&#x2024;" horiz-adv-x="500" 
d="M251 140c17 0 37 -8 49 -19c20 -17 24 -41 24 -59c0 -14 -6 -39 -20 -53c-15 -16 -36 -22 -58 -22c-15 0 -34 7 -48 21c-15 14 -22 34 -22 55c0 20 9 41 23 55c15 14 34 22 52 22z" />
    <glyph glyph-name="u2014.db" horiz-adv-x="750" 
d="M53 232c7 1 648 3 656 1v-9c-1 -11 -5 -51 -9 -52c-9 -2 -643 -2 -658 -1l-1 8c2 14 9 52 12 53z" />
    <glyph glyph-name="u2014.d" horiz-adv-x="1000" 
d="M53 232c7 1 898 3 906 1v-9c-1 -11 -5 -51 -9 -52c-9 -2 -893 -2 -908 -1l-1 8c2 14 9 52 12 53z" />
    <glyph glyph-name="colonmonetary" unicode="&#x20a1;" horiz-adv-x="504" 
d="M177 303c0 -97 15 -178 52 -222l36 463c0 1 -1 3 -3 2c-59 -25 -85 -115 -85 -243zM298 551l-37 -493c13 -9 32 -12 45 -14l37 505c0 2 -2 5 -4 5c-12 2 -27 2 -37 0c-2 0 -4 -2 -4 -3zM296 -88l8 87c0 2 -2 4 -3 4c-16 0 -30 2 -44 4c-1 0 -3 -1 -3 -3l-8 -87
c-3 -2 -26 -7 -32 -5l10 99c0 1 -2 3 -3 4c-91 30 -170 109 -170 279c0 161 86 271 217 291l5 70c2 2 30 8 34 7l-6 -73c12 2 31 1 45 0l6 66c1 3 32 9 35 7l-8 -76c23 -2 58 -9 75 -10c-1 -25 -1 -80 1 -117c-8 -2 -24 -5 -32 -4c-13 62 -23 74 -45 88c-1 1 -3 -1 -3 -2
l-36 -499c5 0 14 2 19 3c21 7 47 24 85 87c7 -3 19 -11 25 -16c-12 -44 -46 -90 -56 -96c-19 -10 -51 -17 -74 -18c-1 0 -3 -2 -3 -4l-7 -81c-4 -3 -28 -8 -32 -5z" />
    <glyph glyph-name="R_p" horiz-adv-x="971" 
d="M16 515c-3 5 -2 34 3 36c19 0 90 -3 122 -3c71 0 126 2 167 2c100 0 164 -64 164 -141c0 -73 -44 -114 -100 -138c-1 -1 -2 -5 -1 -7c22 -39 97 -148 137 -192c18 -19 32 -33 56 -38v44c0 101 -1 154 -3 194c-1 15 -3 27 -14 32c-12 4 -22 8 -38 11c-2 6 -1 26 1 31
c32 2 119 20 158 34c2 1 4 -6 4 -8c-1 -10 -2 -32 -2 -47c0 -3 4 -5 6 -3c40 29 88 49 118 49c85 0 135 -85 135 -161c0 -73 -32 -126 -74 -163c-42 -36 -118 -59 -159 -59c-4 0 -17 1 -23 2c-2 0 -3 -1 -3 -4c-1 -27 0 -80 1 -105c2 -20 9 -31 27 -35c10 -3 35 -6 54 -8
c2 -6 -1 -32 -5 -37c-103 2 -173 -3 -246 -11c-4 5 -6 33 -3 38c16 3 31 7 41 11c16 6 21 18 22 42c1 17 2 61 3 112c-57 -1 -119 5 -145 19c-19 9 -35 25 -43 37c-35 45 -78 122 -109 170c-6 10 -17 17 -23 17c-6 1 -22 1 -27 1c-2 0 -4 -4 -4 -6c0 -53 1 -104 2 -147
c1 -26 7 -35 26 -41c16 -4 29 -6 52 -9c5 -2 3 -36 -2 -38c-30 0 -90 4 -135 4c-47 0 -105 -4 -137 -4c-4 3 -7 35 -1 38c16 2 37 6 48 8c19 5 26 15 27 44c2 26 3 139 3 193c0 91 -1 155 -2 187c-2 24 -8 34 -26 38c-12 4 -33 8 -52 11zM722 301c-13 0 -30 -5 -44 -13
c-3 -3 -9 -10 -9 -16c-1 -25 -1 -131 1 -167c1 -17 6 -36 20 -47c16 -13 32 -19 53 -19c58 0 78 64 78 124c0 72 -27 138 -99 138zM220 505c-2 -3 -6 -10 -6 -14c-1 -37 -1 -144 -1 -208c0 -3 1 -6 5 -6c33 -1 72 0 88 9c23 13 45 35 45 92c0 78 -37 131 -110 131
c-6 0 -14 -1 -21 -4z" />
    <glyph glyph-name="figuredash" unicode="&#x2012;" horiz-adv-x="319" 
d="M53 304c63 0 197 4 226 5c0 0 1 -10 1 -11c-1 -11 -12 -62 -17 -64c-9 -4 -202 -7 -222 -7c-1 0 -2 10 -2 11c2 16 9 66 14 66z" />
    <glyph glyph-name="onethird" unicode="&#x2153;" horiz-adv-x="830" 
d="M295 247c2 -2 1 -30 -3 -33c-34 0 -70 3 -121 3c-53 0 -77 -3 -109 -3c-3 4 -3 29 0 32c16 3 29 4 41 6c21 4 25 18 26 39c1 27 2 63 2 114c0 53 -1 93 -2 109c-1 10 -6 19 -17 21c-8 2 -29 3 -41 5c-3 3 -1 29 2 31c47 4 121 19 150 31c3 1 11 -1 11 -3
c-4 -23 -4 -62 -4 -118c0 -46 -1 -144 1 -187c2 -23 5 -36 22 -40c16 -4 30 -5 42 -7zM591 632c2 2 35 0 40 -2c1 -1 1 -5 1 -7c-14 -21 -371 -641 -398 -684c-1 -2 -6 -4 -8 -2c-9 7 -20 22 -21 27c5 11 381 664 386 668zM636 375c64 0 104 -41 104 -90
c0 -36 -24 -57 -57 -78c-2 0 -2 -1 -1 -2c55 -17 93 -48 93 -100c0 -44 -29 -81 -71 -106c-34 -20 -73 -31 -111 -31c-29 0 -50 4 -64 12c-9 5 -15 11 -21 22c-6 13 -14 43 -16 58c1 6 20 15 25 14c11 -21 29 -43 48 -54c17 -9 32 -14 55 -14c35 0 62 19 62 64
c0 49 -42 84 -96 84c-7 0 -13 0 -21 -2c-2 5 11 39 14 41c61 10 80 33 80 58c0 33 -26 58 -62 58c-26 0 -52 -12 -77 -35c-5 0 -17 21 -16 26c29 34 77 75 132 75z" />
    <glyph glyph-name="twothirds" unicode="&#x2154;" horiz-adv-x="830" 
d="M143 525c-29 0 -55 -14 -84 -43c-4 -1 -18 22 -18 25c33 54 88 93 143 93c67 0 118 -50 118 -117c0 -44 -19 -77 -68 -123c-31 -30 -55 -46 -71 -60c0 -2 -2 -5 2 -6c19 -2 70 -3 106 -3c14 1 34 18 54 58c3 2 26 -7 29 -11c-6 -21 -26 -92 -38 -108
c-4 -8 -20 -15 -36 -16c-49 -1 -131 3 -190 3c-13 0 -30 -1 -43 -1c-1 6 -1 21 -1 28c45 33 79 60 119 105c31 38 44 69 44 105c0 37 -21 71 -66 71zM609 632c2 2 35 0 40 -2c1 -1 1 -5 1 -7c-14 -21 -371 -641 -398 -684c-1 -2 -6 -4 -8 -2c-9 7 -20 22 -21 27
c5 11 381 664 386 668zM647 375c64 0 104 -41 104 -90c0 -36 -24 -57 -57 -78c-2 0 -2 -1 -1 -2c55 -17 93 -48 93 -100c0 -44 -29 -81 -71 -106c-34 -20 -73 -31 -111 -31c-29 0 -50 4 -64 12c-9 5 -15 11 -21 22c-6 13 -14 43 -16 58c1 6 20 15 25 14
c11 -21 29 -43 48 -54c17 -9 32 -14 55 -14c35 0 62 19 62 64c0 49 -42 84 -96 84c-7 0 -13 0 -21 -2c-2 5 11 39 14 41c61 10 80 33 80 58c0 33 -26 58 -62 58c-26 0 -52 -12 -77 -35c-5 0 -17 21 -16 26c29 34 77 75 132 75z" />
    <glyph glyph-name="oneeighth" unicode="&#x215b;" horiz-adv-x="830" 
d="M296 247c2 -2 1 -30 -3 -33c-34 0 -70 3 -121 3c-53 0 -77 -3 -109 -3c-3 4 -3 29 0 32c16 3 29 4 41 6c21 4 25 18 26 39c1 27 2 63 2 114c0 53 -1 93 -2 109c-1 10 -6 19 -17 21c-8 2 -29 3 -41 5c-3 3 -1 29 2 31c47 4 121 19 150 31c3 1 11 -1 11 -3
c-4 -23 -4 -62 -4 -118c0 -46 -1 -144 1 -187c2 -23 5 -36 22 -40c16 -4 30 -5 42 -7zM587 632c2 2 35 0 40 -2c1 -1 1 -5 1 -7c-14 -21 -371 -641 -398 -684c-1 -2 -6 -4 -8 -2c-9 7 -20 22 -21 27c5 11 381 664 386 668zM642 374c63 0 115 -37 115 -93
c0 -24 -12 -47 -63 -77c-1 -1 -1 -3 0 -3c57 -35 80 -60 80 -106c-1 -58 -62 -112 -148 -112c-99 0 -137 53 -137 96c0 28 14 47 78 85c1 1 2 2 1 3c-44 30 -63 60 -63 100c0 32 18 61 44 80c24 16 56 27 93 27zM628 341c-28 0 -45 -20 -45 -43c0 -28 24 -50 79 -80
c0 0 3 0 4 1c19 19 24 36 24 57c0 34 -22 65 -62 65zM640 18c26 0 49 16 49 44c0 29 -25 53 -89 87c-2 1 -3 1 -4 0c-21 -18 -32 -36 -32 -60c0 -36 31 -71 76 -71z" />
    <glyph glyph-name="threeeighths" unicode="&#x215c;" horiz-adv-x="830" 
d="M199 601c64 0 104 -41 104 -90c0 -36 -24 -57 -57 -78c-2 0 -2 -1 -1 -2c55 -17 93 -48 93 -100c0 -44 -29 -81 -71 -106c-34 -20 -73 -31 -111 -31c-29 0 -50 4 -64 12c-9 5 -15 11 -21 22c-6 13 -14 43 -16 58c1 6 20 15 25 14c11 -21 29 -43 48 -54
c17 -9 32 -14 55 -14c35 0 62 19 62 64c0 49 -42 84 -96 84c-7 0 -13 0 -21 -2c-2 5 11 39 14 41c61 10 80 33 80 58c0 33 -26 58 -62 58c-26 0 -52 -12 -77 -35c-5 0 -17 21 -16 26c29 34 77 75 132 75zM598 632c2 2 35 0 40 -2c1 -1 1 -5 1 -7
c-14 -21 -371 -641 -398 -684c-1 -2 -6 -4 -8 -2c-9 7 -20 22 -21 27c5 11 381 664 386 668zM651 374c63 0 115 -37 115 -93c0 -24 -12 -47 -63 -77c-1 -1 -1 -3 0 -3c57 -35 80 -60 80 -106c-1 -58 -62 -112 -148 -112c-99 0 -137 53 -137 96c0 28 14 47 78 85c1 1 2 2 1 3
c-44 30 -63 60 -63 100c0 32 18 61 44 80c24 16 56 27 93 27zM637 341c-28 0 -45 -20 -45 -43c0 -28 24 -50 79 -80c0 0 3 0 4 1c19 19 24 36 24 57c0 34 -22 65 -62 65zM649 18c26 0 49 16 49 44c0 29 -25 53 -89 87c-2 1 -3 1 -4 0c-21 -18 -32 -36 -32 -60
c0 -36 31 -71 76 -71z" />
    <glyph glyph-name="fiveeighths" unicode="&#x215d;" horiz-adv-x="830" 
d="M302 605c1 0 9 -7 9 -10c-4 -33 -32 -79 -54 -83c-27 -2 -79 5 -103 6c-3 0 -7 -3 -8 -5c-4 -7 -8 -16 -9 -22c-1 -2 0 -7 3 -8c26 -12 98 -40 131 -59c43 -25 60 -51 60 -95c0 -83 -100 -137 -176 -137c-49 0 -80 19 -96 34c-5 5 -9 15 -9 23c0 9 15 40 20 46
c2 2 6 4 9 4c23 -26 59 -63 114 -63c32 0 52 18 52 46c0 25 -10 43 -53 69c-35 22 -93 46 -109 58c-2 3 -3 26 -2 30c15 45 42 105 60 138c4 7 14 15 17 15c19 4 53 3 94 4c24 1 38 3 50 9zM594 632c2 2 35 0 40 -2c1 -1 1 -5 1 -7c-14 -21 -371 -641 -398 -684
c-1 -2 -6 -4 -8 -2c-9 7 -20 22 -21 27c5 11 381 664 386 668zM646 374c63 0 115 -37 115 -93c0 -24 -12 -47 -63 -77c-1 -1 -1 -3 0 -3c57 -35 80 -60 80 -106c-1 -58 -62 -112 -148 -112c-99 0 -137 53 -137 96c0 28 14 47 78 85c1 1 2 2 1 3c-44 30 -63 60 -63 100
c0 32 18 61 44 80c24 16 56 27 93 27zM632 341c-28 0 -45 -20 -45 -43c0 -28 24 -50 79 -80c0 0 3 0 4 1c19 19 24 36 24 57c0 34 -22 65 -62 65zM644 18c26 0 49 16 49 44c0 29 -25 53 -89 87c-2 1 -3 1 -4 0c-21 -18 -32 -36 -32 -60c0 -36 31 -71 76 -71z" />
    <glyph glyph-name="seveneighths" unicode="&#x215e;" horiz-adv-x="830" 
d="M362 596c3 -1 6 -15 5 -16c-25 -75 -161 -328 -183 -383c-1 -2 -3 -4 -5 -4c-8 1 -32 9 -37 14c-2 2 -2 9 -1 12c36 68 127 230 150 288c0 1 -1 3 -2 3c-26 2 -116 2 -148 -1c-23 -3 -32 -13 -55 -52c-4 -2 -24 6 -26 10c11 36 27 100 31 132c13 -3 40 -5 62 -5h131
c26 0 60 0 78 2zM568 632c2 2 35 0 40 -2c1 -1 1 -5 1 -7c-14 -21 -371 -641 -398 -684c-1 -2 -6 -4 -8 -2c-9 7 -20 22 -21 27c5 11 381 664 386 668zM636 374c63 0 115 -37 115 -93c0 -24 -12 -47 -63 -77c-1 -1 -1 -3 0 -3c57 -35 80 -60 80 -106
c-1 -58 -62 -112 -148 -112c-99 0 -137 53 -137 96c0 28 14 47 78 85c1 1 2 2 1 3c-44 30 -63 60 -63 100c0 32 18 61 44 80c24 16 56 27 93 27zM622 341c-28 0 -45 -20 -45 -43c0 -28 24 -50 79 -80c0 0 3 0 4 1c19 19 24 36 24 57c0 34 -22 65 -62 65zM634 18
c26 0 49 16 49 44c0 29 -25 53 -89 87c-2 1 -3 1 -4 0c-21 -18 -32 -36 -32 -60c0 -36 31 -71 76 -71z" />
    <glyph glyph-name="zero.ak" horiz-adv-x="504" 
d="M189 92c16 -46 43 -60 73 -60c52 0 92 51 92 257c0 64 -8 125 -18 164c0 2 -1 3 -3 1zM249 560c-60 0 -95 -85 -95 -252c0 -63 8 -120 17 -158l142 355c1 6 1 9 0 11c-15 31 -36 44 -64 44zM266 601c67 0 116 -30 140 -62c38 -42 67 -118 67 -228
c0 -122 -29 -226 -107 -283c-37 -29 -84 -40 -119 -40c-51 0 -91 11 -122 36c-68 52 -94 153 -94 271c0 97 24 194 90 252c40 37 94 54 145 54z" />
    <glyph glyph-name="Euro" unicode="&#x20ac;" horiz-adv-x="500" 
d="M74 230h-52c-1 8 4 37 8 41h41c-1 18 -1 35 0 54h-39c-2 8 3 36 7 40h36c12 83 46 151 112 196c38 26 90 40 153 40c46 0 96 -9 125 -12c-2 -42 -4 -82 -3 -129c-3 -5 -32 -8 -35 -5c-10 48 -21 75 -43 90c-19 13 -41 17 -62 17c-70 0 -113 -69 -122 -193c0 -4 0 -5 5 -5
c84 0 152 2 166 2c1 -7 -2 -36 -5 -42h-164c-3 -1 -4 -2 -4 -4v-46c0 -3 0 -4 3 -4c55 0 146 1 160 1c2 -6 -2 -34 -5 -40h-153c-3 -1 -4 -3 -4 -4c10 -106 51 -188 143 -188c20 0 44 5 63 25c18 18 37 47 48 70c7 -1 27 -10 30 -19c-10 -38 -38 -90 -60 -109
c-22 -11 -55 -20 -102 -20c-138 0 -231 78 -247 244z" />
    <glyph glyph-name="franc" unicode="&#x20a3;" horiz-adv-x="504" 
d="M39 149c1 11 4 36 7 40c14 0 24 -1 66 -1c0 37 1 78 1 111c0 111 -1 169 -2 205c-2 32 -9 39 -28 44c-15 5 -27 7 -49 10c-4 5 -2 31 1 36c34 0 81 -3 134 -3h189c61 0 94 1 113 5c3 0 7 -5 7 -8c-9 -33 -13 -82 -17 -137c-7 -5 -32 -7 -38 -3c-5 29 -8 51 -14 67
c-7 22 -21 26 -43 27c-33 3 -94 3 -119 2c-6 0 -10 -8 -10 -15c-1 -53 -2 -129 -2 -201c0 -4 2 -6 5 -6c35 0 78 0 109 1c22 1 30 7 35 25c4 10 5 20 10 42c7 2 34 3 41 -3c-2 -16 -4 -50 -4 -92c0 -37 1 -63 2 -82c-6 -6 -30 -7 -39 -5c-4 19 -6 25 -10 37
c-6 22 -20 25 -34 26c-27 2 -83 2 -110 2c-2 0 -5 -3 -5 -6v-74c0 -1 2 -5 4 -5c67 0 78 1 90 1c2 -7 -2 -33 -5 -40h-86c-2 0 -3 -1 -3 -4c0 -18 0 -41 1 -54c0 -28 7 -41 34 -47c19 -4 34 -6 57 -9c2 -7 0 -33 -5 -39c-47 0 -95 4 -149 4c-52 0 -89 -4 -139 -4
c-3 6 -3 33 0 38c17 3 33 5 44 8c26 6 31 17 32 46c1 10 1 36 2 61h-73z" />
    <glyph glyph-name="lira" unicode="&#x20a4;" horiz-adv-x="504" 
d="M321 -26c-33 0 -51 5 -108 23c-51 16 -83 24 -107 24c-17 0 -37 -6 -68 -38c-4 0 -15 5 -17 9c2 15 17 67 22 71c13 11 28 19 41 26c14 8 34 32 33 126c-1 0 -62 1 -78 2c-1 0 -2 6 -2 7c1 5 12 33 14 36c12 -1 62 -1 64 -1v54l-64 1c-2 0 -3 7 -2 7c0 5 12 33 14 35
c11 0 35 -1 54 -1c3 68 15 111 46 152c58 74 143 93 171 93c61 0 89 -23 89 -33c-2 -22 -16 -56 -25 -70c-2 -2 -11 -4 -15 -2c-21 19 -54 57 -94 57c-15 0 -25 -7 -32 -21c-14 -26 -20 -100 -21 -170c0 -2 2 -6 4 -6c44 0 104 0 142 3c1 -3 0 -13 -3 -18
c-8 -13 -21 -22 -37 -25c-28 -3 -70 -4 -101 -4c-2 0 -5 -3 -5 -5c0 -11 -1 -31 -2 -41c0 -2 1 -6 5 -6c49 0 102 0 132 3c1 -3 0 -14 -3 -18c-8 -13 -21 -21 -37 -24c-18 -4 -76 -6 -104 -6c-3 0 -6 -3 -7 -6c-14 -43 -38 -80 -72 -107c28 5 68 -1 104 -6
c27 -4 65 -12 90 -12c55 0 79 9 112 93c2 2 8 2 9 0c6 -5 15 -18 16 -25c-34 -119 -103 -177 -158 -177z" />
    <glyph glyph-name="uni20A7" unicode="&#x20a7;" horiz-adv-x="504" 
d="M462 383c-1 0 -4 -2 -4 -4c-5 -53 -31 -91 -65 -116c-43 -31 -101 -41 -139 -41c-16 0 -30 1 -44 3c-3 0 -5 -4 -5 -5v-123c0 -36 4 -51 38 -56c12 -2 32 -5 43 -6c3 -3 3 -35 0 -38c-41 0 -95 3 -135 3c-39 0 -98 -3 -136 -3c-3 4 -2 33 0 37c13 2 32 4 41 6
c24 4 29 21 29 60v278c0 2 -1 5 -4 5h-56c-1 3 5 38 7 39h49c3 0 4 3 4 5v66c0 30 -2 47 -24 54c-12 3 -26 5 -47 8c-3 3 -1 35 1 37c20 0 86 -3 123 -3c43 0 99 2 142 2c66 0 170 -26 179 -164c0 -2 1 -5 4 -5h33c1 -13 -3 -38 -6 -38c-5 -1 -12 -1 -28 -1zM211 422h123
c2 0 4 4 4 6c-6 102 -65 123 -103 123c-22 0 -29 -4 -29 -30v-94c0 -2 2 -5 5 -5zM205 379v-106c0 -2 3 -5 5 -5c11 -2 30 -3 39 -3c53 0 85 39 88 112c0 2 -1 6 -4 6h-123c-2 0 -5 -2 -5 -4z" />
    <glyph glyph-name="uni20B4" unicode="&#x20b4;" horiz-adv-x="509" 
d="M107 228c-47 0 -66 -1 -73 -1c1 13 6 34 7 38c13 0 21 -1 101 -1l61 52c-144 0 -140 -2 -153 -2c1 13 6 34 8 38c17 0 17 -1 184 -1c46 38 78 74 78 104c0 41 -30 82 -92 82c-63 0 -83 -23 -125 -100c-1 -1 -4 -2 -8 0c-11 4 -28 15 -25 21c12 42 25 71 37 84
c32 29 101 58 162 58c99 0 173 -58 173 -144c0 -36 -14 -67 -59 -105c61 0 79 1 86 1c2 -7 -2 -31 -6 -37c-13 0 -25 1 -113 1c-21 -19 -40 -35 -61 -52c158 0 153 1 163 1c2 -7 -2 -31 -6 -37c-14 0 -14 1 -194 1c-33 -31 -68 -60 -68 -98c0 -66 59 -88 105 -88
c67 0 99 31 152 119c3 1 27 -12 29 -19c-14 -50 -48 -106 -76 -126c-25 -13 -65 -30 -141 -30c-122 0 -197 58 -197 144c0 39 18 66 51 97z" />
    <glyph glyph-name="u0025.d" horiz-adv-x="686" 
d="M524 368c75 0 119 -64 119 -129c0 -72 -30 -107 -53 -124c-35 -26 -63 -33 -100 -33c-72 0 -117 60 -117 130c0 57 18 93 49 120c24 22 61 36 102 36zM198 578c75 0 115 -67 115 -127c0 -74 -31 -109 -53 -126c-35 -25 -64 -33 -101 -33c-71 0 -116 61 -116 130
c0 58 19 92 49 119c25 22 63 37 106 37zM141 86c124 173 242 335 366 508c8 4 37 9 44 10c2 -1 5 -9 5 -11c-33 -40 -326 -453 -389 -537h-7c-4 3 -18 24 -19 30zM176 545c-37 0 -47 -57 -47 -100c0 -84 31 -117 58 -117c37 0 50 47 50 94c0 66 -21 123 -61 123zM505 335
c-37 0 -47 -56 -47 -100c0 -84 32 -117 58 -117c38 0 49 45 49 92c0 61 -17 125 -60 125z" />
    <glyph glyph-name="uni2116" unicode="&#x2116;" horiz-adv-x="878" 
d="M156 593c15 1 33 -23 43 -39c74 -110 160 -251 231 -366h2c0 50 -2 81 -2 217c0 134 50 197 83 200c15 0 33 -18 37 -26c2 -3 2 -13 0 -15c-60 -21 -73 -42 -73 -151c0 -61 1 -237 1 -292s4 -93 11 -120c-8 -5 -73 -16 -77 -15c-66 117 -153 274 -244 415h-2
c0 -103 -1 -175 -1 -224c0 -146 -57 -193 -88 -194c-25 1 -39 20 -47 39c-2 6 -4 47 -2 51c7 -1 37 -5 43 -5c40 0 48 25 48 150c0 49 1 203 -2 233c-2 19 -11 46 -33 74c-15 19 -37 26 -60 31c-4 5 -1 30 3 33zM702 551c89 0 131 -77 131 -148c0 -64 -14 -117 -70 -153
c-35 -23 -61 -27 -93 -27c-61 0 -131 48 -131 158c0 57 22 97 40 118c31 34 73 52 123 52zM682 519c-42 0 -51 -57 -51 -114c0 -104 32 -145 68 -145c39 0 50 70 50 124c0 74 -23 135 -67 135zM594 175c11 1 28 0 48 1c86 3 155 6 186 18c1 -4 -4 -29 -7 -32
c-13 -18 -36 -24 -55 -29c-45 -10 -163 -13 -204 -13c-2 0 -4 8 -3 9c10 18 30 45 35 46z" />
    <glyph glyph-name="uni212E" unicode="&#x212e;" horiz-adv-x="817" 
d="M782 316h-605c-3 0 -5 -1 -5 -4v-183c0 -8 4 -15 9 -21c57 -61 139 -99 229 -99c96 0 182 43 240 111h55c-68 -79 -176 -131 -296 -131c-206 0 -374 150 -374 336s168 336 374 336s373 -150 373 -336v-9zM646 340v184c0 9 -4 16 -10 22c-58 58 -138 95 -226 95
c-90 0 -170 -38 -228 -98c-6 -6 -10 -14 -10 -23v-180c0 -3 2 -5 5 -5h464c3 0 5 2 5 5z" />
    <glyph glyph-name="u212E.d" horiz-adv-x="595" 
d="M337 601c138 0 208 -118 208 -207c0 -21 -4 -39 -5 -44c-40 -26 -107 -27 -191 -32c-37 -2 -129 -2 -168 -3c-3 0 -5 -5 -5 -7c3 -115 49 -236 206 -236c64 0 106 16 162 61c1 -1 3 -3 3 -7c1 -10 -2 -29 -4 -33c-41 -53 -123 -110 -238 -110c-172 0 -249 149 -249 294
c0 131 45 232 160 291c47 27 98 33 121 33zM293 554c-99 0 -113 -126 -116 -182c0 -4 2 -9 5 -9c55 -3 195 -4 224 2c13 3 19 12 19 23c0 73 -41 166 -132 166z" />
    <glyph glyph-name="Q.d" horiz-adv-x="760" 
d="M392 626c200 0 315 -140 315 -309c0 -165 -85 -260 -193 -305c60 -22 124 -58 214 -105c165 -88 270 -121 377 -122c79 -1 152 15 219 59c5 -4 13 -34 11 -42c-96 -87 -229 -125 -335 -125c-97 0 -181 27 -297 97c-115 70 -193 129 -255 165c-46 26 -79 36 -114 43
c-196 38 -281 156 -281 320c0 70 16 136 53 188c67 95 187 136 286 136zM358 579c-116 0 -161 -115 -161 -245c0 -191 83 -306 228 -306c98 0 138 129 138 254c0 150 -59 297 -205 297z" />
    <glyph glyph-name="W.d" horiz-adv-x="942" 
d="M-28 612c48 -2 101 -4 145 -4c45 0 101 1 123 3c2 -4 3 -34 -1 -36c-11 -2 -23 -4 -30 -8c-10 -5 -9 -15 -5 -26c30 -79 132 -312 172 -397c1 -1 4 0 6 1c13 24 44 88 67 137c2 5 3 10 1 15c-27 66 -62 143 -81 185c-31 61 -44 79 -74 87l-36 7c-3 6 -1 30 3 35
c20 0 85 -3 129 -3c51 0 107 2 130 3c2 -4 2 -33 -2 -36c-10 -3 -22 -5 -29 -8c-12 -5 -11 -15 -8 -23c12 -33 36 -93 57 -138c0 -2 4 -2 6 0c30 61 50 110 56 130c5 14 3 25 -12 30c-11 3 -34 7 -47 9c-2 4 0 32 4 36c29 -1 65 -2 102 -2c35 -1 86 2 103 2
c3 -4 2 -32 -2 -36c-11 -2 -23 -3 -33 -6c-30 -9 -40 -17 -69 -68c-25 -42 -50 -95 -76 -146c-2 -5 -2 -11 -1 -14c26 -60 59 -136 86 -191c2 0 4 -1 6 0c39 85 152 347 158 388c2 11 3 24 -16 29c-10 4 -20 6 -36 8c-1 7 1 33 5 37c24 -1 55 -3 93 -3c41 0 90 2 119 3
c3 -5 3 -32 -1 -37c-14 -3 -31 -5 -42 -9c-37 -11 -50 -30 -78 -87c-49 -102 -176 -388 -212 -490c-15 2 -60 3 -74 0c-29 78 -65 166 -96 234c-1 3 -6 4 -8 0c-49 -97 -90 -188 -108 -234c-16 2 -59 1 -73 -1c-41 113 -158 390 -203 478c-34 70 -45 88 -75 98
c-13 4 -31 8 -49 11c-1 6 2 33 6 37z" />
    <glyph glyph-name="a.e" horiz-adv-x="616" 
d="M505 140c5 9 67 48 78 49c6 -8 13 -28 13 -49c0 -36 -23 -75 -58 -104c-45 -38 -106 -51 -154 -51c-59 0 -93 6 -116 26c-7 7 -13 20 -14 25c0 2 -4 2 -4 2c-50 -33 -97 -50 -116 -50c-22 0 -43 9 -60 25c-24 23 -38 58 -38 96c0 16 11 51 18 61c32 18 156 47 193 64
c3 1 6 7 7 10c1 6 1 11 1 17c0 18 -3 38 -14 54c-17 23 -44 32 -71 32c-21 0 -39 -6 -46 -13c-9 -9 -27 -46 -35 -64c-5 -4 -39 11 -39 19c2 10 16 60 23 66c49 34 121 61 151 61c51 0 91 -24 114 -59c20 -30 26 -65 26 -101c0 -48 -3 -111 -3 -148c0 -35 8 -46 18 -54
c18 -10 40 -14 74 -14c41 0 65 12 65 43c0 10 -4 34 -13 57zM254 193c0 2 -2 5 -4 5c-27 -10 -81 -27 -95 -37c-4 -2 -10 -22 -10 -32c0 -46 33 -69 68 -69c10 0 22 3 31 9c5 3 8 10 8 19c2 28 2 88 2 105z" />
    <glyph glyph-name="d.e" horiz-adv-x="711" 
d="M598 140c5 9 67 48 78 49c6 -8 13 -29 13 -49c0 -35 -23 -75 -58 -104c-45 -38 -107 -51 -154 -51c-59 0 -99 3 -122 22c-8 10 -13 22 -18 36c-1 2 -3 4 -5 3c-46 -31 -103 -56 -136 -56c-45 0 -83 20 -111 54c-28 36 -46 88 -46 145c0 68 32 129 77 165
c41 33 123 62 186 62c10 0 23 -1 32 -2c3 0 5 3 5 5c0 64 0 110 -2 136c-2 16 -5 30 -22 36c-14 5 -35 9 -57 11c-3 6 -1 32 4 35c60 0 162 15 199 29c3 -2 7 -15 6 -19c-10 -17 -10 -32 -11 -93c-1 -59 -2 -134 -2 -279v-170c0 -32 8 -40 19 -48c17 -10 42 -16 73 -16
c41 0 65 11 65 42c0 10 -4 34 -13 57zM248 369c-18 0 -39 -7 -55 -23c-20 -20 -35 -57 -35 -110c0 -107 51 -169 123 -169c16 0 34 5 48 15c5 4 8 11 8 20c2 28 2 142 2 196c-1 23 -8 38 -25 51c-20 15 -43 20 -66 20z" />
    <glyph glyph-name="e.e" horiz-adv-x="660" 
d="M215 374c-37 0 -62 -47 -64 -104c0 -2 2 -7 6 -6c21 2 100 2 124 3c4 1 7 5 7 9c-2 53 -29 98 -73 98zM552 390c9 4 69 -3 79 -11c6 -11 8 -27 8 -36c0 -63 -45 -123 -219 -122l-254 1c-12 0 -15 -4 -15 -11c1 -37 16 -78 41 -101c24 -24 59 -37 99 -37
c43 0 77 12 118 41c1 -1 4 -4 5 -7c1 -10 -4 -30 -6 -34c-44 -54 -118 -85 -179 -85c-59 0 -100 19 -129 48c-43 41 -61 107 -61 162c0 84 36 149 91 182c42 25 88 36 117 36c103 0 143 -81 147 -152c23 -1 79 -2 105 -1c51 0 68 21 68 51c0 12 -5 47 -15 76z" />
    <glyph glyph-name="g.e" horiz-adv-x="590" 
d="M209 376c-35 0 -61 -35 -61 -90c0 -85 32 -129 81 -129c13 0 26 6 35 16c13 14 22 42 22 79c0 66 -21 124 -77 124zM248 -198c85 0 118 44 118 82c0 24 -12 45 -38 57c-31 15 -96 19 -147 19c-14 0 -25 -4 -30 -8c-22 -15 -36 -38 -36 -57c0 -20 6 -39 26 -58
c25 -23 65 -35 107 -35zM522 515c1 2 8 12 13 11c31 0 66 -23 66 -58c0 -65 -42 -103 -80 -123c-23 -11 -58 -20 -105 -20c-7 0 -18 0 -26 1c-1 0 -3 -3 -2 -4c2 -9 5 -31 5 -42c0 -64 -22 -97 -58 -125c-14 -11 -56 -34 -116 -39c-7 -1 -31 -3 -36 -3c-5 -1 -12 -9 -12 -16
c0 -15 14 -26 33 -27c47 -4 129 -7 178 -19c31 -9 75 -44 75 -102c0 -82 -56 -140 -131 -176c-42 -20 -86 -27 -124 -27c-46 0 -92 11 -123 31c-35 23 -58 57 -58 90c0 14 2 30 7 39c18 18 59 44 91 64c1 1 1 3 0 3c-39 18 -61 43 -64 76c1 6 2 14 4 18c15 7 62 33 79 47
c2 1 2 5 0 6c-64 22 -100 72 -100 139c0 46 19 88 59 117c32 23 90 40 132 40c50 0 80 -10 115 -19c37 -10 77 -19 128 -19c54 0 68 19 68 56c0 23 -8 59 -18 81z" />
    <glyph glyph-name="h.e" horiz-adv-x="714" 
d="M19 34c17 3 26 5 35 8c17 6 19 20 20 52c1 35 2 111 2 162c0 192 0 274 -4 306c-1 14 -4 21 -17 26c-12 4 -29 5 -47 8c-4 6 -3 29 0 35c72 4 157 23 187 35c3 -5 7 -12 8 -18c-11 -18 -13 -29 -13 -97c-1 -21 -1 -166 -1 -187c0 -2 3 -4 4 -3c45 32 90 55 131 55
c83 0 131 -60 131 -165v-175c0 -14 4 -24 15 -27c14 -4 46 -6 80 -6c43 0 61 15 61 46c0 33 -7 73 -17 106c6 10 73 2 85 -9c5 -6 11 -26 11 -44c0 -39 -16 -81 -58 -112c-37 -27 -80 -32 -142 -32c-20 0 -71 2 -102 2c-37 0 -79 -3 -96 -3c-4 7 -4 30 -1 37c12 2 23 5 29 7
c15 4 18 14 19 45c2 54 4 157 -4 195c-6 32 -33 63 -80 63c-19 0 -42 -6 -58 -17c-4 -2 -7 -8 -7 -15c0 -76 -1 -193 1 -223c2 -29 2 -41 22 -48c10 -3 17 -5 33 -7c4 -7 2 -29 0 -37c-26 0 -72 3 -117 3c-39 0 -81 -3 -110 -3c-4 7 -6 31 0 37z" />
    <glyph glyph-name="m.e" horiz-adv-x="965" 
d="M836 168c8 8 74 27 86 26c11 -14 20 -39 20 -58c0 -87 -91 -141 -186 -141c-76 0 -162 3 -203 2c-3 4 -5 32 -1 37c12 2 21 4 28 7c16 5 18 14 19 42c1 62 2 157 -3 189c-4 29 -24 65 -75 65c-19 0 -46 -9 -67 -25c-2 -2 -2 -4 -2 -6c4 -19 6 -46 6 -73
c0 -55 -1 -119 0 -162c0 -14 4 -21 13 -25c12 -6 24 -9 40 -12c4 -5 1 -33 -4 -37c-36 1 -72 3 -118 3c-42 0 -74 -2 -99 -3c-3 6 -4 32 0 37c15 3 26 4 35 8c12 4 15 16 16 31c2 60 2 176 -3 204c-6 28 -24 63 -73 63c-20 0 -43 -8 -60 -21c-7 -5 -10 -14 -10 -20
c0 -71 0 -159 1 -225c0 -21 5 -29 22 -34c6 -2 19 -4 31 -6c4 -5 1 -31 -4 -37c-34 1 -70 3 -113 3c-63 0 -82 -2 -110 -3c-5 6 -5 33 -1 37c18 2 25 5 36 8c17 6 20 19 21 42c2 41 3 170 1 213c-1 7 -1 16 -7 23c-7 8 -22 16 -45 26c-3 6 0 29 4 32c58 7 132 28 161 41
c1 -1 4 -4 4 -7c0 -5 -1 -39 -1 -57c0 -3 4 -4 6 -2c59 46 103 63 134 63c46 0 83 -26 104 -66c2 -4 3 -3 6 0c58 44 107 66 141 66c79 0 130 -61 130 -165v-183c0 -5 5 -12 11 -14c17 -4 56 -6 79 -6c34 0 52 7 52 41c0 22 -8 55 -22 79z" />
    <glyph glyph-name="n.e" horiz-adv-x="714" 
d="M579 168c9 8 74 27 87 26c11 -14 19 -39 19 -58c0 -87 -91 -141 -186 -141c-76 0 -161 3 -205 2c-2 6 -4 32 0 37c14 2 26 5 32 7c12 4 16 14 16 31c2 42 4 163 -3 203c-3 17 -12 38 -29 50c-13 10 -29 14 -50 14c-16 0 -40 -6 -57 -19c-6 -4 -9 -13 -9 -22
c0 -68 0 -168 2 -224c1 -24 7 -30 21 -34c10 -3 15 -4 32 -6c3 -5 2 -31 -3 -37c-31 1 -65 3 -112 3c-61 0 -92 -2 -111 -3c-4 6 -4 32 0 37c13 2 22 3 33 7c15 3 20 18 21 37c2 30 2 105 2 158c0 29 0 61 -1 74c-3 10 -12 23 -50 37c-1 7 2 26 5 31c56 6 124 27 155 42
c2 -2 5 -5 5 -8v-55c0 -3 4 -4 5 -3c47 37 96 62 131 62c46 0 79 -20 103 -54c20 -30 27 -72 27 -119v-175c0 -5 5 -12 11 -14c17 -4 56 -7 79 -7c33 0 52 8 52 42c0 22 -8 55 -22 79z" />
    <glyph glyph-name="r.e" horiz-adv-x="606" 
d="M20 34c15 2 29 4 41 8c8 4 15 12 16 29c2 21 3 96 2 159c0 34 0 63 -1 77c-2 13 -8 25 -54 42c-1 7 1 25 6 29c35 3 120 22 157 42c0 0 6 -5 6 -6c-1 -11 -3 -62 -3 -77c0 -4 4 -4 6 -2c23 29 78 81 124 81c33 0 64 -14 94 -29c35 -18 64 -32 86 -32c18 0 28 10 28 29
c0 11 -2 30 -8 46c3 6 48 36 58 37c6 -5 8 -20 8 -38c0 -32 -28 -79 -56 -104c-31 -27 -68 -45 -101 -45c-22 0 -49 9 -93 31c-35 17 -53 22 -67 22c-23 0 -45 -11 -67 -38c-5 -6 -9 -17 -9 -26c0 -58 1 -168 2 -184c2 -27 6 -35 24 -41c17 -5 38 -8 60 -10
c1 -6 0 -30 -6 -37c-17 0 -73 3 -140 3c-45 0 -87 -3 -113 -3c-3 8 -4 31 0 37z" />
    <glyph glyph-name="longs" unicode="&#x17f;" horiz-adv-x="269" 
d="M22 346c0 9 6 31 10 37c12 3 33 11 44 17c3 2 5 6 5 7c3 103 36 168 114 221c33 23 79 38 108 38c41 0 69 -12 83 -32c1 -4 1 -12 0 -16c-6 -20 -34 -56 -45 -66c-3 -2 -11 -2 -15 0c-24 24 -55 55 -83 55c-13 0 -26 -7 -33 -23c-17 -36 -16 -99 -16 -246
c0 -102 1 -202 3 -255c1 -22 6 -35 27 -40c10 -3 34 -8 43 -10c2 -5 -2 -32 -5 -36c-23 0 -50 3 -132 3c-52 0 -88 -3 -110 -3c-3 5 -4 32 0 37c15 2 31 5 40 8c15 5 19 18 19 33c1 72 1 173 1 260c0 2 -3 8 -6 8z" />
    <glyph glyph-name="t.e" horiz-adv-x="554" 
d="M452 508c7 6 59 22 71 21c8 -10 16 -24 16 -46c0 -54 -44 -100 -75 -118c-21 -13 -59 -24 -113 -24c-103 0 -146 1 -160 1c-2 -1 -4 -5 -4 -7c0 -40 -1 -109 -1 -157c0 -41 1 -62 4 -76c7 -23 28 -40 57 -40c23 0 38 4 58 15c2 -5 1 -30 -2 -38c-27 -33 -72 -51 -116 -51
c-45 0 -83 17 -100 51c-16 26 -16 52 -16 110c0 53 1 141 1 182c0 4 -2 9 -6 10c-16 1 -36 2 -52 4c1 8 6 37 10 43c13 3 34 7 43 11c2 0 5 5 5 9c1 8 0 63 1 84c24 9 81 38 96 51c3 1 18 3 23 2c-2 -23 -5 -69 -5 -134c0 -3 1 -9 8 -9c51 -2 171 -4 229 -3
c37 0 55 12 55 37c0 21 -14 54 -27 72z" />
    <glyph glyph-name="t.z" horiz-adv-x="581" 
d="M469 164c8 9 63 30 78 31c5 -8 10 -20 10 -44c0 -64 -57 -123 -115 -148c-49 -21 -105 -31 -164 -31c-78 0 -162 12 -193 73c-7 15 -14 37 -14 102c0 53 1 142 1 184c0 3 -2 9 -6 10c-15 2 -36 2 -52 4c1 8 6 33 10 43c14 2 33 7 43 11c2 1 5 3 5 7c1 9 0 65 1 86
c24 10 81 39 96 51c6 2 18 3 23 2c-3 -22 -5 -71 -5 -136c0 -3 3 -7 5 -7l118 4c-3 -16 -8 -45 -10 -66c-32 0 -72 1 -109 1c-1 0 -4 -4 -4 -5c0 -40 -1 -108 -1 -162c0 -76 15 -96 47 -117c32 -20 84 -24 119 -24c75 0 105 14 121 31c4 5 10 16 10 27c0 19 -4 47 -14 73z
" />
    <glyph glyph-name="u.e" horiz-adv-x="700" 
d="M589 140c4 9 67 48 78 49c6 -8 12 -29 12 -49c0 -35 -23 -75 -57 -104c-45 -38 -107 -51 -155 -51c-58 0 -98 2 -120 21c-12 11 -19 28 -19 42c0 2 -3 4 -5 3c-48 -39 -94 -62 -134 -62c-86 0 -116 59 -117 129c-1 50 0 147 -1 195c0 20 -3 31 -18 36c-7 2 -25 6 -39 8
c-2 9 0 31 4 37c45 1 132 6 175 17c-4 -32 -6 -85 -6 -190c0 -55 0 -88 5 -107c6 -24 28 -45 69 -45c26 0 45 10 58 21c5 5 8 11 8 16c2 15 3 70 0 210c0 12 -3 27 -17 31c-15 5 -34 8 -56 11c-2 10 0 31 4 37c76 0 161 8 189 14c-1 -10 -1 -52 -2 -95v-209
c0 -32 8 -40 18 -48c18 -10 43 -16 73 -16c41 0 66 11 66 42c0 10 -5 34 -13 57z" />
    <glyph glyph-name="z.e" horiz-adv-x="655" 
d="M577 230c3 3 22 3 28 -1c11 -13 27 -43 27 -85c-6 -82 -91 -153 -241 -153c-120 0 -286 9 -355 9c-2 4 -5 17 -4 21c56 92 158 247 199 333c1 2 0 5 -2 5c-21 0 -68 0 -83 -2c-40 -3 -50 -13 -85 -92c-7 -1 -30 4 -36 10c11 46 20 102 26 138c18 -6 50 -11 77 -11h149
c34 0 71 1 91 2c2 -2 5 -14 4 -19c-20 -47 -135 -247 -181 -323c-1 -2 0 -6 2 -6c35 -8 171 -14 197 -14c147 0 189 8 189 152c0 8 -2 26 -2 36z" />
    <glyph glyph-name="c_h" horiz-adv-x="927" 
d="M405 71c-50 -61 -122 -83 -173 -83c-66 0 -116 25 -151 70c-28 37 -42 87 -42 139c0 69 37 139 103 176c38 24 100 43 143 43s66 -6 87 -15c9 -3 27 -13 34 -28c2 -5 1 -14 -1 -19c-7 -20 -33 -50 -43 -55c-3 -1 -12 -2 -15 0c-21 22 -60 69 -109 69
c-55 0 -86 -53 -86 -125c0 -42 9 -85 33 -117c31 -40 68 -52 109 -52c36 0 73 11 112 44c2 -1 6 -4 6 -8c2 -9 -2 -32 -7 -39zM406 596c-5 4 -5 32 0 35c72 4 156 23 185 35c4 -2 10 -14 9 -20c-9 -16 -12 -27 -12 -95c-1 -21 -1 -166 -1 -187c0 -2 3 -4 4 -3
c45 32 90 55 131 55c83 0 131 -60 131 -165c0 -54 -1 -143 1 -183c0 -6 3 -16 9 -20c12 -7 31 -12 49 -14c5 -4 2 -33 -4 -37c-16 0 -53 3 -115 3c-38 0 -82 -2 -104 -3c-6 5 -6 32 -1 37c12 2 24 5 30 7c15 4 18 13 19 45c2 54 4 157 -3 195c-6 32 -34 63 -81 63
c-19 0 -40 -6 -57 -16c-4 -3 -8 -10 -8 -16c0 -76 0 -193 1 -223c2 -29 2 -41 22 -48c10 -3 18 -5 35 -7c6 -5 3 -31 -2 -37c-26 0 -56 3 -117 3c-60 0 -90 -3 -110 -3c-6 7 -6 33 0 37c16 3 26 5 35 8c17 6 19 20 20 52c2 35 2 111 2 162c0 215 0 272 -4 304
c-1 14 -4 23 -18 28c-11 3 -28 5 -46 8z" />
    <glyph glyph-name="c_k" horiz-adv-x="890" 
d="M405 71c-50 -61 -122 -83 -173 -83c-66 0 -116 25 -151 70c-28 37 -42 87 -42 139c0 69 37 139 103 176c38 24 100 43 143 43s66 -6 87 -15c9 -3 27 -13 34 -28c2 -5 1 -14 -1 -19c-7 -20 -33 -50 -43 -55c-3 -1 -12 -2 -15 0c-21 22 -60 69 -109 69
c-55 0 -86 -53 -86 -125c0 -42 9 -85 33 -117c31 -40 68 -52 109 -52c36 0 73 11 112 44c2 -1 6 -4 6 -8c2 -9 -2 -32 -7 -39zM652 366c-3 6 0 32 5 36c72 0 159 2 206 8c5 -4 6 -32 0 -38c-37 -7 -62 -14 -84 -36c-28 -28 -63 -62 -87 -89c-2 -1 0 -3 0 -5
c21 -36 114 -156 150 -187c20 -17 29 -19 68 -21c4 -5 0 -33 -5 -37c-20 -3 -77 -4 -119 -4c-29 0 -48 12 -57 21c-25 23 -73 95 -112 150c-8 11 -17 24 -30 26c0 -46 0 -71 1 -109c1 -28 7 -34 25 -39c12 -4 24 -6 37 -8c4 -6 0 -33 -6 -37c-22 0 -57 3 -114 3
c-61 0 -92 -3 -116 -3c-5 4 -5 33 0 37c16 2 27 4 37 7c15 5 18 15 20 37c2 28 2 118 2 164c0 250 0 302 -2 321c-1 14 -5 25 -17 29c-10 4 -28 7 -44 9c-4 6 -3 30 0 34c58 3 150 18 183 31c3 -2 9 -15 8 -18c-9 -14 -11 -35 -12 -97c-1 -67 -2 -169 -2 -332
c14 3 29 10 45 23c36 29 80 83 82 98c0 9 -3 14 -15 18c-12 3 -40 7 -47 8z" />
    <glyph glyph-name="c_t" horiz-adv-x="741" 
d="M260 414l1 3c-5 16 -8 28 -8 51c0 85 87 165 196 165c116 0 159 -85 160 -142c0 -21 0 -55 -1 -82c0 -3 2 -7 5 -7l116 4c-4 -16 -9 -47 -10 -67c-36 0 -72 1 -108 1c-2 0 -5 -4 -5 -5c0 -37 -2 -106 -2 -155c0 -41 1 -57 6 -77c5 -23 26 -41 57 -41c24 0 39 4 59 15
c2 -5 3 -30 -2 -37c-27 -35 -75 -52 -121 -52c-41 0 -76 15 -98 49c-16 25 -16 52 -16 110c0 53 1 142 1 184c0 4 -2 9 -6 10l-51 6c-1 8 8 37 13 42c19 5 38 7 46 12c2 1 5 24 6 68c0 50 -15 109 -98 109c-51 0 -88 -34 -88 -88c0 -23 8 -53 29 -72c6 -7 16 -8 25 -12
c15 -7 28 -16 33 -29c2 -5 0 -16 -3 -21c-8 -17 -33 -45 -43 -49h-13c-20 26 -56 62 -100 62c-55 0 -87 -56 -87 -129c0 -43 9 -87 33 -118c32 -41 68 -51 106 -51c39 0 77 14 113 49c4 -4 12 -32 8 -38c-49 -65 -120 -94 -180 -94c-67 0 -115 25 -152 70
c-27 36 -42 87 -42 139c0 68 36 135 100 175c28 18 80 36 121 42z" />
    <glyph glyph-name="f_t.d" horiz-adv-x="591" 
d="M20 32c16 3 31 6 40 9c15 5 19 19 19 55c1 40 2 185 2 239c0 3 -4 8 -10 8l-51 2c-4 0 4 43 8 44c8 2 34 5 48 9c2 1 5 6 5 9c1 25 3 55 9 78c12 47 36 92 93 132c39 28 92 46 131 46c86 0 143 -65 144 -134c1 -47 0 -37 0 -118c0 -3 2 -8 6 -8c37 0 86 2 114 3
c-4 -16 -8 -46 -9 -65c-37 0 -70 2 -106 2c-1 0 -5 -4 -5 -6c0 -37 -1 -108 -1 -157c0 -41 -1 -57 3 -76c5 -24 27 -43 58 -43c24 0 40 5 60 17c2 -6 2 -29 -1 -37c-27 -33 -74 -53 -121 -53c-46 0 -82 16 -100 51c-14 25 -13 50 -14 69c0 36 3 192 3 226c0 4 -3 9 -6 9
h-136c-5 0 -9 -6 -9 -10c0 -82 -1 -198 3 -248c2 -26 11 -37 31 -43c11 -3 25 -4 49 -8c1 -5 -2 -33 -5 -37c-41 0 -82 3 -134 3c-27 0 -97 -3 -118 -3c-3 5 -4 30 0 35zM265 611c-44 0 -72 -39 -72 -179c0 -10 2 -22 2 -22s4 -8 7 -8h135c5 0 8 4 9 10c3 31 3 60 3 97
c0 35 -6 53 -17 67c-19 23 -39 35 -67 35z" />
    <glyph glyph-name="s_p" horiz-adv-x="863" 
d="M69 140c16 -51 33 -79 61 -96c16 -10 39 -15 55 -15c35 0 55 19 55 45c0 29 -18 45 -69 69c-98 46 -127 84 -127 143c0 69 55 129 165 129c7 0 17 -1 28 -1c-6 14 -11 35 -11 58c0 58 59 143 197 143c49 0 101 -2 127 -1c1 -1 4 -8 3 -11c-17 -43 -27 -138 -26 -238
c0 -2 4 -3 6 -2c51 33 100 53 138 53c43 0 79 -19 104 -46c33 -37 49 -88 49 -134c0 -88 -32 -142 -85 -184c-50 -39 -124 -65 -180 -65c-6 0 -20 1 -29 3c-1 0 -3 -2 -3 -5c0 -30 1 -96 2 -122c1 -25 9 -37 30 -41c13 -3 39 -6 61 -9c1 -7 -2 -31 -6 -37h-31
c-101 1 -165 -4 -243 -12c-4 6 -6 32 -2 38c17 3 37 8 48 12c17 7 23 21 24 48c2 29 3 106 3 224v207c0 122 10 206 32 261c-15 2 -47 4 -76 4c-76 0 -94 -43 -94 -87c0 -25 4 -45 9 -63c18 -3 32 -4 43 -5c-7 -34 -9 -73 -12 -116c-5 -3 -31 -5 -35 -3c-8 44 -18 67 -40 81
c-11 8 -29 12 -45 12c-30 0 -52 -20 -52 -45c0 -29 12 -46 96 -84c80 -35 106 -70 106 -124c0 -84 -81 -135 -175 -135c-49 0 -92 10 -121 20c-5 19 -16 103 -17 120c3 4 30 13 37 11zM592 341c-17 0 -39 -7 -57 -16c-4 -3 -9 -11 -9 -16c0 -29 0 -154 1 -194
c1 -20 8 -42 24 -54c19 -15 39 -21 64 -22c19 0 39 7 57 26c22 23 34 69 34 118c0 51 -12 93 -33 120s-49 38 -81 38z" />
    <glyph glyph-name="s_t" unicode="&#xfb06;" horiz-adv-x="681" 
d="M69 140c16 -51 33 -79 61 -96c16 -10 39 -15 55 -15c35 0 55 19 55 45c0 29 -18 45 -69 69c-98 46 -127 84 -127 143c0 69 55 129 165 129h10c-9 17 -13 40 -13 61c0 82 78 155 186 155c115 0 155 -78 155 -141c0 -21 0 -53 -1 -81c0 -3 2 -7 5 -7l118 4
c-4 -16 -10 -47 -11 -67c-32 0 -72 1 -108 1c-2 0 -5 -4 -5 -5c0 -40 -1 -110 -1 -158c0 -40 1 -57 5 -75c5 -24 28 -40 57 -40c24 0 39 4 59 15c2 -5 1 -29 -1 -37c-27 -35 -73 -52 -119 -52c-45 0 -83 17 -100 51c-16 26 -16 52 -16 110c0 53 1 140 1 182c0 3 -2 9 -6 10
c-9 1 -40 3 -55 5c1 8 9 38 13 47c14 2 34 4 43 8c1 1 5 3 6 8c2 5 5 32 5 68c0 53 -27 97 -92 97c-51 0 -90 -33 -90 -90c0 -35 8 -58 17 -73c18 -3 35 -6 56 -8c-7 -34 -9 -73 -12 -116c-5 -3 -31 -5 -35 -3c-8 44 -18 67 -40 81c-11 8 -29 12 -45 12
c-30 0 -52 -20 -52 -45c0 -29 12 -46 96 -84c80 -35 106 -70 106 -124c0 -84 -81 -135 -175 -135c-49 0 -92 10 -121 20c-5 19 -16 103 -17 120c3 4 30 13 37 11z" />
    <glyph glyph-name="Eng" unicode="&#x14a;" horiz-adv-x="736" 
d="M19 34c22 3 39 6 58 12c22 8 33 25 35 57c6 53 9 237 10 395c0 22 -9 49 -34 59c-18 8 -38 13 -69 17c-4 3 -3 34 0 37c38 0 95 -3 146 -3c28 0 54 1 67 2c6 -15 15 -29 37 -57c86 -108 246 -305 306 -375c2 0 3 1 5 1c-1 130 0 259 -5 329c-3 32 -11 47 -43 55
c-20 5 -39 9 -65 12c-4 3 -3 33 0 36c39 0 85 -3 138 -3c35 0 93 3 119 3c3 -4 3 -33 0 -36c-15 -3 -28 -5 -42 -10c-27 -8 -38 -20 -41 -59c-6 -82 -8 -234 -8 -365c0 0 -1 -85 -1 -92c0 -167 -51 -288 -157 -288c-13 0 -38 3 -50 20c-8 13 -10 64 -4 83c0 1 7 5 7 4
c11 -6 43 -15 76 -15c42 0 62 32 62 82c0 20 -12 45 -24 61c-47 68 -290 375 -361 466c-3 3 -6 0 -6 -1c-1 -108 0 -307 2 -354c3 -41 18 -56 44 -62c17 -4 34 -7 61 -11c4 -4 3 -31 -1 -37c-39 0 -82 3 -130 3c-54 0 -99 -3 -132 -3c-5 4 -4 34 0 37z" />
    <glyph glyph-name="uni019F" unicode="&#x19f;" horiz-adv-x="760" 
d="M378 -18c-112 0 -189 36 -242 92c-62 65 -83 150 -83 232c0 79 20 159 90 222c55 60 146 98 249 98c207 0 315 -145 315 -311c0 -79 -21 -151 -62 -206c-66 -87 -165 -127 -267 -127zM564 332c1 0 2 2 2 3c-8 85 -39 164 -96 209c-30 24 -66 36 -111 36
c-30 0 -57 -8 -78 -23c-58 -38 -84 -119 -87 -211c0 -7 4 -11 8 -12c28 -3 159 -4 201 -4c72 0 142 0 161 2zM568 285c-13 -6 -56 -10 -174 -10c-74 0 -168 2 -193 3c-1 0 -4 -3 -4 -5c9 -88 34 -160 95 -208c31 -22 67 -35 113 -35c31 0 66 11 89 31c51 46 74 124 74 213
v11z" />
    <glyph glyph-name="uni018F" unicode="&#x18f;" horiz-adv-x="657" 
d="M291 -19c-156 0 -244 116 -244 230c0 21 4 39 6 44c36 16 103 23 168 24c50 1 218 2 244 2c1 0 4 1 5 4v15c0 125 -54 271 -209 271c-31 0 -66 -8 -92 -18c-26 -11 -55 -49 -81 -99c-6 -2 -29 16 -27 22c4 13 39 93 51 102c50 25 128 49 205 49c193 0 287 -147 287 -311
c0 -143 -62 -253 -177 -307c-50 -24 -105 -28 -136 -28zM325 23c122 0 140 159 141 209c0 3 -2 6 -5 6c-120 3 -224 1 -257 -5c-10 -2 -23 -19 -23 -35c0 -80 45 -175 144 -175z" />
    <glyph glyph-name="uni021C" unicode="&#x21c;" horiz-adv-x="535" 
d="M339 497c3 5 6 6 -1 6c-29 0 -128 1 -171 -2c-68 -5 -71 -15 -108 -81c-6 -2 -31 9 -33 13c18 58 35 120 48 184c31 -7 64 -9 99 -9h283c2 -3 5 -16 4 -22c-16 -33 -115 -165 -170 -225c-2 -4 -1 -4 3 -6c122 -16 202 -73 202 -174c0 -183 -232 -284 -421 -284
c-19 0 -35 25 -36 31c0 1 3 9 4 10c200 15 318 101 318 209c0 72 -50 109 -130 109c-35 0 -68 -8 -101 -22c-6 -2 -1 43 2 46c11 8 19 15 35 26c71 53 152 155 173 191z" />
    <glyph glyph-name="eng" unicode="&#x14b;" horiz-adv-x="527" 
d="M22 34c14 2 23 3 34 7c15 3 20 18 21 37c2 30 2 105 2 158c0 28 0 60 -1 73c-1 10 -12 24 -51 39c0 6 3 26 6 30c56 6 124 27 155 42l5 -8v-55c0 -3 4 -4 5 -3c47 37 97 62 130 62c46 0 78 -19 102 -53c21 -31 30 -74 30 -128c0 -55 -1 -129 -2 -172
c-5 -129 -37 -188 -79 -241c-36 -44 -88 -77 -123 -77c-13 0 -39 4 -51 18c-3 12 5 64 12 80c17 -10 60 -29 85 -29s37 21 40 82c1 25 2 107 2 158c1 60 0 163 -7 213c-3 18 -11 45 -30 58c-13 10 -25 15 -48 15c-17 0 -39 -7 -56 -18c-6 -4 -9 -11 -9 -25
c0 -67 0 -163 2 -223c1 -24 7 -30 21 -34c10 -3 17 -4 33 -6c3 -5 0 -31 -3 -37c-32 1 -67 3 -113 3c-60 0 -84 -2 -111 -3c-4 6 -4 32 -1 37z" />
    <glyph glyph-name="uni0138" unicode="&#x138;" horiz-adv-x="493" 
d="M21 34c14 2 24 4 33 6c18 4 24 18 24 41c0 2 2 230 1 239s-2 22 -17 28c-11 5 -24 7 -42 12c-2 7 2 31 5 34c71 4 143 15 173 22c-4 -24 -5 -52 -6 -72v-131c55 15 137 113 137 130c0 6 -2 11 -13 14c-9 3 -21 5 -42 7c-4 6 -4 33 0 37c83 -1 157 4 193 6
c5 -6 5 -33 0 -38c-42 -7 -59 -17 -79 -36l-90 -94c-1 -1 -2 -4 -1 -6c36 -50 106 -145 141 -175c17 -16 28 -20 78 -25c3 -3 2 -32 -4 -36c-15 -3 -78 -5 -117 -5s-53 4 -72 28c-28 32 -74 101 -110 150c-4 5 -10 9 -21 11c0 -31 1 -73 1 -103c1 -23 5 -33 24 -38
c9 -3 22 -4 36 -7c4 -5 1 -30 -3 -36c-19 0 -50 3 -114 3c-65 0 -95 -3 -115 -3c-4 5 -4 33 0 37z" />
    <glyph glyph-name="uni0275" unicode="&#x275;" horiz-adv-x="521" 
d="M357 227c-13 109 -52 145 -109 145c-55 0 -85 -56 -85 -135c0 -2 2 -8 7 -8c20 -3 161 -4 187 -2zM359 186c-16 -7 -66 -7 -92 -7c-30 0 -73 0 -101 1c8 -106 53 -149 108 -149c61 0 83 57 85 155zM270 416c135 0 211 -94 211 -208c0 -82 -36 -145 -94 -181
c-32 -21 -85 -39 -131 -39c-150 0 -217 101 -217 217c0 76 35 135 89 170c35 22 86 41 142 41z" />
    <glyph glyph-name="uni0259" unicode="&#x259;" horiz-adv-x="442" 
d="M193 -12c-110 0 -150 88 -155 137c-1 10 -1 36 -1 45c17 5 181 24 247 32c3 1 5 4 5 8c0 25 -8 60 -33 88c-23 26 -52 37 -93 37c-44 0 -82 -16 -121 -46c-3 4 -4 31 -1 36c45 54 122 91 179 91c58 0 95 -19 124 -48c44 -41 58 -105 58 -161c0 -80 -35 -148 -89 -182
c-33 -21 -89 -37 -120 -37zM228 31c39 0 63 49 64 122c0 2 -3 8 -7 8c-34 -5 -103 -11 -128 -17c-4 -2 -6 -7 -7 -10c3 -61 33 -103 78 -103z" />
    <glyph glyph-name="uni021D" unicode="&#x21d;" horiz-adv-x="414" 
d="M261 308c-14 0 -85 1 -120 0c-50 -1 -59 -13 -83 -66c-7 -1 -31 6 -36 11c13 51 30 109 36 155c20 -5 52 -6 81 -6h218c3 -6 5 -16 6 -24c-16 -32 -86 -133 -137 -193c-3 -3 -2 -3 0 -5c86 -18 167 -74 167 -162c0 -154 -191 -267 -349 -273c-6 0 -14 34 -9 37
c121 19 229 94 229 194c0 64 -44 104 -97 104c-24 0 -47 -6 -73 -21c-6 -3 -18 28 -13 31c65 54 157 166 180 218z" />
    <glyph glyph-name="u0026.dc" horiz-adv-x="791" 
d="M291 619c87 0 150 -55 150 -128c0 -57 -40 -88 -122 -136c-2 -2 -2 -5 0 -6c46 -43 113 -94 170 -135c1 -1 5 -1 7 1c21 34 48 85 70 123c23 38 57 99 98 100c36 -1 61 -12 78 -26c4 -4 5 -24 1 -29c-52 -3 -101 -43 -139 -88c-27 -32 -51 -71 -74 -103c-1 -1 0 -6 1 -6
c47 -36 107 -82 150 -123c100 -90 120 -151 120 -237c0 -72 -43 -161 -93 -205c-9 -3 -32 10 -32 17c23 47 27 89 27 114c0 75 -37 136 -128 227c-42 41 -84 74 -124 106c-2 1 -3 1 -5 -1c-69 -71 -139 -100 -207 -100c-116 0 -198 72 -198 180c0 55 25 90 131 158
c1 1 1 4 0 5c-32 36 -55 76 -55 131c0 91 78 161 174 161zM277 581c-35 0 -62 -30 -62 -80c0 -43 25 -86 70 -123c0 -1 5 -2 7 0c32 29 54 64 54 117c0 42 -26 86 -69 86zM202 294c-1 2 -5 2 -6 0c-22 -23 -39 -49 -39 -88c0 -73 62 -136 149 -136c41 0 79 17 104 41
c2 2 2 3 0 5c-70 55 -146 118 -208 178z" />
    <glyph glyph-name="u0026.db" horiz-adv-x="807" 
d="M303 -15c-153 0 -248 85 -248 200c0 62 43 104 127 146c0 1 -1 4 -1 4c-41 27 -60 66 -60 110c0 41 21 82 60 116c46 39 106 58 149 58c55 0 92 -18 96 -44c4 -13 -24 -55 -38 -68c-3 -2 -9 -4 -12 -3c-30 44 -60 66 -100 66c-34 0 -59 -28 -59 -66
c0 -66 46 -101 123 -111c1 -2 1 -11 -1 -15c-10 -19 -31 -46 -35 -46c-18 0 -37 -4 -45 -6c-37 -5 -74 -36 -74 -93c0 -114 96 -168 190 -168c106 0 163 50 163 151c0 28 -9 53 -21 65c-16 16 -33 22 -53 22c-28 0 -43 -16 -43 -37c0 -13 8 -34 26 -56c3 -5 3 -11 -1 -15
c-12 -14 -61 -39 -75 -39c-18 13 -31 33 -31 64c0 47 68 139 186 139c26 0 78 -4 118 -4c36 0 55 12 55 36c0 34 -26 75 -61 105c-1 4 4 14 8 16c19 5 75 4 90 -3c17 -10 29 -30 29 -68c0 -67 -58 -132 -143 -153c-2 -4 -2 -17 -2 -26c-4 -131 -135 -277 -317 -277z" />
    </font>
</defs>
</svg>
